<svg width="349" height="388" viewBox="0 0 349 388" fill="none" xmlns="http://www.w3.org/2000/svg">
<path d="M74.94 123.08C74.8067 122.76 74.6267 122.353 74.4 121.86C74.1867 121.367 73.9533 120.833 73.7 120.26C73.4467 119.687 73.1733 119.1 72.88 118.5C72.6 117.887 72.3333 117.313 72.08 116.78C71.8267 116.233 71.5867 115.747 71.36 115.32C71.1467 114.893 70.9733 114.567 70.84 114.34C70.6933 115.913 70.5733 117.62 70.48 119.46C70.3867 121.287 70.3067 123.133 70.24 125H68.34C68.3933 123.8 68.4533 122.593 68.52 121.38C68.5867 120.153 68.66 118.953 68.74 117.78C68.8333 116.593 68.9267 115.44 69.02 114.32C69.1267 113.2 69.24 112.14 69.36 111.14H71.06C71.42 111.727 71.8067 112.42 72.22 113.22C72.6333 114.02 73.0467 114.86 73.46 115.74C73.8733 116.607 74.2733 117.48 74.66 118.36C75.0467 119.227 75.4 120.02 75.72 120.74C76.04 120.02 76.3933 119.227 76.78 118.36C77.1667 117.48 77.5667 116.607 77.98 115.74C78.3933 114.86 78.8067 114.02 79.22 113.22C79.6333 112.42 80.02 111.727 80.38 111.14H82.08C82.5333 115.607 82.8733 120.227 83.1 125H81.2C81.1333 123.133 81.0533 121.287 80.96 119.46C80.8667 117.62 80.7467 115.913 80.6 114.34C80.4667 114.567 80.2867 114.893 80.06 115.32C79.8467 115.747 79.6133 116.233 79.36 116.78C79.1067 117.313 78.8333 117.887 78.54 118.5C78.26 119.1 77.9933 119.687 77.74 120.26C77.4867 120.833 77.2467 121.367 77.02 121.86C76.8067 122.353 76.6333 122.76 76.5 123.08H74.94ZM89.5419 123.66C89.9819 123.66 90.3685 123.653 90.7019 123.64C91.0485 123.613 91.3352 123.573 91.5619 123.52V120.42C91.4285 120.353 91.2085 120.3 90.9019 120.26C90.6085 120.207 90.2485 120.18 89.8219 120.18C89.5419 120.18 89.2419 120.2 88.9219 120.24C88.6152 120.28 88.3285 120.367 88.0619 120.5C87.8085 120.62 87.5952 120.793 87.4219 121.02C87.2485 121.233 87.1619 121.52 87.1619 121.88C87.1619 122.547 87.3752 123.013 87.8019 123.28C88.2285 123.533 88.8085 123.66 89.5419 123.66ZM89.3819 114.34C90.1285 114.34 90.7552 114.44 91.2619 114.64C91.7819 114.827 92.1952 115.1 92.5019 115.46C92.8219 115.807 93.0485 116.227 93.1819 116.72C93.3152 117.2 93.3819 117.733 93.3819 118.32V124.82C93.2219 124.847 92.9952 124.887 92.7019 124.94C92.4219 124.98 92.1019 125.02 91.7419 125.06C91.3819 125.1 90.9885 125.133 90.5619 125.16C90.1485 125.2 89.7352 125.22 89.3219 125.22C88.7352 125.22 88.1952 125.16 87.7019 125.04C87.2085 124.92 86.7819 124.733 86.4219 124.48C86.0619 124.213 85.7819 123.867 85.5819 123.44C85.3819 123.013 85.2819 122.5 85.2819 121.9C85.2819 121.327 85.3952 120.833 85.6219 120.42C85.8619 120.007 86.1819 119.673 86.5819 119.42C86.9819 119.167 87.4485 118.98 87.9819 118.86C88.5152 118.74 89.0752 118.68 89.6619 118.68C89.8485 118.68 90.0419 118.693 90.2419 118.72C90.4419 118.733 90.6285 118.76 90.8019 118.8C90.9885 118.827 91.1485 118.853 91.2819 118.88C91.4152 118.907 91.5085 118.927 91.5619 118.94V118.42C91.5619 118.113 91.5285 117.813 91.4619 117.52C91.3952 117.213 91.2752 116.947 91.1019 116.72C90.9285 116.48 90.6885 116.293 90.3819 116.16C90.0885 116.013 89.7019 115.94 89.2219 115.94C88.6085 115.94 88.0685 115.987 87.6019 116.08C87.1485 116.16 86.8085 116.247 86.5819 116.34L86.3619 114.8C86.6019 114.693 87.0019 114.593 87.5619 114.5C88.1219 114.393 88.7285 114.34 89.3819 114.34ZM98.2111 114.6H102.151V116.16H98.2111V120.96C98.2111 121.48 98.2511 121.913 98.3311 122.26C98.4111 122.593 98.5311 122.86 98.6911 123.06C98.8511 123.247 99.0511 123.38 99.2911 123.46C99.5311 123.54 99.8111 123.58 100.131 123.58C100.691 123.58 101.138 123.52 101.471 123.4C101.818 123.267 102.058 123.173 102.191 123.12L102.551 124.66C102.364 124.753 102.038 124.867 101.571 125C101.104 125.147 100.571 125.22 99.9711 125.22C99.2644 125.22 98.6778 125.133 98.2111 124.96C97.7578 124.773 97.3911 124.5 97.1111 124.14C96.8311 123.78 96.6311 123.34 96.5111 122.82C96.4044 122.287 96.3511 121.673 96.3511 120.98V111.7L98.2111 111.38V114.6ZM103.743 119.82C103.743 118.9 103.876 118.1 104.143 117.42C104.409 116.727 104.763 116.153 105.203 115.7C105.643 115.247 106.149 114.907 106.723 114.68C107.296 114.453 107.883 114.34 108.483 114.34C109.883 114.34 110.956 114.78 111.703 115.66C112.449 116.527 112.823 117.853 112.823 119.64C112.823 119.72 112.823 119.827 112.823 119.96C112.823 120.08 112.816 120.193 112.803 120.3H105.683C105.763 121.38 106.076 122.2 106.623 122.76C107.169 123.32 108.023 123.6 109.183 123.6C109.836 123.6 110.383 123.547 110.823 123.44C111.276 123.32 111.616 123.207 111.843 123.1L112.103 124.66C111.876 124.78 111.476 124.907 110.903 125.04C110.343 125.173 109.703 125.24 108.983 125.24C108.076 125.24 107.289 125.107 106.623 124.84C105.969 124.56 105.429 124.18 105.003 123.7C104.576 123.22 104.256 122.653 104.043 122C103.843 121.333 103.743 120.607 103.743 119.82ZM110.883 118.8C110.896 117.96 110.683 117.273 110.243 116.74C109.816 116.193 109.223 115.92 108.463 115.92C108.036 115.92 107.656 116.007 107.323 116.18C107.003 116.34 106.729 116.553 106.503 116.82C106.276 117.087 106.096 117.393 105.963 117.74C105.843 118.087 105.763 118.44 105.723 118.8H110.883ZM119.335 114.38C119.495 114.38 119.675 114.393 119.875 114.42C120.088 114.433 120.295 114.46 120.495 114.5C120.695 114.527 120.875 114.56 121.035 114.6C121.208 114.627 121.335 114.653 121.415 114.68L121.095 116.3C120.948 116.247 120.701 116.187 120.355 116.12C120.021 116.04 119.588 116 119.055 116C118.708 116 118.361 116.04 118.015 116.12C117.681 116.187 117.461 116.233 117.355 116.26V125H115.495V115.04C115.935 114.88 116.481 114.733 117.135 114.6C117.788 114.453 118.521 114.38 119.335 114.38ZM125.069 125H123.209V114.6H125.069V125ZM124.129 112.72C123.796 112.72 123.509 112.613 123.269 112.4C123.043 112.173 122.929 111.873 122.929 111.5C122.929 111.127 123.043 110.833 123.269 110.62C123.509 110.393 123.796 110.28 124.129 110.28C124.463 110.28 124.743 110.393 124.969 110.62C125.209 110.833 125.329 111.127 125.329 111.5C125.329 111.873 125.209 112.173 124.969 112.4C124.743 112.613 124.463 112.72 124.129 112.72ZM131.788 123.66C132.228 123.66 132.615 123.653 132.948 123.64C133.295 123.613 133.581 123.573 133.808 123.52V120.42C133.675 120.353 133.455 120.3 133.148 120.26C132.855 120.207 132.495 120.18 132.068 120.18C131.788 120.18 131.488 120.2 131.168 120.24C130.861 120.28 130.575 120.367 130.308 120.5C130.055 120.62 129.841 120.793 129.668 121.02C129.495 121.233 129.408 121.52 129.408 121.88C129.408 122.547 129.621 123.013 130.048 123.28C130.475 123.533 131.055 123.66 131.788 123.66ZM131.628 114.34C132.375 114.34 133.001 114.44 133.508 114.64C134.028 114.827 134.441 115.1 134.748 115.46C135.068 115.807 135.295 116.227 135.428 116.72C135.561 117.2 135.628 117.733 135.628 118.32V124.82C135.468 124.847 135.241 124.887 134.948 124.94C134.668 124.98 134.348 125.02 133.988 125.06C133.628 125.1 133.235 125.133 132.808 125.16C132.395 125.2 131.981 125.22 131.568 125.22C130.981 125.22 130.441 125.16 129.948 125.04C129.455 124.92 129.028 124.733 128.668 124.48C128.308 124.213 128.028 123.867 127.828 123.44C127.628 123.013 127.528 122.5 127.528 121.9C127.528 121.327 127.641 120.833 127.868 120.42C128.108 120.007 128.428 119.673 128.828 119.42C129.228 119.167 129.695 118.98 130.228 118.86C130.761 118.74 131.321 118.68 131.908 118.68C132.095 118.68 132.288 118.693 132.488 118.72C132.688 118.733 132.875 118.76 133.048 118.8C133.235 118.827 133.395 118.853 133.528 118.88C133.661 118.907 133.755 118.927 133.808 118.94V118.42C133.808 118.113 133.775 117.813 133.708 117.52C133.641 117.213 133.521 116.947 133.348 116.72C133.175 116.48 132.935 116.293 132.628 116.16C132.335 116.013 131.948 115.94 131.468 115.94C130.855 115.94 130.315 115.987 129.848 116.08C129.395 116.16 129.055 116.247 128.828 116.34L128.608 114.8C128.848 114.693 129.248 114.593 129.808 114.5C130.368 114.393 130.975 114.34 131.628 114.34ZM141.837 125.2C140.691 125.173 139.877 124.927 139.397 124.46C138.917 123.993 138.677 123.267 138.677 122.28V109.8L140.537 109.48V121.98C140.537 122.287 140.564 122.54 140.617 122.74C140.671 122.94 140.757 123.1 140.877 123.22C140.997 123.34 141.157 123.433 141.357 123.5C141.557 123.553 141.804 123.6 142.097 123.64L141.837 125.2ZM151.015 123.92C151.015 124.28 150.895 124.593 150.655 124.86C150.415 125.127 150.088 125.26 149.675 125.26C149.262 125.26 148.935 125.127 148.695 124.86C148.455 124.593 148.335 124.28 148.335 123.92C148.335 123.56 148.455 123.247 148.695 122.98C148.935 122.713 149.262 122.58 149.675 122.58C150.088 122.58 150.415 122.713 150.655 122.98C150.895 123.247 151.015 123.56 151.015 123.92ZM151.015 115.94C151.015 116.3 150.895 116.613 150.655 116.88C150.415 117.147 150.088 117.28 149.675 117.28C149.262 117.28 148.935 117.147 148.695 116.88C148.455 116.613 148.335 116.3 148.335 115.94C148.335 115.58 148.455 115.267 148.695 115C148.935 114.733 149.262 114.6 149.675 114.6C150.088 114.6 150.415 114.733 150.655 115C150.895 115.267 151.015 115.58 151.015 115.94ZM167.746 125C167.519 124.4 167.306 123.813 167.106 123.24C166.906 122.653 166.699 122.06 166.486 121.46H160.206L158.946 125H156.926C157.459 123.533 157.959 122.18 158.426 120.94C158.892 119.687 159.346 118.5 159.786 117.38C160.239 116.26 160.686 115.193 161.126 114.18C161.566 113.153 162.026 112.14 162.506 111.14H164.286C164.766 112.14 165.226 113.153 165.666 114.18C166.106 115.193 166.546 116.26 166.986 117.38C167.439 118.5 167.899 119.687 168.366 120.94C168.832 122.18 169.332 123.533 169.866 125H167.746ZM165.926 119.86C165.499 118.7 165.072 117.58 164.646 116.5C164.232 115.407 163.799 114.36 163.346 113.36C162.879 114.36 162.432 115.407 162.006 116.5C161.592 117.58 161.179 118.7 160.766 119.86H165.926ZM174.747 125.2C173.601 125.173 172.787 124.927 172.307 124.46C171.827 123.993 171.587 123.267 171.587 122.28V109.8L173.447 109.48V121.98C173.447 122.287 173.474 122.54 173.527 122.74C173.581 122.94 173.667 123.1 173.787 123.22C173.907 123.34 174.067 123.433 174.267 123.5C174.467 123.553 174.714 123.6 175.007 123.64L174.747 125.2ZM185.376 124.7C184.949 124.807 184.383 124.92 183.676 125.04C182.983 125.16 182.176 125.22 181.256 125.22C180.456 125.22 179.783 125.107 179.236 124.88C178.689 124.64 178.249 124.307 177.916 123.88C177.583 123.453 177.343 122.953 177.196 122.38C177.049 121.793 176.976 121.147 176.976 120.44V114.6H178.836V120.04C178.836 121.307 179.036 122.213 179.436 122.76C179.836 123.307 180.509 123.58 181.456 123.58C181.656 123.58 181.863 123.573 182.076 123.56C182.289 123.547 182.489 123.533 182.676 123.52C182.863 123.493 183.029 123.473 183.176 123.46C183.336 123.433 183.449 123.407 183.516 123.38V114.6H185.376V124.7ZM188.58 114.9C189.007 114.793 189.567 114.68 190.26 114.56C190.967 114.44 191.78 114.38 192.7 114.38C193.367 114.38 193.927 114.473 194.38 114.66C194.834 114.833 195.214 115.093 195.52 115.44C195.614 115.373 195.76 115.28 195.96 115.16C196.16 115.04 196.407 114.927 196.7 114.82C196.994 114.7 197.32 114.6 197.68 114.52C198.04 114.427 198.427 114.38 198.84 114.38C199.64 114.38 200.294 114.5 200.8 114.74C201.307 114.967 201.7 115.293 201.98 115.72C202.274 116.147 202.467 116.653 202.56 117.24C202.667 117.827 202.72 118.467 202.72 119.16V125H200.86V119.56C200.86 118.947 200.827 118.42 200.76 117.98C200.707 117.54 200.594 117.173 200.42 116.88C200.26 116.587 200.034 116.373 199.74 116.24C199.46 116.093 199.094 116.02 198.64 116.02C198.014 116.02 197.494 116.107 197.08 116.28C196.68 116.44 196.407 116.587 196.26 116.72C196.367 117.067 196.447 117.447 196.5 117.86C196.554 118.273 196.58 118.707 196.58 119.16V125H194.72V119.56C194.72 118.947 194.687 118.42 194.62 117.98C194.554 117.54 194.434 117.173 194.26 116.88C194.1 116.587 193.874 116.373 193.58 116.24C193.3 116.093 192.94 116.02 192.5 116.02C192.314 116.02 192.114 116.027 191.9 116.04C191.687 116.053 191.48 116.073 191.28 116.1C191.094 116.113 190.92 116.133 190.76 116.16C190.6 116.187 190.494 116.207 190.44 116.22V125H188.58V114.9ZM207.667 125H205.807V114.6H207.667V125ZM206.727 112.72C206.394 112.72 206.107 112.613 205.867 112.4C205.64 112.173 205.527 111.873 205.527 111.5C205.527 111.127 205.64 110.833 205.867 110.62C206.107 110.393 206.394 110.28 206.727 110.28C207.06 110.28 207.34 110.393 207.567 110.62C207.807 110.833 207.927 111.127 207.927 111.5C207.927 111.873 207.807 112.173 207.567 112.4C207.34 112.613 207.06 112.72 206.727 112.72ZM210.866 114.9C211.292 114.793 211.859 114.68 212.566 114.56C213.272 114.44 214.086 114.38 215.006 114.38C215.832 114.38 216.519 114.5 217.066 114.74C217.612 114.967 218.046 115.293 218.366 115.72C218.699 116.133 218.932 116.633 219.066 117.22C219.199 117.807 219.266 118.453 219.266 119.16V125H217.406V119.56C217.406 118.92 217.359 118.373 217.266 117.92C217.186 117.467 217.046 117.1 216.846 116.82C216.646 116.54 216.379 116.34 216.046 116.22C215.712 116.087 215.299 116.02 214.806 116.02C214.606 116.02 214.399 116.027 214.186 116.04C213.972 116.053 213.766 116.073 213.566 116.1C213.379 116.113 213.206 116.133 213.046 116.16C212.899 116.187 212.792 116.207 212.726 116.22V125H210.866V114.9ZM224.21 125H222.35V114.6H224.21V125ZM223.27 112.72C222.937 112.72 222.65 112.613 222.41 112.4C222.183 112.173 222.07 111.873 222.07 111.5C222.07 111.127 222.183 110.833 222.41 110.62C222.65 110.393 222.937 110.28 223.27 110.28C223.603 110.28 223.883 110.393 224.11 110.62C224.35 110.833 224.47 111.127 224.47 111.5C224.47 111.873 224.35 112.173 224.11 112.4C223.883 112.613 223.603 112.72 223.27 112.72ZM235.689 124.7C235.262 124.807 234.695 124.92 233.989 125.04C233.295 125.16 232.489 125.22 231.569 125.22C230.769 125.22 230.095 125.107 229.549 124.88C229.002 124.64 228.562 124.307 228.229 123.88C227.895 123.453 227.655 122.953 227.509 122.38C227.362 121.793 227.289 121.147 227.289 120.44V114.6H229.149V120.04C229.149 121.307 229.349 122.213 229.749 122.76C230.149 123.307 230.822 123.58 231.769 123.58C231.969 123.58 232.175 123.573 232.389 123.56C232.602 123.547 232.802 123.533 232.989 123.52C233.175 123.493 233.342 123.473 233.489 123.46C233.649 123.433 233.762 123.407 233.829 123.38V114.6H235.689V124.7ZM238.893 114.9C239.32 114.793 239.88 114.68 240.573 114.56C241.28 114.44 242.093 114.38 243.013 114.38C243.68 114.38 244.24 114.473 244.693 114.66C245.146 114.833 245.526 115.093 245.833 115.44C245.926 115.373 246.073 115.28 246.273 115.16C246.473 115.04 246.72 114.927 247.013 114.82C247.306 114.7 247.633 114.6 247.993 114.52C248.353 114.427 248.74 114.38 249.153 114.38C249.953 114.38 250.606 114.5 251.113 114.74C251.62 114.967 252.013 115.293 252.293 115.72C252.586 116.147 252.78 116.653 252.873 117.24C252.98 117.827 253.033 118.467 253.033 119.16V125H251.173V119.56C251.173 118.947 251.14 118.42 251.073 117.98C251.02 117.54 250.906 117.173 250.733 116.88C250.573 116.587 250.346 116.373 250.053 116.24C249.773 116.093 249.406 116.02 248.953 116.02C248.326 116.02 247.806 116.107 247.393 116.28C246.993 116.44 246.72 116.587 246.573 116.72C246.68 117.067 246.76 117.447 246.813 117.86C246.866 118.273 246.893 118.707 246.893 119.16V125H245.033V119.56C245.033 118.947 245 118.42 244.933 117.98C244.866 117.54 244.746 117.173 244.573 116.88C244.413 116.587 244.186 116.373 243.893 116.24C243.613 116.093 243.253 116.02 242.813 116.02C242.626 116.02 242.426 116.027 242.213 116.04C242 116.053 241.793 116.073 241.593 116.1C241.406 116.113 241.233 116.133 241.073 116.16C240.913 116.187 240.806 116.207 240.753 116.22V125H238.893V114.9ZM264.268 123.66C264.708 123.66 265.095 123.653 265.428 123.64C265.775 123.613 266.062 123.573 266.288 123.52V120.42C266.155 120.353 265.935 120.3 265.628 120.26C265.335 120.207 264.975 120.18 264.548 120.18C264.268 120.18 263.968 120.2 263.648 120.24C263.342 120.28 263.055 120.367 262.788 120.5C262.535 120.62 262.322 120.793 262.148 121.02C261.975 121.233 261.888 121.52 261.888 121.88C261.888 122.547 262.102 123.013 262.528 123.28C262.955 123.533 263.535 123.66 264.268 123.66ZM264.108 114.34C264.855 114.34 265.482 114.44 265.988 114.64C266.508 114.827 266.922 115.1 267.228 115.46C267.548 115.807 267.775 116.227 267.908 116.72C268.042 117.2 268.108 117.733 268.108 118.32V124.82C267.948 124.847 267.722 124.887 267.428 124.94C267.148 124.98 266.828 125.02 266.468 125.06C266.108 125.1 265.715 125.133 265.288 125.16C264.875 125.2 264.462 125.22 264.048 125.22C263.462 125.22 262.922 125.16 262.428 125.04C261.935 124.92 261.508 124.733 261.148 124.48C260.788 124.213 260.508 123.867 260.308 123.44C260.108 123.013 260.008 122.5 260.008 121.9C260.008 121.327 260.122 120.833 260.348 120.42C260.588 120.007 260.908 119.673 261.308 119.42C261.708 119.167 262.175 118.98 262.708 118.86C263.242 118.74 263.802 118.68 264.388 118.68C264.575 118.68 264.768 118.693 264.968 118.72C265.168 118.733 265.355 118.76 265.528 118.8C265.715 118.827 265.875 118.853 266.008 118.88C266.142 118.907 266.235 118.927 266.288 118.94V118.42C266.288 118.113 266.255 117.813 266.188 117.52C266.122 117.213 266.002 116.947 265.828 116.72C265.655 116.48 265.415 116.293 265.108 116.16C264.815 116.013 264.428 115.94 263.948 115.94C263.335 115.94 262.795 115.987 262.328 116.08C261.875 116.16 261.535 116.247 261.308 116.34L261.088 114.8C261.328 114.693 261.728 114.593 262.288 114.5C262.848 114.393 263.455 114.34 264.108 114.34ZM274.318 125.2C273.171 125.173 272.358 124.927 271.878 124.46C271.398 123.993 271.158 123.267 271.158 122.28V109.8L273.018 109.48V121.98C273.018 122.287 273.044 122.54 273.098 122.74C273.151 122.94 273.238 123.1 273.358 123.22C273.478 123.34 273.638 123.433 273.838 123.5C274.038 123.553 274.284 123.6 274.578 123.64L274.318 125.2ZM279.786 125.2C278.64 125.173 277.826 124.927 277.346 124.46C276.866 123.993 276.626 123.267 276.626 122.28V109.8L278.486 109.48V121.98C278.486 122.287 278.513 122.54 278.566 122.74C278.62 122.94 278.706 123.1 278.826 123.22C278.946 123.34 279.106 123.433 279.306 123.5C279.506 123.553 279.753 123.6 280.046 123.64L279.786 125.2ZM291.315 119.8C291.315 120.627 291.195 121.373 290.955 122.04C290.715 122.707 290.375 123.28 289.935 123.76C289.508 124.24 288.995 124.613 288.395 124.88C287.795 125.133 287.142 125.26 286.435 125.26C285.728 125.26 285.075 125.133 284.475 124.88C283.875 124.613 283.355 124.24 282.915 123.76C282.488 123.28 282.155 122.707 281.915 122.04C281.675 121.373 281.555 120.627 281.555 119.8C281.555 118.987 281.675 118.247 281.915 117.58C282.155 116.9 282.488 116.32 282.915 115.84C283.355 115.36 283.875 114.993 284.475 114.74C285.075 114.473 285.728 114.34 286.435 114.34C287.142 114.34 287.795 114.473 288.395 114.74C288.995 114.993 289.508 115.36 289.935 115.84C290.375 116.32 290.715 116.9 290.955 117.58C291.195 118.247 291.315 118.987 291.315 119.8ZM289.375 119.8C289.375 118.627 289.108 117.7 288.575 117.02C288.055 116.327 287.342 115.98 286.435 115.98C285.528 115.98 284.808 116.327 284.275 117.02C283.755 117.7 283.495 118.627 283.495 119.8C283.495 120.973 283.755 121.907 284.275 122.6C284.808 123.28 285.528 123.62 286.435 123.62C287.342 123.62 288.055 123.28 288.575 122.6C289.108 121.907 289.375 120.973 289.375 119.8ZM292.439 126.94C292.585 127.007 292.772 127.067 292.999 127.12C293.239 127.187 293.472 127.22 293.699 127.22C294.432 127.22 295.005 127.053 295.419 126.72C295.832 126.4 296.205 125.873 296.539 125.14C295.699 123.54 294.912 121.847 294.179 120.06C293.459 118.26 292.859 116.44 292.379 114.6H294.379C294.525 115.2 294.699 115.847 294.899 116.54C295.112 117.233 295.345 117.947 295.599 118.68C295.852 119.413 296.125 120.147 296.419 120.88C296.712 121.613 297.019 122.32 297.339 123C297.845 121.6 298.285 120.213 298.659 118.84C299.032 117.467 299.385 116.053 299.719 114.6H301.639C301.159 116.56 300.625 118.447 300.039 120.26C299.452 122.06 298.819 123.747 298.139 125.32C297.872 125.92 297.592 126.433 297.299 126.86C297.019 127.3 296.705 127.66 296.359 127.94C296.012 128.22 295.619 128.427 295.179 128.56C294.752 128.693 294.265 128.76 293.719 128.76C293.572 128.76 293.419 128.747 293.259 128.72C293.099 128.707 292.939 128.68 292.779 128.64C292.632 128.613 292.492 128.58 292.359 128.54C292.239 128.5 292.152 128.467 292.099 128.44L292.439 126.94Z" fill="#42454A"/>
<path d="M20.5234 93.1373L37.2105 103.396L35.887 104.877L20.0477 95.1383L1.87242 106.319V128.687C7.9288 132.41 13.9913 136.139 20.0477 139.862L38.229 128.681V112.394L22.9081 130.435L11.6675 113.946L22.9081 120.495L49 99.712L40.0953 110.198V129.253C40.0953 129.649 39.8819 129.987 39.5708 130.149L20.5173 141.869C20.2123 142.051 19.8525 142.038 19.5719 141.863C13.2045 137.945 6.84317 134.028 0.475728 130.11C0.176873 129.928 0.00609908 129.597 0.00609908 129.253L0 105.747C0 105.351 0.219567 105.013 0.53062 104.851L19.5841 93.1308C19.883 92.9489 20.2428 92.9619 20.5234 93.1373Z" fill="#42454A"/>
<path d="M74.68 207.3C73.7067 207.3 72.82 207.14 72.02 206.82C71.22 206.5 70.5333 206.033 69.96 205.42C69.3867 204.807 68.94 204.053 68.62 203.16C68.3133 202.253 68.16 201.22 68.16 200.06C68.16 198.9 68.3333 197.873 68.68 196.98C69.04 196.073 69.52 195.313 70.12 194.7C70.72 194.087 71.42 193.62 72.22 193.3C73.02 192.98 73.8733 192.82 74.78 192.82C75.3533 192.82 75.8667 192.86 76.32 192.94C76.7867 193.02 77.1867 193.113 77.52 193.22C77.8667 193.327 78.1467 193.433 78.36 193.54C78.5733 193.647 78.72 193.727 78.8 193.78L78.24 195.38C78.12 195.3 77.9467 195.213 77.72 195.12C77.4933 195.027 77.2333 194.933 76.94 194.84C76.66 194.747 76.3467 194.673 76 194.62C75.6667 194.553 75.3267 194.52 74.98 194.52C74.2467 194.52 73.5867 194.647 73 194.9C72.4133 195.153 71.9133 195.52 71.5 196C71.0867 196.48 70.7667 197.067 70.54 197.76C70.3267 198.44 70.22 199.207 70.22 200.06C70.22 200.887 70.3133 201.64 70.5 202.32C70.7 203 70.9933 203.587 71.38 204.08C71.7667 204.56 72.2467 204.933 72.82 205.2C73.4067 205.467 74.0867 205.6 74.86 205.6C75.7533 205.6 76.4933 205.507 77.08 205.32C77.6667 205.133 78.1067 204.967 78.4 204.82L78.9 206.42C78.8067 206.487 78.64 206.573 78.4 206.68C78.16 206.773 77.86 206.867 77.5 206.96C77.14 207.053 76.72 207.133 76.24 207.2C75.76 207.267 75.24 207.3 74.68 207.3ZM89.8894 201.8C89.8894 202.627 89.7694 203.373 89.5294 204.04C89.2894 204.707 88.9494 205.28 88.5094 205.76C88.0827 206.24 87.5694 206.613 86.9694 206.88C86.3694 207.133 85.716 207.26 85.0094 207.26C84.3027 207.26 83.6494 207.133 83.0494 206.88C82.4494 206.613 81.9294 206.24 81.4894 205.76C81.0627 205.28 80.7294 204.707 80.4894 204.04C80.2494 203.373 80.1294 202.627 80.1294 201.8C80.1294 200.987 80.2494 200.247 80.4894 199.58C80.7294 198.9 81.0627 198.32 81.4894 197.84C81.9294 197.36 82.4494 196.993 83.0494 196.74C83.6494 196.473 84.3027 196.34 85.0094 196.34C85.716 196.34 86.3694 196.473 86.9694 196.74C87.5694 196.993 88.0827 197.36 88.5094 197.84C88.9494 198.32 89.2894 198.9 89.5294 199.58C89.7694 200.247 89.8894 200.987 89.8894 201.8ZM87.9494 201.8C87.9494 200.627 87.6827 199.7 87.1494 199.02C86.6294 198.327 85.916 197.98 85.0094 197.98C84.1027 197.98 83.3827 198.327 82.8494 199.02C82.3294 199.7 82.0694 200.627 82.0694 201.8C82.0694 202.973 82.3294 203.907 82.8494 204.6C83.3827 205.28 84.1027 205.62 85.0094 205.62C85.916 205.62 86.6294 205.28 87.1494 204.6C87.6827 203.907 87.9494 202.973 87.9494 201.8ZM95.6263 207.2C94.4796 207.173 93.6663 206.927 93.1863 206.46C92.7063 205.993 92.4663 205.267 92.4663 204.28V191.8L94.3263 191.48V203.98C94.3263 204.287 94.3529 204.54 94.4063 204.74C94.4596 204.94 94.5463 205.1 94.6663 205.22C94.7863 205.34 94.9463 205.433 95.1463 205.5C95.3463 205.553 95.5929 205.6 95.8863 205.64L95.6263 207.2ZM107.155 201.8C107.155 202.627 107.035 203.373 106.795 204.04C106.555 204.707 106.215 205.28 105.775 205.76C105.348 206.24 104.835 206.613 104.235 206.88C103.635 207.133 102.982 207.26 102.275 207.26C101.568 207.26 100.915 207.133 100.315 206.88C99.715 206.613 99.195 206.24 98.755 205.76C98.3283 205.28 97.995 204.707 97.755 204.04C97.515 203.373 97.395 202.627 97.395 201.8C97.395 200.987 97.515 200.247 97.755 199.58C97.995 198.9 98.3283 198.32 98.755 197.84C99.195 197.36 99.715 196.993 100.315 196.74C100.915 196.473 101.568 196.34 102.275 196.34C102.982 196.34 103.635 196.473 104.235 196.74C104.835 196.993 105.348 197.36 105.775 197.84C106.215 198.32 106.555 198.9 106.795 199.58C107.035 200.247 107.155 200.987 107.155 201.8ZM105.215 201.8C105.215 200.627 104.948 199.7 104.415 199.02C103.895 198.327 103.182 197.98 102.275 197.98C101.368 197.98 100.648 198.327 100.115 199.02C99.595 199.7 99.335 200.627 99.335 201.8C99.335 202.973 99.595 203.907 100.115 204.6C100.648 205.28 101.368 205.62 102.275 205.62C103.182 205.62 103.895 205.28 104.415 204.6C104.948 203.907 105.215 202.973 105.215 201.8ZM113.612 196.38C113.772 196.38 113.952 196.393 114.152 196.42C114.365 196.433 114.572 196.46 114.772 196.5C114.972 196.527 115.152 196.56 115.312 196.6C115.485 196.627 115.612 196.653 115.692 196.68L115.372 198.3C115.225 198.247 114.979 198.187 114.632 198.12C114.299 198.04 113.865 198 113.332 198C112.985 198 112.639 198.04 112.292 198.12C111.959 198.187 111.739 198.233 111.632 198.26V207H109.772V197.04C110.212 196.88 110.759 196.733 111.412 196.6C112.065 196.453 112.799 196.38 113.612 196.38ZM124.316 205.92C124.316 206.28 124.196 206.593 123.956 206.86C123.716 207.127 123.389 207.26 122.976 207.26C122.562 207.26 122.236 207.127 121.996 206.86C121.756 206.593 121.636 206.28 121.636 205.92C121.636 205.56 121.756 205.247 121.996 204.98C122.236 204.713 122.562 204.58 122.976 204.58C123.389 204.58 123.716 204.713 123.956 204.98C124.196 205.247 124.316 205.56 124.316 205.92ZM124.316 197.94C124.316 198.3 124.196 198.613 123.956 198.88C123.716 199.147 123.389 199.28 122.976 199.28C122.562 199.28 122.236 199.147 121.996 198.88C121.756 198.613 121.636 198.3 121.636 197.94C121.636 197.58 121.756 197.267 121.996 197C122.236 196.733 122.562 196.6 122.976 196.6C123.389 196.6 123.716 196.733 123.956 197C124.196 197.267 124.316 197.58 124.316 197.94ZM135.526 207.12C135.246 207.12 134.94 207.113 134.606 207.1C134.286 207.087 133.96 207.067 133.626 207.04C133.306 207.013 132.986 206.98 132.666 206.94C132.346 206.9 132.053 206.847 131.786 206.78V193.34C132.053 193.273 132.346 193.22 132.666 193.18C132.986 193.14 133.306 193.107 133.626 193.08C133.96 193.053 134.286 193.033 134.606 193.02C134.926 193.007 135.226 193 135.506 193C136.306 193 137.053 193.06 137.746 193.18C138.453 193.3 139.06 193.507 139.566 193.8C140.086 194.08 140.493 194.453 140.786 194.92C141.08 195.387 141.226 195.96 141.226 196.64C141.226 197.4 141.046 198.027 140.686 198.52C140.326 199 139.846 199.36 139.246 199.6C140.06 199.84 140.706 200.22 141.186 200.74C141.666 201.26 141.906 201.993 141.906 202.94C141.906 204.327 141.393 205.373 140.366 206.08C139.353 206.773 137.74 207.12 135.526 207.12ZM133.706 200.54V205.42C133.853 205.433 134.026 205.447 134.226 205.46C134.4 205.473 134.6 205.487 134.826 205.5C135.066 205.5 135.34 205.5 135.646 205.5C136.22 205.5 136.76 205.467 137.266 205.4C137.786 205.32 138.24 205.187 138.626 205C139.013 204.813 139.32 204.553 139.546 204.22C139.786 203.887 139.906 203.467 139.906 202.96C139.906 202.507 139.82 202.127 139.646 201.82C139.473 201.5 139.22 201.247 138.886 201.06C138.566 200.873 138.18 200.74 137.726 200.66C137.273 200.58 136.766 200.54 136.206 200.54H133.706ZM133.706 198.98H135.746C136.226 198.98 136.68 198.947 137.106 198.88C137.533 198.813 137.9 198.693 138.206 198.52C138.526 198.347 138.773 198.12 138.946 197.84C139.133 197.56 139.226 197.207 139.226 196.78C139.226 196.38 139.133 196.047 138.946 195.78C138.76 195.5 138.5 195.28 138.166 195.12C137.846 194.947 137.466 194.82 137.026 194.74C136.586 194.66 136.12 194.62 135.626 194.62C135.133 194.62 134.746 194.627 134.466 194.64C134.186 194.653 133.933 194.673 133.706 194.7V198.98ZM147.638 207.2C146.491 207.173 145.678 206.927 145.198 206.46C144.718 205.993 144.478 205.267 144.478 204.28V191.8L146.338 191.48V203.98C146.338 204.287 146.365 204.54 146.418 204.74C146.471 204.94 146.558 205.1 146.678 205.22C146.798 205.34 146.958 205.433 147.158 205.5C147.358 205.553 147.605 205.6 147.898 205.64L147.638 207.2ZM153.507 205.66C153.947 205.66 154.333 205.653 154.667 205.64C155.013 205.613 155.3 205.573 155.527 205.52V202.42C155.393 202.353 155.173 202.3 154.867 202.26C154.573 202.207 154.213 202.18 153.787 202.18C153.507 202.18 153.207 202.2 152.887 202.24C152.58 202.28 152.293 202.367 152.027 202.5C151.773 202.62 151.56 202.793 151.387 203.02C151.213 203.233 151.127 203.52 151.127 203.88C151.127 204.547 151.34 205.013 151.767 205.28C152.193 205.533 152.773 205.66 153.507 205.66ZM153.347 196.34C154.093 196.34 154.72 196.44 155.227 196.64C155.747 196.827 156.16 197.1 156.467 197.46C156.787 197.807 157.013 198.227 157.147 198.72C157.28 199.2 157.347 199.733 157.347 200.32V206.82C157.187 206.847 156.96 206.887 156.667 206.94C156.387 206.98 156.067 207.02 155.707 207.06C155.347 207.1 154.953 207.133 154.527 207.16C154.113 207.2 153.7 207.22 153.287 207.22C152.7 207.22 152.16 207.16 151.667 207.04C151.173 206.92 150.747 206.733 150.387 206.48C150.027 206.213 149.747 205.867 149.547 205.44C149.347 205.013 149.247 204.5 149.247 203.9C149.247 203.327 149.36 202.833 149.587 202.42C149.827 202.007 150.147 201.673 150.547 201.42C150.947 201.167 151.413 200.98 151.947 200.86C152.48 200.74 153.04 200.68 153.627 200.68C153.813 200.68 154.007 200.693 154.207 200.72C154.407 200.733 154.593 200.76 154.767 200.8C154.953 200.827 155.113 200.853 155.247 200.88C155.38 200.907 155.473 200.927 155.527 200.94V200.42C155.527 200.113 155.493 199.813 155.427 199.52C155.36 199.213 155.24 198.947 155.067 198.72C154.893 198.48 154.653 198.293 154.347 198.16C154.053 198.013 153.667 197.94 153.187 197.94C152.573 197.94 152.033 197.987 151.567 198.08C151.113 198.16 150.773 198.247 150.547 198.34L150.327 196.8C150.567 196.693 150.967 196.593 151.527 196.5C152.087 196.393 152.693 196.34 153.347 196.34ZM164.956 207.24C164.116 207.24 163.376 207.107 162.736 206.84C162.109 206.573 161.576 206.2 161.136 205.72C160.709 205.24 160.389 204.673 160.176 204.02C159.963 203.353 159.856 202.62 159.856 201.82C159.856 201.02 159.969 200.287 160.196 199.62C160.436 198.953 160.769 198.38 161.196 197.9C161.623 197.407 162.143 197.027 162.756 196.76C163.383 196.48 164.076 196.34 164.836 196.34C165.303 196.34 165.769 196.38 166.236 196.46C166.703 196.54 167.149 196.667 167.576 196.84L167.156 198.42C166.876 198.287 166.549 198.18 166.176 198.1C165.816 198.02 165.429 197.98 165.016 197.98C163.976 197.98 163.176 198.307 162.616 198.96C162.069 199.613 161.796 200.567 161.796 201.82C161.796 202.38 161.856 202.893 161.976 203.36C162.109 203.827 162.309 204.227 162.576 204.56C162.856 204.893 163.209 205.153 163.636 205.34C164.063 205.513 164.583 205.6 165.196 205.6C165.689 205.6 166.136 205.553 166.536 205.46C166.936 205.367 167.249 205.267 167.476 205.16L167.736 206.72C167.629 206.787 167.476 206.853 167.276 206.92C167.076 206.973 166.849 207.02 166.596 207.06C166.343 207.113 166.069 207.153 165.776 207.18C165.496 207.22 165.223 207.24 164.956 207.24ZM173.493 201.28C173.893 201.587 174.313 201.967 174.753 202.42C175.206 202.873 175.646 203.367 176.073 203.9C176.513 204.42 176.926 204.953 177.313 205.5C177.699 206.033 178.026 206.533 178.293 207H176.113C175.833 206.533 175.506 206.06 175.133 205.58C174.773 205.087 174.393 204.62 173.993 204.18C173.593 203.727 173.186 203.313 172.773 202.94C172.359 202.567 171.966 202.253 171.593 202V207H169.733V191.8L171.593 191.48V200.96C171.913 200.64 172.266 200.287 172.653 199.9C173.039 199.513 173.419 199.12 173.793 198.72C174.166 198.32 174.519 197.94 174.853 197.58C175.186 197.207 175.473 196.88 175.713 196.6H177.893C177.586 196.933 177.253 197.3 176.893 197.7C176.533 198.1 176.159 198.507 175.773 198.92C175.386 199.32 174.993 199.727 174.593 200.14C174.206 200.54 173.839 200.92 173.493 201.28Z" fill="#42454A"/>
<path d="M20.5234 175.137L37.2105 185.396L35.887 186.877L20.0477 177.138L1.87242 188.319V210.687C7.9288 214.41 13.9913 218.139 20.0477 221.862L38.229 210.681V194.394L22.9081 212.435L11.6675 195.946L22.9081 202.495L49 181.712L40.0953 192.198V211.253C40.0953 211.649 39.8819 211.987 39.5708 212.149L20.5173 223.869C20.2123 224.051 19.8525 224.038 19.5719 223.863C13.2045 219.945 6.84317 216.028 0.475728 212.11C0.176873 211.928 0.00609908 211.597 0.00609908 211.253L0 187.747C0 187.351 0.219567 187.013 0.53062 186.851L19.5841 175.131C19.883 174.949 20.2428 174.962 20.5234 175.137Z" fill="#42454A"/>
<path d="M74.68 289.3C73.7067 289.3 72.82 289.14 72.02 288.82C71.22 288.5 70.5333 288.033 69.96 287.42C69.3867 286.807 68.94 286.053 68.62 285.16C68.3133 284.253 68.16 283.22 68.16 282.06C68.16 280.9 68.3333 279.873 68.68 278.98C69.04 278.073 69.52 277.313 70.12 276.7C70.72 276.087 71.42 275.62 72.22 275.3C73.02 274.98 73.8733 274.82 74.78 274.82C75.3533 274.82 75.8667 274.86 76.32 274.94C76.7867 275.02 77.1867 275.113 77.52 275.22C77.8667 275.327 78.1467 275.433 78.36 275.54C78.5733 275.647 78.72 275.727 78.8 275.78L78.24 277.38C78.12 277.3 77.9467 277.213 77.72 277.12C77.4933 277.027 77.2333 276.933 76.94 276.84C76.66 276.747 76.3467 276.673 76 276.62C75.6667 276.553 75.3267 276.52 74.98 276.52C74.2467 276.52 73.5867 276.647 73 276.9C72.4133 277.153 71.9133 277.52 71.5 278C71.0867 278.48 70.7667 279.067 70.54 279.76C70.3267 280.44 70.22 281.207 70.22 282.06C70.22 282.887 70.3133 283.64 70.5 284.32C70.7 285 70.9933 285.587 71.38 286.08C71.7667 286.56 72.2467 286.933 72.82 287.2C73.4067 287.467 74.0867 287.6 74.86 287.6C75.7533 287.6 76.4933 287.507 77.08 287.32C77.6667 287.133 78.1067 286.967 78.4 286.82L78.9 288.42C78.8067 288.487 78.64 288.573 78.4 288.68C78.16 288.773 77.86 288.867 77.5 288.96C77.14 289.053 76.72 289.133 76.24 289.2C75.76 289.267 75.24 289.3 74.68 289.3ZM84.5223 287.66C84.9623 287.66 85.349 287.653 85.6823 287.64C86.029 287.613 86.3157 287.573 86.5423 287.52V284.42C86.409 284.353 86.189 284.3 85.8823 284.26C85.589 284.207 85.229 284.18 84.8023 284.18C84.5223 284.18 84.2223 284.2 83.9023 284.24C83.5957 284.28 83.309 284.367 83.0423 284.5C82.789 284.62 82.5757 284.793 82.4023 285.02C82.229 285.233 82.1423 285.52 82.1423 285.88C82.1423 286.547 82.3557 287.013 82.7823 287.28C83.209 287.533 83.789 287.66 84.5223 287.66ZM84.3623 278.34C85.109 278.34 85.7357 278.44 86.2423 278.64C86.7623 278.827 87.1757 279.1 87.4823 279.46C87.8023 279.807 88.029 280.227 88.1623 280.72C88.2957 281.2 88.3623 281.733 88.3623 282.32V288.82C88.2023 288.847 87.9757 288.887 87.6823 288.94C87.4023 288.98 87.0823 289.02 86.7223 289.06C86.3623 289.1 85.969 289.133 85.5423 289.16C85.129 289.2 84.7157 289.22 84.3023 289.22C83.7157 289.22 83.1757 289.16 82.6823 289.04C82.189 288.92 81.7623 288.733 81.4023 288.48C81.0423 288.213 80.7623 287.867 80.5623 287.44C80.3623 287.013 80.2623 286.5 80.2623 285.9C80.2623 285.327 80.3757 284.833 80.6023 284.42C80.8423 284.007 81.1623 283.673 81.5623 283.42C81.9623 283.167 82.429 282.98 82.9623 282.86C83.4957 282.74 84.0557 282.68 84.6423 282.68C84.829 282.68 85.0223 282.693 85.2223 282.72C85.4223 282.733 85.609 282.76 85.7823 282.8C85.969 282.827 86.129 282.853 86.2623 282.88C86.3957 282.907 86.489 282.927 86.5423 282.94V282.42C86.5423 282.113 86.509 281.813 86.4423 281.52C86.3757 281.213 86.2557 280.947 86.0823 280.72C85.909 280.48 85.669 280.293 85.3623 280.16C85.069 280.013 84.6823 279.94 84.2023 279.94C83.589 279.94 83.049 279.987 82.5823 280.08C82.129 280.16 81.789 280.247 81.5623 280.34L81.3423 278.8C81.5823 278.693 81.9823 278.593 82.5423 278.5C83.1023 278.393 83.709 278.34 84.3623 278.34ZM98.6716 283.82C98.6716 282.607 98.3716 281.673 97.7716 281.02C97.1716 280.367 96.3716 280.04 95.3716 280.04C94.8116 280.04 94.3716 280.06 94.0516 280.1C93.7449 280.14 93.4982 280.187 93.3116 280.24V286.8C93.5382 286.987 93.8649 287.167 94.2916 287.34C94.7182 287.513 95.1849 287.6 95.6916 287.6C96.2249 287.6 96.6782 287.507 97.0516 287.32C97.4382 287.12 97.7516 286.853 97.9916 286.52C98.2316 286.173 98.4049 285.773 98.5116 285.32C98.6182 284.853 98.6716 284.353 98.6716 283.82ZM100.612 283.82C100.612 284.607 100.505 285.333 100.292 286C100.092 286.667 99.7916 287.24 99.3916 287.72C98.9916 288.2 98.4982 288.573 97.9116 288.84C97.3382 289.107 96.6782 289.24 95.9316 289.24C95.3316 289.24 94.7982 289.16 94.3316 289C93.8782 288.84 93.5382 288.687 93.3116 288.54V292.7H91.4516V278.92C91.8916 278.813 92.4382 278.7 93.0916 278.58C93.7582 278.447 94.5249 278.38 95.3916 278.38C96.1916 278.38 96.9116 278.507 97.5516 278.76C98.1916 279.013 98.7382 279.373 99.1916 279.84C99.6449 280.307 99.9916 280.88 100.232 281.56C100.485 282.227 100.612 282.98 100.612 283.82ZM106.749 287.66C107.189 287.66 107.576 287.653 107.909 287.64C108.256 287.613 108.542 287.573 108.769 287.52V284.42C108.636 284.353 108.416 284.3 108.109 284.26C107.816 284.207 107.456 284.18 107.029 284.18C106.749 284.18 106.449 284.2 106.129 284.24C105.822 284.28 105.536 284.367 105.269 284.5C105.016 284.62 104.802 284.793 104.629 285.02C104.456 285.233 104.369 285.52 104.369 285.88C104.369 286.547 104.582 287.013 105.009 287.28C105.436 287.533 106.016 287.66 106.749 287.66ZM106.589 278.34C107.336 278.34 107.962 278.44 108.469 278.64C108.989 278.827 109.402 279.1 109.709 279.46C110.029 279.807 110.256 280.227 110.389 280.72C110.522 281.2 110.589 281.733 110.589 282.32V288.82C110.429 288.847 110.202 288.887 109.909 288.94C109.629 288.98 109.309 289.02 108.949 289.06C108.589 289.1 108.196 289.133 107.769 289.16C107.356 289.2 106.942 289.22 106.529 289.22C105.942 289.22 105.402 289.16 104.909 289.04C104.416 288.92 103.989 288.733 103.629 288.48C103.269 288.213 102.989 287.867 102.789 287.44C102.589 287.013 102.489 286.5 102.489 285.9C102.489 285.327 102.602 284.833 102.829 284.42C103.069 284.007 103.389 283.673 103.789 283.42C104.189 283.167 104.656 282.98 105.189 282.86C105.722 282.74 106.282 282.68 106.869 282.68C107.056 282.68 107.249 282.693 107.449 282.72C107.649 282.733 107.836 282.76 108.009 282.8C108.196 282.827 108.356 282.853 108.489 282.88C108.622 282.907 108.716 282.927 108.769 282.94V282.42C108.769 282.113 108.736 281.813 108.669 281.52C108.602 281.213 108.482 280.947 108.309 280.72C108.136 280.48 107.896 280.293 107.589 280.16C107.296 280.013 106.909 279.94 106.429 279.94C105.816 279.94 105.276 279.987 104.809 280.08C104.356 280.16 104.016 280.247 103.789 280.34L103.569 278.8C103.809 278.693 104.209 278.593 104.769 278.5C105.329 278.393 105.936 278.34 106.589 278.34ZM118.198 289.24C117.358 289.24 116.618 289.107 115.978 288.84C115.351 288.573 114.818 288.2 114.378 287.72C113.951 287.24 113.631 286.673 113.418 286.02C113.205 285.353 113.098 284.62 113.098 283.82C113.098 283.02 113.211 282.287 113.438 281.62C113.678 280.953 114.011 280.38 114.438 279.9C114.865 279.407 115.385 279.027 115.998 278.76C116.625 278.48 117.318 278.34 118.078 278.34C118.545 278.34 119.011 278.38 119.478 278.46C119.945 278.54 120.391 278.667 120.818 278.84L120.398 280.42C120.118 280.287 119.791 280.18 119.418 280.1C119.058 280.02 118.671 279.98 118.258 279.98C117.218 279.98 116.418 280.307 115.858 280.96C115.311 281.613 115.038 282.567 115.038 283.82C115.038 284.38 115.098 284.893 115.218 285.36C115.351 285.827 115.551 286.227 115.818 286.56C116.098 286.893 116.451 287.153 116.878 287.34C117.305 287.513 117.825 287.6 118.438 287.6C118.931 287.6 119.378 287.553 119.778 287.46C120.178 287.367 120.491 287.267 120.718 287.16L120.978 288.72C120.871 288.787 120.718 288.853 120.518 288.92C120.318 288.973 120.091 289.02 119.838 289.06C119.585 289.113 119.311 289.153 119.018 289.18C118.738 289.22 118.465 289.24 118.198 289.24ZM124.835 289H122.975V278.6H124.835V289ZM123.895 276.72C123.562 276.72 123.275 276.613 123.035 276.4C122.808 276.173 122.695 275.873 122.695 275.5C122.695 275.127 122.808 274.833 123.035 274.62C123.275 274.393 123.562 274.28 123.895 274.28C124.228 274.28 124.508 274.393 124.735 274.62C124.975 274.833 125.095 275.127 125.095 275.5C125.095 275.873 124.975 276.173 124.735 276.4C124.508 276.613 124.228 276.72 123.895 276.72ZM129.774 278.6H133.714V280.16H129.774V284.96C129.774 285.48 129.814 285.913 129.894 286.26C129.974 286.593 130.094 286.86 130.254 287.06C130.414 287.247 130.614 287.38 130.854 287.46C131.094 287.54 131.374 287.58 131.694 287.58C132.254 287.58 132.7 287.52 133.034 287.4C133.38 287.267 133.62 287.173 133.754 287.12L134.114 288.66C133.927 288.753 133.6 288.867 133.134 289C132.667 289.147 132.134 289.22 131.534 289.22C130.827 289.22 130.24 289.133 129.774 288.96C129.32 288.773 128.954 288.5 128.674 288.14C128.394 287.78 128.194 287.34 128.074 286.82C127.967 286.287 127.914 285.673 127.914 284.98V275.7L129.774 275.38V278.6ZM134.86 290.94C135.007 291.007 135.194 291.067 135.42 291.12C135.66 291.187 135.894 291.22 136.12 291.22C136.854 291.22 137.427 291.053 137.84 290.72C138.254 290.4 138.627 289.873 138.96 289.14C138.12 287.54 137.334 285.847 136.6 284.06C135.88 282.26 135.28 280.44 134.8 278.6H136.8C136.947 279.2 137.12 279.847 137.32 280.54C137.534 281.233 137.767 281.947 138.02 282.68C138.274 283.413 138.547 284.147 138.84 284.88C139.134 285.613 139.44 286.32 139.76 287C140.267 285.6 140.707 284.213 141.08 282.84C141.454 281.467 141.807 280.053 142.14 278.6H144.06C143.58 280.56 143.047 282.447 142.46 284.26C141.874 286.06 141.24 287.747 140.56 289.32C140.294 289.92 140.014 290.433 139.72 290.86C139.44 291.3 139.127 291.66 138.78 291.94C138.434 292.22 138.04 292.427 137.6 292.56C137.174 292.693 136.687 292.76 136.14 292.76C135.994 292.76 135.84 292.747 135.68 292.72C135.52 292.707 135.36 292.68 135.2 292.64C135.054 292.613 134.914 292.58 134.78 292.54C134.66 292.5 134.574 292.467 134.52 292.44L134.86 290.94ZM152.851 287.92C152.851 288.28 152.731 288.593 152.491 288.86C152.251 289.127 151.924 289.26 151.511 289.26C151.097 289.26 150.771 289.127 150.531 288.86C150.291 288.593 150.171 288.28 150.171 287.92C150.171 287.56 150.291 287.247 150.531 286.98C150.771 286.713 151.097 286.58 151.511 286.58C151.924 286.58 152.251 286.713 152.491 286.98C152.731 287.247 152.851 287.56 152.851 287.92ZM152.851 279.94C152.851 280.3 152.731 280.613 152.491 280.88C152.251 281.147 151.924 281.28 151.511 281.28C151.097 281.28 150.771 281.147 150.531 280.88C150.291 280.613 150.171 280.3 150.171 279.94C150.171 279.58 150.291 279.267 150.531 279C150.771 278.733 151.097 278.6 151.511 278.6C151.924 278.6 152.251 278.733 152.491 279C152.731 279.267 152.851 279.58 152.851 279.94ZM159.402 284.2C159.655 283.613 160.002 282.933 160.442 282.16C160.882 281.373 161.375 280.567 161.922 279.74C162.482 278.913 163.075 278.1 163.702 277.3C164.342 276.5 164.982 275.78 165.622 275.14H167.402V283.94H169.042V285.46H167.402V289H165.602V285.46H159.402V284.2ZM165.602 277.34C165.202 277.767 164.795 278.247 164.382 278.78C163.982 279.3 163.588 279.847 163.202 280.42C162.815 280.993 162.448 281.58 162.102 282.18C161.768 282.78 161.468 283.367 161.202 283.94H165.602V277.34ZM173.871 280.48C175.884 280.56 177.357 281 178.291 281.8C179.237 282.6 179.711 283.687 179.711 285.06C179.711 285.673 179.604 286.24 179.391 286.76C179.191 287.28 178.877 287.727 178.451 288.1C178.037 288.473 177.511 288.767 176.871 288.98C176.231 289.193 175.471 289.3 174.591 289.3C174.244 289.3 173.891 289.273 173.531 289.22C173.171 289.167 172.837 289.1 172.531 289.02C172.224 288.94 171.951 288.86 171.711 288.78C171.471 288.7 171.297 288.633 171.191 288.58L171.551 286.96C171.777 287.067 172.144 287.207 172.651 287.38C173.171 287.553 173.804 287.64 174.551 287.64C175.151 287.64 175.651 287.573 176.051 287.44C176.464 287.307 176.797 287.127 177.051 286.9C177.304 286.673 177.484 286.413 177.591 286.12C177.711 285.813 177.771 285.493 177.771 285.16C177.771 284.653 177.684 284.207 177.511 283.82C177.337 283.42 177.031 283.087 176.591 282.82C176.151 282.553 175.564 282.353 174.831 282.22C174.097 282.073 173.171 282 172.051 282C172.131 281.347 172.191 280.733 172.231 280.16C172.284 279.587 172.331 279.027 172.371 278.48C172.411 277.933 172.444 277.393 172.471 276.86C172.497 276.313 172.524 275.74 172.551 275.14H179.231V276.72H174.171C174.157 276.92 174.137 277.193 174.111 277.54C174.084 277.873 174.057 278.227 174.031 278.6C174.004 278.96 173.977 279.313 173.951 279.66C173.924 280.007 173.897 280.28 173.871 280.48ZM185.9 289.2C184.753 289.173 183.94 288.927 183.46 288.46C182.98 287.993 182.74 287.267 182.74 286.28V273.8L184.6 273.48V285.98C184.6 286.287 184.626 286.54 184.68 286.74C184.733 286.94 184.82 287.1 184.94 287.22C185.06 287.34 185.22 287.433 185.42 287.5C185.62 287.553 185.866 287.6 186.16 287.64L185.9 289.2ZM190.108 279.06C190.335 278.913 190.675 278.76 191.128 278.6C191.595 278.44 192.128 278.36 192.728 278.36C193.475 278.36 194.135 278.493 194.708 278.76C195.295 279.027 195.788 279.4 196.188 279.88C196.588 280.36 196.888 280.933 197.088 281.6C197.302 282.267 197.408 283 197.408 283.8C197.408 284.64 197.282 285.4 197.028 286.08C196.788 286.747 196.442 287.313 195.988 287.78C195.535 288.247 194.988 288.607 194.348 288.86C193.708 289.113 192.988 289.24 192.188 289.24C191.322 289.24 190.555 289.18 189.888 289.06C189.222 288.94 188.675 288.82 188.248 288.7V273.8L190.108 273.48V279.06ZM190.108 287.38C190.295 287.433 190.555 287.487 190.888 287.54C191.235 287.58 191.662 287.6 192.168 287.6C193.168 287.6 193.968 287.273 194.568 286.62C195.168 285.953 195.468 285.013 195.468 283.8C195.468 283.267 195.415 282.767 195.308 282.3C195.202 281.833 195.028 281.433 194.788 281.1C194.548 280.753 194.235 280.487 193.848 280.3C193.475 280.1 193.022 280 192.488 280C191.982 280 191.515 280.087 191.088 280.26C190.662 280.433 190.335 280.613 190.108 280.8V287.38ZM202.446 287.66C203.206 287.66 203.766 287.56 204.126 287.36C204.499 287.16 204.686 286.84 204.686 286.4C204.686 285.947 204.506 285.587 204.146 285.32C203.786 285.053 203.192 284.753 202.366 284.42C201.966 284.26 201.579 284.1 201.206 283.94C200.846 283.767 200.532 283.567 200.266 283.34C199.999 283.113 199.786 282.84 199.626 282.52C199.466 282.2 199.386 281.807 199.386 281.34C199.386 280.42 199.726 279.693 200.406 279.16C201.086 278.613 202.012 278.34 203.186 278.34C203.479 278.34 203.772 278.36 204.066 278.4C204.359 278.427 204.632 278.467 204.886 278.52C205.139 278.56 205.359 278.607 205.546 278.66C205.746 278.713 205.899 278.76 206.006 278.8L205.666 280.4C205.466 280.293 205.152 280.187 204.726 280.08C204.299 279.96 203.786 279.9 203.186 279.9C202.666 279.9 202.212 280.007 201.826 280.22C201.439 280.42 201.246 280.74 201.246 281.18C201.246 281.407 201.286 281.607 201.366 281.78C201.459 281.953 201.592 282.113 201.766 282.26C201.952 282.393 202.179 282.52 202.446 282.64C202.712 282.76 203.032 282.887 203.406 283.02C203.899 283.207 204.339 283.393 204.726 283.58C205.112 283.753 205.439 283.96 205.706 284.2C205.986 284.44 206.199 284.733 206.346 285.08C206.492 285.413 206.566 285.827 206.566 286.32C206.566 287.28 206.206 288.007 205.486 288.5C204.779 288.993 203.766 289.24 202.446 289.24C201.526 289.24 200.806 289.16 200.286 289C199.766 288.853 199.412 288.74 199.226 288.66L199.566 287.06C199.779 287.14 200.119 287.26 200.586 287.42C201.052 287.58 201.672 287.66 202.446 287.66Z" fill="#42454A"/>
<path d="M20.5234 257.137L37.2105 267.396L35.887 268.877L20.0477 259.138L1.87242 270.319V292.687C7.9288 296.41 13.9913 300.139 20.0477 303.862L38.229 292.681V276.394L22.9081 294.435L11.6675 277.946L22.9081 284.495L49 263.712L40.0953 274.198V293.253C40.0953 293.649 39.8819 293.987 39.5708 294.149L20.5173 305.869C20.2123 306.051 19.8525 306.038 19.5719 305.863C13.2045 301.945 6.84317 298.028 0.475728 294.11C0.176873 293.928 0.00609908 293.597 0.00609908 293.253L0 269.747C0 269.351 0.219567 269.013 0.53062 268.851L19.5841 257.131C19.883 256.949 20.2428 256.962 20.5234 257.137Z" fill="#42454A"/>
<path d="M68.72 371V357.14H77.18V358.8H70.66V362.92H76.46V364.54H70.66V369.34H77.68V371H68.72ZM83.5458 369.66C83.9858 369.66 84.3724 369.653 84.7058 369.64C85.0524 369.613 85.3391 369.573 85.5658 369.52V366.42C85.4324 366.353 85.2124 366.3 84.9058 366.26C84.6124 366.207 84.2524 366.18 83.8258 366.18C83.5458 366.18 83.2458 366.2 82.9258 366.24C82.6191 366.28 82.3324 366.367 82.0658 366.5C81.8124 366.62 81.5991 366.793 81.4258 367.02C81.2524 367.233 81.1658 367.52 81.1658 367.88C81.1658 368.547 81.3791 369.013 81.8058 369.28C82.2324 369.533 82.8124 369.66 83.5458 369.66ZM83.3858 360.34C84.1324 360.34 84.7591 360.44 85.2658 360.64C85.7858 360.827 86.1991 361.1 86.5058 361.46C86.8258 361.807 87.0524 362.227 87.1858 362.72C87.3191 363.2 87.3858 363.733 87.3858 364.32V370.82C87.2258 370.847 86.9991 370.887 86.7058 370.94C86.4258 370.98 86.1058 371.02 85.7458 371.06C85.3858 371.1 84.9924 371.133 84.5658 371.16C84.1524 371.2 83.7391 371.22 83.3258 371.22C82.7391 371.22 82.1991 371.16 81.7058 371.04C81.2124 370.92 80.7858 370.733 80.4258 370.48C80.0658 370.213 79.7858 369.867 79.5858 369.44C79.3858 369.013 79.2858 368.5 79.2858 367.9C79.2858 367.327 79.3991 366.833 79.6258 366.42C79.8658 366.007 80.1858 365.673 80.5858 365.42C80.9858 365.167 81.4524 364.98 81.9858 364.86C82.5191 364.74 83.0791 364.68 83.6658 364.68C83.8524 364.68 84.0458 364.693 84.2458 364.72C84.4458 364.733 84.6324 364.76 84.8058 364.8C84.9924 364.827 85.1524 364.853 85.2858 364.88C85.4191 364.907 85.5124 364.927 85.5658 364.94V364.42C85.5658 364.113 85.5324 363.813 85.4658 363.52C85.3991 363.213 85.2791 362.947 85.1058 362.72C84.9324 362.48 84.6924 362.293 84.3858 362.16C84.0924 362.013 83.7058 361.94 83.2258 361.94C82.6124 361.94 82.0724 361.987 81.6058 362.08C81.1524 362.16 80.8124 362.247 80.5858 362.34L80.3658 360.8C80.6058 360.693 81.0058 360.593 81.5658 360.5C82.1258 360.393 82.7324 360.34 83.3858 360.34ZM92.895 369.66C93.655 369.66 94.215 369.56 94.575 369.36C94.9483 369.16 95.135 368.84 95.135 368.4C95.135 367.947 94.955 367.587 94.595 367.32C94.235 367.053 93.6417 366.753 92.815 366.42C92.415 366.26 92.0283 366.1 91.655 365.94C91.295 365.767 90.9817 365.567 90.715 365.34C90.4483 365.113 90.235 364.84 90.075 364.52C89.915 364.2 89.835 363.807 89.835 363.34C89.835 362.42 90.175 361.693 90.855 361.16C91.535 360.613 92.4617 360.34 93.635 360.34C93.9283 360.34 94.2217 360.36 94.515 360.4C94.8083 360.427 95.0817 360.467 95.335 360.52C95.5883 360.56 95.8083 360.607 95.995 360.66C96.195 360.713 96.3483 360.76 96.455 360.8L96.115 362.4C95.915 362.293 95.6017 362.187 95.175 362.08C94.7483 361.96 94.235 361.9 93.635 361.9C93.115 361.9 92.6617 362.007 92.275 362.22C91.8883 362.42 91.695 362.74 91.695 363.18C91.695 363.407 91.735 363.607 91.815 363.78C91.9083 363.953 92.0417 364.113 92.215 364.26C92.4017 364.393 92.6283 364.52 92.895 364.64C93.1617 364.76 93.4817 364.887 93.855 365.02C94.3483 365.207 94.7883 365.393 95.175 365.58C95.5617 365.753 95.8883 365.96 96.155 366.2C96.435 366.44 96.6483 366.733 96.795 367.08C96.9417 367.413 97.015 367.827 97.015 368.32C97.015 369.28 96.655 370.007 95.935 370.5C95.2283 370.993 94.215 371.24 92.895 371.24C91.975 371.24 91.255 371.16 90.735 371C90.215 370.853 89.8617 370.74 89.675 370.66L90.015 369.06C90.2283 369.14 90.5683 369.26 91.035 369.42C91.5017 369.58 92.1217 369.66 92.895 369.66ZM98.8208 365.82C98.8208 364.9 98.9541 364.1 99.2208 363.42C99.4874 362.727 99.8408 362.153 100.281 361.7C100.721 361.247 101.227 360.907 101.801 360.68C102.374 360.453 102.961 360.34 103.561 360.34C104.961 360.34 106.034 360.78 106.781 361.66C107.527 362.527 107.901 363.853 107.901 365.64C107.901 365.72 107.901 365.827 107.901 365.96C107.901 366.08 107.894 366.193 107.881 366.3H100.761C100.841 367.38 101.154 368.2 101.701 368.76C102.247 369.32 103.101 369.6 104.261 369.6C104.914 369.6 105.461 369.547 105.901 369.44C106.354 369.32 106.694 369.207 106.921 369.1L107.181 370.66C106.954 370.78 106.554 370.907 105.981 371.04C105.421 371.173 104.781 371.24 104.061 371.24C103.154 371.24 102.367 371.107 101.701 370.84C101.047 370.56 100.507 370.18 100.081 369.7C99.6541 369.22 99.3341 368.653 99.1208 368C98.9208 367.333 98.8208 366.607 98.8208 365.82ZM105.961 364.8C105.974 363.96 105.761 363.273 105.321 362.74C104.894 362.193 104.301 361.92 103.541 361.92C103.114 361.92 102.734 362.007 102.401 362.18C102.081 362.34 101.807 362.553 101.581 362.82C101.354 363.087 101.174 363.393 101.041 363.74C100.921 364.087 100.841 364.44 100.801 364.8H105.961ZM117.402 369.92C117.402 370.28 117.282 370.593 117.042 370.86C116.802 371.127 116.475 371.26 116.062 371.26C115.648 371.26 115.322 371.127 115.082 370.86C114.842 370.593 114.722 370.28 114.722 369.92C114.722 369.56 114.842 369.247 115.082 368.98C115.322 368.713 115.648 368.58 116.062 368.58C116.475 368.58 116.802 368.713 117.042 368.98C117.282 369.247 117.402 369.56 117.402 369.92ZM117.402 361.94C117.402 362.3 117.282 362.613 117.042 362.88C116.802 363.147 116.475 363.28 116.062 363.28C115.648 363.28 115.322 363.147 115.082 362.88C114.842 362.613 114.722 362.3 114.722 361.94C114.722 361.58 114.842 361.267 115.082 361C115.322 360.733 115.648 360.6 116.062 360.6C116.475 360.6 116.802 360.733 117.042 361C117.282 361.267 117.402 361.58 117.402 361.94ZM124.312 364.06C124.312 362.873 124.486 361.827 124.832 360.92C125.192 360.013 125.672 359.26 126.272 358.66C126.886 358.047 127.592 357.587 128.392 357.28C129.206 356.973 130.066 356.82 130.972 356.82C131.866 356.82 132.706 356.973 133.492 357.28C134.292 357.587 134.992 358.047 135.592 358.66C136.192 359.26 136.666 360.013 137.012 360.92C137.372 361.827 137.552 362.873 137.552 364.06C137.552 365.1 137.419 366.027 137.152 366.84C136.886 367.653 136.512 368.36 136.032 368.96C135.566 369.547 135.012 370.027 134.372 370.4C133.746 370.76 133.072 371.007 132.352 371.14C132.366 371.447 132.499 371.713 132.752 371.94C133.019 372.18 133.352 372.38 133.752 372.54C134.152 372.7 134.599 372.833 135.092 372.94C135.586 373.047 136.079 373.127 136.572 373.18L136.112 374.7C135.419 374.607 134.752 374.48 134.112 374.32C133.486 374.173 132.912 373.973 132.392 373.72C131.886 373.467 131.459 373.14 131.112 372.74C130.766 372.353 130.532 371.867 130.412 371.28C129.572 371.227 128.779 371.033 128.032 370.7C127.286 370.353 126.639 369.88 126.092 369.28C125.546 368.667 125.112 367.927 124.792 367.06C124.472 366.193 124.312 365.193 124.312 364.06ZM126.352 364.06C126.352 364.9 126.459 365.667 126.672 366.36C126.886 367.04 127.186 367.62 127.572 368.1C127.972 368.58 128.452 368.953 129.012 369.22C129.586 369.473 130.226 369.6 130.932 369.6C131.639 369.6 132.272 369.473 132.832 369.22C133.392 368.953 133.866 368.58 134.252 368.1C134.652 367.62 134.959 367.04 135.172 366.36C135.386 365.667 135.492 364.9 135.492 364.06C135.492 363.22 135.386 362.46 135.172 361.78C134.959 361.087 134.652 360.5 134.252 360.02C133.866 359.54 133.392 359.173 132.832 358.92C132.272 358.653 131.639 358.52 130.932 358.52C130.226 358.52 129.586 358.653 129.012 358.92C128.452 359.173 127.972 359.54 127.572 360.02C127.186 360.5 126.886 361.087 126.672 361.78C126.459 362.46 126.352 363.22 126.352 364.06ZM148.599 370.7C148.172 370.807 147.605 370.92 146.899 371.04C146.205 371.16 145.399 371.22 144.479 371.22C143.679 371.22 143.005 371.107 142.459 370.88C141.912 370.64 141.472 370.307 141.139 369.88C140.805 369.453 140.565 368.953 140.419 368.38C140.272 367.793 140.199 367.147 140.199 366.44V360.6H142.059V366.04C142.059 367.307 142.259 368.213 142.659 368.76C143.059 369.307 143.732 369.58 144.679 369.58C144.879 369.58 145.085 369.573 145.299 369.56C145.512 369.547 145.712 369.533 145.899 369.52C146.085 369.493 146.252 369.473 146.399 369.46C146.559 369.433 146.672 369.407 146.739 369.38V360.6H148.599V370.7ZM153.663 371H151.803V360.6H153.663V371ZM152.723 358.72C152.39 358.72 152.103 358.613 151.863 358.4C151.636 358.173 151.523 357.873 151.523 357.5C151.523 357.127 151.636 356.833 151.863 356.62C152.103 356.393 152.39 356.28 152.723 356.28C153.056 356.28 153.336 356.393 153.563 356.62C153.803 356.833 153.923 357.127 153.923 357.5C153.923 357.873 153.803 358.173 153.563 358.4C153.336 358.613 153.056 358.72 152.723 358.72ZM161.382 371.24C160.542 371.24 159.802 371.107 159.162 370.84C158.535 370.573 158.002 370.2 157.562 369.72C157.135 369.24 156.815 368.673 156.602 368.02C156.388 367.353 156.282 366.62 156.282 365.82C156.282 365.02 156.395 364.287 156.622 363.62C156.862 362.953 157.195 362.38 157.622 361.9C158.048 361.407 158.568 361.027 159.182 360.76C159.808 360.48 160.502 360.34 161.262 360.34C161.728 360.34 162.195 360.38 162.662 360.46C163.128 360.54 163.575 360.667 164.002 360.84L163.582 362.42C163.302 362.287 162.975 362.18 162.602 362.1C162.242 362.02 161.855 361.98 161.442 361.98C160.402 361.98 159.602 362.307 159.042 362.96C158.495 363.613 158.222 364.567 158.222 365.82C158.222 366.38 158.282 366.893 158.402 367.36C158.535 367.827 158.735 368.227 159.002 368.56C159.282 368.893 159.635 369.153 160.062 369.34C160.488 369.513 161.008 369.6 161.622 369.6C162.115 369.6 162.562 369.553 162.962 369.46C163.362 369.367 163.675 369.267 163.902 369.16L164.162 370.72C164.055 370.787 163.902 370.853 163.702 370.92C163.502 370.973 163.275 371.02 163.022 371.06C162.768 371.113 162.495 371.153 162.202 371.18C161.922 371.22 161.648 371.24 161.382 371.24ZM169.919 365.28C170.319 365.587 170.739 365.967 171.179 366.42C171.632 366.873 172.072 367.367 172.499 367.9C172.939 368.42 173.352 368.953 173.739 369.5C174.125 370.033 174.452 370.533 174.719 371H172.539C172.259 370.533 171.932 370.06 171.559 369.58C171.199 369.087 170.819 368.62 170.419 368.18C170.019 367.727 169.612 367.313 169.199 366.94C168.785 366.567 168.392 366.253 168.019 366V371H166.159V355.8L168.019 355.48V364.96C168.339 364.64 168.692 364.287 169.079 363.9C169.465 363.513 169.845 363.12 170.219 362.72C170.592 362.32 170.945 361.94 171.279 361.58C171.612 361.207 171.899 360.88 172.139 360.6H174.319C174.012 360.933 173.679 361.3 173.319 361.7C172.959 362.1 172.585 362.507 172.199 362.92C171.812 363.32 171.419 363.727 171.019 364.14C170.632 364.54 170.265 364.92 169.919 365.28ZM180.557 367.32C180.557 366.8 180.637 366.34 180.797 365.94C180.957 365.527 181.17 365.16 181.437 364.84C181.717 364.507 182.037 364.22 182.397 363.98C182.757 363.727 183.13 363.507 183.517 363.32C182.53 362.333 182.037 361.313 182.037 360.26C182.037 359.727 182.123 359.247 182.297 358.82C182.483 358.393 182.73 358.033 183.037 357.74C183.357 357.447 183.73 357.22 184.157 357.06C184.597 356.9 185.077 356.82 185.597 356.82C186.13 356.82 186.603 356.9 187.017 357.06C187.443 357.22 187.797 357.433 188.077 357.7C188.37 357.967 188.59 358.287 188.737 358.66C188.883 359.033 188.957 359.427 188.957 359.84C188.957 360.307 188.877 360.727 188.717 361.1C188.57 361.473 188.363 361.813 188.097 362.12C187.843 362.427 187.55 362.707 187.217 362.96C186.883 363.213 186.53 363.44 186.157 363.64L189.397 366.94C189.85 366.1 190.143 365.167 190.277 364.14L191.817 364.34C191.763 364.887 191.623 365.487 191.397 366.14C191.183 366.78 190.877 367.42 190.477 368.06C190.943 368.567 191.37 369.067 191.757 369.56C192.157 370.053 192.483 370.533 192.737 371H190.777C190.617 370.733 190.417 370.46 190.177 370.18C189.95 369.9 189.71 369.62 189.457 369.34C188.91 369.887 188.277 370.333 187.557 370.68C186.837 371.013 186.01 371.18 185.077 371.18C184.21 371.18 183.49 371.06 182.917 370.82C182.343 370.567 181.877 370.253 181.517 369.88C181.17 369.493 180.923 369.073 180.777 368.62C180.63 368.167 180.557 367.733 180.557 367.32ZM182.417 367.28C182.417 367.52 182.463 367.78 182.557 368.06C182.65 368.34 182.803 368.6 183.017 368.84C183.23 369.067 183.503 369.26 183.837 369.42C184.183 369.567 184.61 369.64 185.117 369.64C185.77 369.64 186.37 369.52 186.917 369.28C187.477 369.04 187.97 368.7 188.397 368.26L184.497 364.32C184.257 364.44 184.01 364.58 183.757 364.74C183.517 364.9 183.297 365.1 183.097 365.34C182.897 365.567 182.73 365.84 182.597 366.16C182.477 366.48 182.417 366.853 182.417 367.28ZM187.277 359.9C187.277 359.447 187.123 359.067 186.817 358.76C186.523 358.44 186.117 358.28 185.597 358.28C185.01 358.28 184.557 358.46 184.237 358.82C183.93 359.167 183.777 359.6 183.777 360.12C183.777 360.987 184.23 361.833 185.137 362.66C185.43 362.513 185.703 362.353 185.957 362.18C186.223 362.007 186.45 361.807 186.637 361.58C186.837 361.353 186.99 361.107 187.097 360.84C187.217 360.56 187.277 360.247 187.277 359.9ZM202.706 369.66C203.146 369.66 203.533 369.653 203.866 369.64C204.213 369.613 204.499 369.573 204.726 369.52V366.42C204.593 366.353 204.373 366.3 204.066 366.26C203.773 366.207 203.413 366.18 202.986 366.18C202.706 366.18 202.406 366.2 202.086 366.24C201.779 366.28 201.493 366.367 201.226 366.5C200.973 366.62 200.759 366.793 200.586 367.02C200.413 367.233 200.326 367.52 200.326 367.88C200.326 368.547 200.539 369.013 200.966 369.28C201.393 369.533 201.973 369.66 202.706 369.66ZM202.546 360.34C203.293 360.34 203.919 360.44 204.426 360.64C204.946 360.827 205.359 361.1 205.666 361.46C205.986 361.807 206.213 362.227 206.346 362.72C206.479 363.2 206.546 363.733 206.546 364.32V370.82C206.386 370.847 206.159 370.887 205.866 370.94C205.586 370.98 205.266 371.02 204.906 371.06C204.546 371.1 204.153 371.133 203.726 371.16C203.313 371.2 202.899 371.22 202.486 371.22C201.899 371.22 201.359 371.16 200.866 371.04C200.373 370.92 199.946 370.733 199.586 370.48C199.226 370.213 198.946 369.867 198.746 369.44C198.546 369.013 198.446 368.5 198.446 367.9C198.446 367.327 198.559 366.833 198.786 366.42C199.026 366.007 199.346 365.673 199.746 365.42C200.146 365.167 200.613 364.98 201.146 364.86C201.679 364.74 202.239 364.68 202.826 364.68C203.013 364.68 203.206 364.693 203.406 364.72C203.606 364.733 203.793 364.76 203.966 364.8C204.153 364.827 204.313 364.853 204.446 364.88C204.579 364.907 204.673 364.927 204.726 364.94V364.42C204.726 364.113 204.693 363.813 204.626 363.52C204.559 363.213 204.439 362.947 204.266 362.72C204.093 362.48 203.853 362.293 203.546 362.16C203.253 362.013 202.866 361.94 202.386 361.94C201.773 361.94 201.233 361.987 200.766 362.08C200.313 362.16 199.973 362.247 199.746 362.34L199.526 360.8C199.766 360.693 200.166 360.593 200.726 360.5C201.286 360.393 201.893 360.34 202.546 360.34ZM216.355 362.8C216.128 362.613 215.802 362.433 215.375 362.26C214.948 362.087 214.482 362 213.975 362C213.442 362 212.982 362.1 212.595 362.3C212.222 362.487 211.915 362.753 211.675 363.1C211.435 363.433 211.262 363.833 211.155 364.3C211.048 364.767 210.995 365.267 210.995 365.8C210.995 367.013 211.295 367.953 211.895 368.62C212.495 369.273 213.295 369.6 214.295 369.6C214.802 369.6 215.222 369.58 215.555 369.54C215.902 369.487 216.168 369.433 216.355 369.38V362.8ZM216.355 355.8L218.215 355.48V370.7C217.788 370.82 217.242 370.94 216.575 371.06C215.908 371.18 215.142 371.24 214.275 371.24C213.475 371.24 212.755 371.113 212.115 370.86C211.475 370.607 210.928 370.247 210.475 369.78C210.022 369.313 209.668 368.747 209.415 368.08C209.175 367.4 209.055 366.64 209.055 365.8C209.055 365 209.155 364.267 209.355 363.6C209.568 362.933 209.875 362.36 210.275 361.88C210.675 361.4 211.162 361.027 211.735 360.76C212.322 360.493 212.988 360.36 213.735 360.36C214.335 360.36 214.862 360.44 215.315 360.6C215.782 360.76 216.128 360.913 216.355 361.06V355.8ZM219.712 374.74C219.552 374.74 219.346 374.72 219.092 374.68C218.839 374.64 218.626 374.587 218.452 374.52L218.692 373C218.826 373.04 218.979 373.073 219.153 373.1C219.326 373.127 219.486 373.14 219.632 373.14C220.273 373.14 220.726 372.94 220.993 372.54C221.273 372.153 221.413 371.58 221.413 370.82V360.6H223.273V370.8C223.273 372.133 222.966 373.12 222.353 373.76C221.753 374.413 220.873 374.74 219.712 374.74ZM222.333 358.72C221.999 358.72 221.713 358.613 221.473 358.4C221.246 358.173 221.132 357.873 221.132 357.5C221.132 357.127 221.246 356.833 221.473 356.62C221.713 356.393 221.999 356.28 222.333 356.28C222.666 356.28 222.946 356.393 223.173 356.62C223.413 356.833 223.533 357.127 223.533 357.5C223.533 357.873 223.413 358.173 223.173 358.4C222.946 358.613 222.666 358.72 222.333 358.72ZM234.751 370.7C234.324 370.807 233.758 370.92 233.051 371.04C232.358 371.16 231.551 371.22 230.631 371.22C229.831 371.22 229.158 371.107 228.611 370.88C228.064 370.64 227.624 370.307 227.291 369.88C226.958 369.453 226.718 368.953 226.571 368.38C226.424 367.793 226.351 367.147 226.351 366.44V360.6H228.211V366.04C228.211 367.307 228.411 368.213 228.811 368.76C229.211 369.307 229.884 369.58 230.831 369.58C231.031 369.58 231.238 369.573 231.451 369.56C231.664 369.547 231.864 369.533 232.051 369.52C232.238 369.493 232.404 369.473 232.551 369.46C232.711 369.433 232.824 369.407 232.891 369.38V360.6H234.751V370.7ZM240.375 369.66C241.135 369.66 241.695 369.56 242.055 369.36C242.429 369.16 242.615 368.84 242.615 368.4C242.615 367.947 242.435 367.587 242.075 367.32C241.715 367.053 241.122 366.753 240.295 366.42C239.895 366.26 239.509 366.1 239.135 365.94C238.775 365.767 238.462 365.567 238.195 365.34C237.929 365.113 237.715 364.84 237.555 364.52C237.395 364.2 237.315 363.807 237.315 363.34C237.315 362.42 237.655 361.693 238.335 361.16C239.015 360.613 239.942 360.34 241.115 360.34C241.409 360.34 241.702 360.36 241.995 360.4C242.289 360.427 242.562 360.467 242.815 360.52C243.069 360.56 243.289 360.607 243.475 360.66C243.675 360.713 243.829 360.76 243.935 360.8L243.595 362.4C243.395 362.293 243.082 362.187 242.655 362.08C242.229 361.96 241.715 361.9 241.115 361.9C240.595 361.9 240.142 362.007 239.755 362.22C239.369 362.42 239.175 362.74 239.175 363.18C239.175 363.407 239.215 363.607 239.295 363.78C239.389 363.953 239.522 364.113 239.695 364.26C239.882 364.393 240.109 364.52 240.375 364.64C240.642 364.76 240.962 364.887 241.335 365.02C241.829 365.207 242.269 365.393 242.655 365.58C243.042 365.753 243.369 365.96 243.635 366.2C243.915 366.44 244.129 366.733 244.275 367.08C244.422 367.413 244.495 367.827 244.495 368.32C244.495 369.28 244.135 370.007 243.415 370.5C242.709 370.993 241.695 371.24 240.375 371.24C239.455 371.24 238.735 371.16 238.215 371C237.695 370.853 237.342 370.74 237.155 370.66L237.495 369.06C237.709 369.14 238.049 369.26 238.515 369.42C238.982 369.58 239.602 369.66 240.375 369.66ZM248.621 360.6H252.561V362.16H248.621V366.96C248.621 367.48 248.661 367.913 248.741 368.26C248.821 368.593 248.941 368.86 249.101 369.06C249.261 369.247 249.461 369.38 249.701 369.46C249.941 369.54 250.221 369.58 250.541 369.58C251.101 369.58 251.548 369.52 251.881 369.4C252.228 369.267 252.468 369.173 252.601 369.12L252.961 370.66C252.775 370.753 252.448 370.867 251.981 371C251.515 371.147 250.981 371.22 250.381 371.22C249.675 371.22 249.088 371.133 248.621 370.96C248.168 370.773 247.801 370.5 247.521 370.14C247.241 369.78 247.041 369.34 246.921 368.82C246.815 368.287 246.761 367.673 246.761 366.98V357.7L248.621 357.38V360.6ZM258.448 369.66C258.888 369.66 259.275 369.653 259.608 369.64C259.955 369.613 260.241 369.573 260.468 369.52V366.42C260.335 366.353 260.115 366.3 259.808 366.26C259.515 366.207 259.155 366.18 258.728 366.18C258.448 366.18 258.148 366.2 257.828 366.24C257.521 366.28 257.235 366.367 256.968 366.5C256.715 366.62 256.501 366.793 256.328 367.02C256.155 367.233 256.068 367.52 256.068 367.88C256.068 368.547 256.281 369.013 256.708 369.28C257.135 369.533 257.715 369.66 258.448 369.66ZM258.288 360.34C259.035 360.34 259.661 360.44 260.168 360.64C260.688 360.827 261.101 361.1 261.408 361.46C261.728 361.807 261.955 362.227 262.088 362.72C262.221 363.2 262.288 363.733 262.288 364.32V370.82C262.128 370.847 261.901 370.887 261.608 370.94C261.328 370.98 261.008 371.02 260.648 371.06C260.288 371.1 259.895 371.133 259.468 371.16C259.055 371.2 258.641 371.22 258.228 371.22C257.641 371.22 257.101 371.16 256.608 371.04C256.115 370.92 255.688 370.733 255.328 370.48C254.968 370.213 254.688 369.867 254.488 369.44C254.288 369.013 254.188 368.5 254.188 367.9C254.188 367.327 254.301 366.833 254.528 366.42C254.768 366.007 255.088 365.673 255.488 365.42C255.888 365.167 256.355 364.98 256.888 364.86C257.421 364.74 257.981 364.68 258.568 364.68C258.755 364.68 258.948 364.693 259.148 364.72C259.348 364.733 259.535 364.76 259.708 364.8C259.895 364.827 260.055 364.853 260.188 364.88C260.321 364.907 260.415 364.927 260.468 364.94V364.42C260.468 364.113 260.435 363.813 260.368 363.52C260.301 363.213 260.181 362.947 260.008 362.72C259.835 362.48 259.595 362.293 259.288 362.16C258.995 362.013 258.608 361.94 258.128 361.94C257.515 361.94 256.975 361.987 256.508 362.08C256.055 362.16 255.715 362.247 255.488 362.34L255.268 360.8C255.508 360.693 255.908 360.593 256.468 360.5C257.028 360.393 257.635 360.34 258.288 360.34ZM267.237 361.06C267.464 360.913 267.804 360.76 268.257 360.6C268.724 360.44 269.257 360.36 269.857 360.36C270.604 360.36 271.264 360.493 271.837 360.76C272.424 361.027 272.917 361.4 273.317 361.88C273.717 362.36 274.017 362.933 274.217 363.6C274.431 364.267 274.537 365 274.537 365.8C274.537 366.64 274.411 367.4 274.157 368.08C273.917 368.747 273.571 369.313 273.117 369.78C272.664 370.247 272.117 370.607 271.477 370.86C270.837 371.113 270.117 371.24 269.317 371.24C268.451 371.24 267.684 371.18 267.017 371.06C266.351 370.94 265.804 370.82 265.377 370.7V355.8L267.237 355.48V361.06ZM267.237 369.38C267.424 369.433 267.684 369.487 268.017 369.54C268.364 369.58 268.791 369.6 269.297 369.6C270.297 369.6 271.097 369.273 271.697 368.62C272.297 367.953 272.597 367.013 272.597 365.8C272.597 365.267 272.544 364.767 272.437 364.3C272.331 363.833 272.157 363.433 271.917 363.1C271.677 362.753 271.364 362.487 270.977 362.3C270.604 362.1 270.151 362 269.617 362C269.111 362 268.644 362.087 268.217 362.26C267.791 362.433 267.464 362.613 267.237 362.8V369.38ZM280.275 371.2C279.128 371.173 278.315 370.927 277.835 370.46C277.355 369.993 277.115 369.267 277.115 368.28V355.8L278.975 355.48V367.98C278.975 368.287 279.001 368.54 279.055 368.74C279.108 368.94 279.195 369.1 279.315 369.22C279.435 369.34 279.595 369.433 279.795 369.5C279.995 369.553 280.241 369.6 280.535 369.64L280.275 371.2ZM282.043 365.82C282.043 364.9 282.177 364.1 282.443 363.42C282.71 362.727 283.063 362.153 283.503 361.7C283.943 361.247 284.45 360.907 285.023 360.68C285.597 360.453 286.183 360.34 286.783 360.34C288.183 360.34 289.257 360.78 290.003 361.66C290.75 362.527 291.123 363.853 291.123 365.64C291.123 365.72 291.123 365.827 291.123 365.96C291.123 366.08 291.117 366.193 291.103 366.3H283.983C284.063 367.38 284.377 368.2 284.923 368.76C285.47 369.32 286.323 369.6 287.483 369.6C288.137 369.6 288.683 369.547 289.123 369.44C289.577 369.32 289.917 369.207 290.143 369.1L290.403 370.66C290.177 370.78 289.777 370.907 289.203 371.04C288.643 371.173 288.003 371.24 287.283 371.24C286.377 371.24 285.59 371.107 284.923 370.84C284.27 370.56 283.73 370.18 283.303 369.7C282.877 369.22 282.557 368.653 282.343 368C282.143 367.333 282.043 366.607 282.043 365.82ZM289.183 364.8C289.197 363.96 288.983 363.273 288.543 362.74C288.117 362.193 287.523 361.92 286.763 361.92C286.337 361.92 285.957 362.007 285.623 362.18C285.303 362.34 285.03 362.553 284.803 362.82C284.577 363.087 284.397 363.393 284.263 363.74C284.143 364.087 284.063 364.44 284.023 364.8H289.183Z" fill="#42454A"/>
<path d="M20.5234 339.137L37.2105 349.396L35.887 350.877L20.0477 341.138L1.87242 352.319V374.687C7.9288 378.41 13.9913 382.139 20.0477 385.862L38.229 374.681V358.394L22.9081 376.435L11.6675 359.946L22.9081 366.495L49 345.712L40.0953 356.198V375.253C40.0953 375.649 39.8819 375.987 39.5708 376.149L20.5173 387.869C20.2123 388.051 19.8525 388.038 19.5719 387.863C13.2045 383.945 6.84317 380.028 0.475728 376.11C0.176873 375.928 0.00609908 375.597 0.00609908 375.253L0 351.747C0 351.351 0.219567 351.013 0.53062 350.851L19.5841 339.131C19.883 338.949 20.2428 338.962 20.5234 339.137Z" fill="#42454A"/>
<path d="M13.45 43.05C14.55 43.05 15.45 42.9667 16.15 42.8C16.8833 42.6 17.4667 42.35 17.9 42.05C18.3333 41.7167 18.6333 41.3333 18.8 40.9C18.9667 40.4667 19.05 39.9833 19.05 39.45C19.05 38.3167 18.5167 37.3833 17.45 36.65C16.3833 35.8833 14.55 35.0667 11.95 34.2C10.8167 33.8 9.68333 33.35 8.55 32.85C7.41667 32.3167 6.4 31.6667 5.5 30.9C4.6 30.1 3.86667 29.15 3.3 28.05C2.73333 26.9167 2.45 25.55 2.45 23.95C2.45 22.35 2.75 20.9167 3.35 19.65C3.95 18.35 4.8 17.25 5.9 16.35C7 15.45 8.33333 14.7667 9.9 14.3C11.4667 13.8 13.2333 13.55 15.2 13.55C17.5333 13.55 19.55 13.8 21.25 14.3C22.95 14.8 24.35 15.35 25.45 15.95L23.2 22.1C22.2333 21.6 21.15 21.1667 19.95 20.8C18.7833 20.4 17.3667 20.2 15.7 20.2C13.8333 20.2 12.4833 20.4667 11.65 21C10.85 21.5 10.45 22.2833 10.45 23.35C10.45 23.9833 10.6 24.5167 10.9 24.95C11.2 25.3833 11.6167 25.7833 12.15 26.15C12.7167 26.4833 13.35 26.8 14.05 27.1C14.7833 27.3667 15.5833 27.65 16.45 27.95C18.25 28.6167 19.8167 29.2833 21.15 29.95C22.4833 30.5833 23.5833 31.3333 24.45 32.2C25.35 33.0667 26.0167 34.0833 26.45 35.25C26.8833 36.4167 27.1 37.8333 27.1 39.5C27.1 42.7333 25.9667 45.25 23.7 47.05C21.4333 48.8167 18.0167 49.7 13.45 49.7C11.9167 49.7 10.5333 49.6 9.3 49.4C8.06667 49.2333 6.96667 49.0167 6 48.75C5.06667 48.4833 4.25 48.2 3.55 47.9C2.88333 47.6 2.31667 47.3167 1.85 47.05L4.05 40.85C5.08333 41.4167 6.35 41.9333 7.85 42.4C9.38333 42.8333 11.25 43.05 13.45 43.05ZM32.6016 49V11.4L40.0516 10.2V22.8C40.5516 22.6333 41.1849 22.4833 41.9516 22.35C42.7516 22.1833 43.5182 22.1 44.2516 22.1C46.3849 22.1 48.1516 22.4 49.5516 23C50.9849 23.5667 52.1182 24.3833 52.9516 25.45C53.8182 26.5167 54.4182 27.7833 54.7516 29.25C55.1182 30.7167 55.3016 32.35 55.3016 34.15V49H47.8516V35.05C47.8516 32.65 47.5349 30.95 46.9016 29.95C46.3016 28.95 45.1682 28.45 43.5016 28.45C42.8349 28.45 42.2016 28.5167 41.6016 28.65C41.0349 28.75 40.5182 28.8667 40.0516 29V49H32.6016ZM86.6449 35.8C86.6449 37.8667 86.3449 39.7667 85.7449 41.5C85.1449 43.2 84.2783 44.6667 83.1449 45.9C82.0116 47.1 80.6449 48.0333 79.0449 48.7C77.4783 49.3667 75.7116 49.7 73.7449 49.7C71.8116 49.7 70.0449 49.3667 68.4449 48.7C66.8783 48.0333 65.5283 47.1 64.3949 45.9C63.2616 44.6667 62.3783 43.2 61.7449 41.5C61.1116 39.7667 60.7949 37.8667 60.7949 35.8C60.7949 33.7333 61.1116 31.85 61.7449 30.15C62.4116 28.45 63.3116 27 64.4449 25.8C65.6116 24.6 66.9783 23.6667 68.5449 23C70.1449 22.3333 71.8783 22 73.7449 22C75.6449 22 77.3783 22.3333 78.9449 23C80.5449 23.6667 81.9116 24.6 83.0449 25.8C84.1783 27 85.0616 28.45 85.6949 30.15C86.3283 31.85 86.6449 33.7333 86.6449 35.8ZM79.0449 35.8C79.0449 33.5 78.5783 31.7 77.6449 30.4C76.7449 29.0667 75.4449 28.4 73.7449 28.4C72.0449 28.4 70.7283 29.0667 69.7949 30.4C68.8616 31.7 68.3949 33.5 68.3949 35.8C68.3949 38.1 68.8616 39.9333 69.7949 41.3C70.7283 42.6333 72.0449 43.3 73.7449 43.3C75.4449 43.3 76.7449 42.6333 77.6449 41.3C78.5783 39.9333 79.0449 38.1 79.0449 35.8ZM109.266 36.05C109.266 33.75 108.749 31.9167 107.716 30.55C106.683 29.15 105.149 28.45 103.116 28.45C102.449 28.45 101.833 28.4833 101.266 28.55C100.699 28.5833 100.233 28.6333 99.866 28.7V42.15C100.333 42.45 100.933 42.7 101.666 42.9C102.433 43.1 103.199 43.2 103.966 43.2C107.499 43.2 109.266 40.8167 109.266 36.05ZM116.866 35.85C116.866 37.8833 116.616 39.7333 116.116 41.4C115.616 43.0667 114.883 44.5 113.916 45.7C112.949 46.9 111.749 47.8333 110.316 48.5C108.883 49.1667 107.233 49.5 105.366 49.5C104.333 49.5 103.366 49.4 102.466 49.2C101.566 49 100.699 48.7167 99.866 48.35V58.25H92.416V23.6C93.0827 23.4 93.8493 23.2167 94.716 23.05C95.5827 22.85 96.4827 22.6833 97.416 22.55C98.3827 22.4167 99.3493 22.3167 100.316 22.25C101.316 22.15 102.266 22.1 103.166 22.1C105.333 22.1 107.266 22.4333 108.966 23.1C110.666 23.7333 112.099 24.65 113.266 25.85C114.433 27.0167 115.316 28.45 115.916 30.15C116.549 31.85 116.866 33.75 116.866 35.85ZM139.442 36.05C139.442 33.75 138.925 31.9167 137.892 30.55C136.858 29.15 135.325 28.45 133.292 28.45C132.625 28.45 132.008 28.4833 131.442 28.55C130.875 28.5833 130.408 28.6333 130.042 28.7V42.15C130.508 42.45 131.108 42.7 131.842 42.9C132.608 43.1 133.375 43.2 134.142 43.2C137.675 43.2 139.442 40.8167 139.442 36.05ZM147.042 35.85C147.042 37.8833 146.792 39.7333 146.292 41.4C145.792 43.0667 145.058 44.5 144.092 45.7C143.125 46.9 141.925 47.8333 140.492 48.5C139.058 49.1667 137.408 49.5 135.542 49.5C134.508 49.5 133.542 49.4 132.642 49.2C131.742 49 130.875 48.7167 130.042 48.35V58.25H122.592V23.6C123.258 23.4 124.025 23.2167 124.892 23.05C125.758 22.85 126.658 22.6833 127.592 22.55C128.558 22.4167 129.525 22.3167 130.492 22.25C131.492 22.15 132.442 22.1 133.342 22.1C135.508 22.1 137.442 22.4333 139.142 23.1C140.842 23.7333 142.275 24.65 143.442 25.85C144.608 27.0167 145.492 28.45 146.092 30.15C146.725 31.85 147.042 33.75 147.042 35.85ZM160.218 49H152.768V22.7H160.218V49ZM160.918 15.1C160.918 16.4667 160.468 17.55 159.568 18.35C158.701 19.1167 157.668 19.5 156.468 19.5C155.268 19.5 154.218 19.1167 153.318 18.35C152.451 17.55 152.018 16.4667 152.018 15.1C152.018 13.7333 152.451 12.6667 153.318 11.9C154.218 11.1 155.268 10.7 156.468 10.7C157.668 10.7 158.701 11.1 159.568 11.9C160.468 12.6667 160.918 13.7333 160.918 15.1ZM167.221 23.6C168.487 23.2333 170.121 22.9 172.121 22.6C174.121 22.2667 176.221 22.1 178.421 22.1C180.654 22.1 182.504 22.4 183.971 23C185.471 23.5667 186.654 24.3833 187.521 25.45C188.387 26.5167 189.004 27.7833 189.371 29.25C189.737 30.7167 189.921 32.35 189.921 34.15V49H182.471V35.05C182.471 32.65 182.154 30.95 181.521 29.95C180.887 28.95 179.704 28.45 177.971 28.45C177.437 28.45 176.871 28.4833 176.271 28.55C175.671 28.5833 175.137 28.6333 174.671 28.7V49H167.221V23.6ZM203.014 35C203.014 39.1667 204.697 41.25 208.064 41.25C208.831 41.25 209.547 41.15 210.214 40.95C210.881 40.75 211.447 40.5167 211.914 40.25V28.35C211.547 28.2833 211.114 28.2333 210.614 28.2C210.114 28.1333 209.531 28.1 208.864 28.1C206.897 28.1 205.431 28.75 204.464 30.05C203.497 31.35 203.014 33 203.014 35ZM219.364 45.7C219.364 50 218.264 53.1833 216.064 55.25C213.897 57.35 210.531 58.4 205.964 58.4C204.364 58.4 202.764 58.25 201.164 57.95C199.564 57.6833 198.081 57.3167 196.714 56.85L198.014 50.6C199.181 51.0667 200.397 51.4333 201.664 51.7C202.964 51.9667 204.431 52.1 206.064 52.1C208.197 52.1 209.697 51.6333 210.564 50.7C211.464 49.7667 211.914 48.5667 211.914 47.1V46.15C211.114 46.5167 210.281 46.8 209.414 47C208.581 47.1667 207.664 47.25 206.664 47.25C203.031 47.25 200.247 46.1833 198.314 44.05C196.381 41.8833 195.414 38.8667 195.414 35C195.414 33.0667 195.714 31.3167 196.314 29.75C196.914 28.15 197.781 26.7833 198.914 25.65C200.081 24.5167 201.497 23.65 203.164 23.05C204.831 22.4167 206.714 22.1 208.814 22.1C209.714 22.1 210.631 22.15 211.564 22.25C212.531 22.3167 213.481 22.4167 214.414 22.55C215.347 22.6833 216.231 22.85 217.064 23.05C217.931 23.2167 218.697 23.4 219.364 23.6V45.7ZM249.013 13.95C254.213 13.95 258.197 14.8833 260.963 16.75C263.73 18.5833 265.113 21.45 265.113 25.35C265.113 27.7833 264.547 29.7667 263.413 31.3C262.313 32.8 260.713 33.9833 258.613 34.85C259.313 35.7167 260.047 36.7167 260.813 37.85C261.58 38.95 262.33 40.1167 263.063 41.35C263.83 42.55 264.563 43.8167 265.263 45.15C265.963 46.45 266.613 47.7333 267.213 49H258.463C257.83 47.8667 257.18 46.7167 256.513 45.55C255.88 44.3833 255.213 43.25 254.513 42.15C253.847 41.05 253.18 40.0167 252.513 39.05C251.847 38.05 251.18 37.15 250.513 36.35H246.663V49H238.863V14.85C240.563 14.5167 242.313 14.2833 244.113 14.15C245.947 14.0167 247.58 13.95 249.013 13.95ZM249.463 20.6C248.897 20.6 248.38 20.6167 247.913 20.65C247.48 20.6833 247.063 20.7167 246.663 20.75V30.15H248.863C251.797 30.15 253.897 29.7833 255.163 29.05C256.43 28.3167 257.063 27.0667 257.063 25.3C257.063 23.6 256.413 22.4 255.113 21.7C253.847 20.9667 251.963 20.6 249.463 20.6ZM280.493 43.8C281.227 43.8 281.927 43.7833 282.593 43.75C283.26 43.7167 283.793 43.6667 284.193 43.6V37.95C283.893 37.8833 283.443 37.8167 282.843 37.75C282.243 37.6833 281.693 37.65 281.193 37.65C280.493 37.65 279.827 37.7 279.193 37.8C278.593 37.8667 278.06 38.0167 277.593 38.25C277.127 38.4833 276.76 38.8 276.493 39.2C276.227 39.6 276.093 40.1 276.093 40.7C276.093 41.8667 276.477 42.6833 277.243 43.15C278.043 43.5833 279.127 43.8 280.493 43.8ZM279.893 22C282.093 22 283.927 22.25 285.393 22.75C286.86 23.25 288.027 23.9667 288.893 24.9C289.793 25.8333 290.427 26.9667 290.793 28.3C291.16 29.6333 291.343 31.1167 291.343 32.75V48.25C290.277 48.4833 288.793 48.75 286.893 49.05C284.993 49.3833 282.693 49.55 279.993 49.55C278.293 49.55 276.743 49.4 275.343 49.1C273.977 48.8 272.793 48.3167 271.793 47.65C270.793 46.95 270.027 46.05 269.493 44.95C268.96 43.85 268.693 42.5 268.693 40.9C268.693 39.3667 268.993 38.0667 269.593 37C270.227 35.9333 271.06 35.0833 272.093 34.45C273.127 33.8167 274.31 33.3667 275.643 33.1C276.977 32.8 278.36 32.65 279.793 32.65C280.76 32.65 281.61 32.7 282.343 32.8C283.11 32.8667 283.727 32.9667 284.193 33.1V32.4C284.193 31.1333 283.81 30.1167 283.043 29.35C282.277 28.5833 280.943 28.2 279.043 28.2C277.777 28.2 276.527 28.3 275.293 28.5C274.06 28.6667 272.993 28.9167 272.093 29.25L271.143 23.25C271.577 23.1167 272.11 22.9833 272.743 22.85C273.41 22.6833 274.127 22.55 274.893 22.45C275.66 22.3167 276.46 22.2167 277.293 22.15C278.16 22.05 279.027 22 279.893 22ZM296.83 35.85C296.83 33.95 297.13 32.1667 297.73 30.5C298.363 28.8 299.263 27.3333 300.43 26.1C301.597 24.8333 303.013 23.8333 304.68 23.1C306.347 22.3667 308.247 22 310.38 22C311.78 22 313.063 22.1333 314.23 22.4C315.397 22.6333 316.53 22.9833 317.63 23.45L316.08 29.4C315.38 29.1333 314.613 28.9 313.78 28.7C312.947 28.5 312.013 28.4 310.98 28.4C308.78 28.4 307.13 29.0833 306.03 30.45C304.963 31.8167 304.43 33.6167 304.43 35.85C304.43 38.2167 304.93 40.05 305.93 41.35C306.963 42.65 308.747 43.3 311.28 43.3C312.18 43.3 313.147 43.2167 314.18 43.05C315.213 42.8833 316.163 42.6167 317.03 42.25L318.08 48.35C317.213 48.7167 316.13 49.0333 314.83 49.3C313.53 49.5667 312.097 49.7 310.53 49.7C308.13 49.7 306.063 49.35 304.33 48.65C302.597 47.9167 301.163 46.9333 300.03 45.7C298.93 44.4667 298.113 43.0167 297.58 41.35C297.08 39.65 296.83 37.8167 296.83 35.85ZM330.53 32.2C331.263 31.4 332.013 30.5667 332.78 29.7C333.58 28.8333 334.347 27.9833 335.08 27.15C335.813 26.2833 336.497 25.4667 337.13 24.7C337.797 23.9333 338.363 23.2667 338.83 22.7H347.68C345.913 24.7333 344.18 26.6833 342.48 28.55C340.813 30.3833 338.98 32.2833 336.98 34.25C337.98 35.15 339.013 36.2333 340.08 37.5C341.147 38.7333 342.18 40.0167 343.18 41.35C344.18 42.6833 345.097 44.0167 345.93 45.35C346.763 46.6833 347.463 47.9 348.03 49H339.48C338.947 48.1333 338.33 47.1833 337.63 46.15C336.963 45.0833 336.247 44.0333 335.48 43C334.713 41.9333 333.897 40.9167 333.03 39.95C332.197 38.9833 331.363 38.1667 330.53 37.5V49H323.08V11.4L330.53 10.2V32.2Z" fill="#42454A"/>
</svg>
