<svg width="334" height="388" viewBox="0 0 334 388" fill="none" xmlns="http://www.w3.org/2000/svg">
<path d="M74.94 123.08C74.8067 122.76 74.6267 122.353 74.4 121.86C74.1867 121.367 73.9533 120.833 73.7 120.26C73.4467 119.687 73.1733 119.1 72.88 118.5C72.6 117.887 72.3333 117.313 72.08 116.78C71.8267 116.233 71.5867 115.747 71.36 115.32C71.1467 114.893 70.9733 114.567 70.84 114.34C70.6933 115.913 70.5733 117.62 70.48 119.46C70.3867 121.287 70.3067 123.133 70.24 125H68.34C68.3933 123.8 68.4533 122.593 68.52 121.38C68.5867 120.153 68.66 118.953 68.74 117.78C68.8333 116.593 68.9267 115.44 69.02 114.32C69.1267 113.2 69.24 112.14 69.36 111.14H71.06C71.42 111.727 71.8067 112.42 72.22 113.22C72.6333 114.02 73.0467 114.86 73.46 115.74C73.8733 116.607 74.2733 117.48 74.66 118.36C75.0467 119.227 75.4 120.02 75.72 120.74C76.04 120.02 76.3933 119.227 76.78 118.36C77.1667 117.48 77.5667 116.607 77.98 115.74C78.3933 114.86 78.8067 114.02 79.22 113.22C79.6333 112.42 80.02 111.727 80.38 111.14H82.08C82.5333 115.607 82.8733 120.227 83.1 125H81.2C81.1333 123.133 81.0533 121.287 80.96 119.46C80.8667 117.62 80.7467 115.913 80.6 114.34C80.4667 114.567 80.2867 114.893 80.06 115.32C79.8467 115.747 79.6133 116.233 79.36 116.78C79.1067 117.313 78.8333 117.887 78.54 118.5C78.26 119.1 77.9933 119.687 77.74 120.26C77.4867 120.833 77.2467 121.367 77.02 121.86C76.8067 122.353 76.6333 122.76 76.5 123.08H74.94ZM89.5419 123.66C89.9819 123.66 90.3685 123.653 90.7019 123.64C91.0485 123.613 91.3352 123.573 91.5619 123.52V120.42C91.4285 120.353 91.2085 120.3 90.9019 120.26C90.6085 120.207 90.2485 120.18 89.8219 120.18C89.5419 120.18 89.2419 120.2 88.9219 120.24C88.6152 120.28 88.3285 120.367 88.0619 120.5C87.8085 120.62 87.5952 120.793 87.4219 121.02C87.2485 121.233 87.1619 121.52 87.1619 121.88C87.1619 122.547 87.3752 123.013 87.8019 123.28C88.2285 123.533 88.8085 123.66 89.5419 123.66ZM89.3819 114.34C90.1285 114.34 90.7552 114.44 91.2619 114.64C91.7819 114.827 92.1952 115.1 92.5019 115.46C92.8219 115.807 93.0485 116.227 93.1819 116.72C93.3152 117.2 93.3819 117.733 93.3819 118.32V124.82C93.2219 124.847 92.9952 124.887 92.7019 124.94C92.4219 124.98 92.1019 125.02 91.7419 125.06C91.3819 125.1 90.9885 125.133 90.5619 125.16C90.1485 125.2 89.7352 125.22 89.3219 125.22C88.7352 125.22 88.1952 125.16 87.7019 125.04C87.2085 124.92 86.7819 124.733 86.4219 124.48C86.0619 124.213 85.7819 123.867 85.5819 123.44C85.3819 123.013 85.2819 122.5 85.2819 121.9C85.2819 121.327 85.3952 120.833 85.6219 120.42C85.8619 120.007 86.1819 119.673 86.5819 119.42C86.9819 119.167 87.4485 118.98 87.9819 118.86C88.5152 118.74 89.0752 118.68 89.6619 118.68C89.8485 118.68 90.0419 118.693 90.2419 118.72C90.4419 118.733 90.6285 118.76 90.8019 118.8C90.9885 118.827 91.1485 118.853 91.2819 118.88C91.4152 118.907 91.5085 118.927 91.5619 118.94V118.42C91.5619 118.113 91.5285 117.813 91.4619 117.52C91.3952 117.213 91.2752 116.947 91.1019 116.72C90.9285 116.48 90.6885 116.293 90.3819 116.16C90.0885 116.013 89.7019 115.94 89.2219 115.94C88.6085 115.94 88.0685 115.987 87.6019 116.08C87.1485 116.16 86.8085 116.247 86.5819 116.34L86.3619 114.8C86.6019 114.693 87.0019 114.593 87.5619 114.5C88.1219 114.393 88.7285 114.34 89.3819 114.34ZM98.2111 114.6H102.151V116.16H98.2111V120.96C98.2111 121.48 98.2511 121.913 98.3311 122.26C98.4111 122.593 98.5311 122.86 98.6911 123.06C98.8511 123.247 99.0511 123.38 99.2911 123.46C99.5311 123.54 99.8111 123.58 100.131 123.58C100.691 123.58 101.138 123.52 101.471 123.4C101.818 123.267 102.058 123.173 102.191 123.12L102.551 124.66C102.364 124.753 102.038 124.867 101.571 125C101.104 125.147 100.571 125.22 99.9711 125.22C99.2644 125.22 98.6778 125.133 98.2111 124.96C97.7578 124.773 97.3911 124.5 97.1111 124.14C96.8311 123.78 96.6311 123.34 96.5111 122.82C96.4044 122.287 96.3511 121.673 96.3511 120.98V111.7L98.2111 111.38V114.6ZM103.743 119.82C103.743 118.9 103.876 118.1 104.143 117.42C104.409 116.727 104.763 116.153 105.203 115.7C105.643 115.247 106.149 114.907 106.723 114.68C107.296 114.453 107.883 114.34 108.483 114.34C109.883 114.34 110.956 114.78 111.703 115.66C112.449 116.527 112.823 117.853 112.823 119.64C112.823 119.72 112.823 119.827 112.823 119.96C112.823 120.08 112.816 120.193 112.803 120.3H105.683C105.763 121.38 106.076 122.2 106.623 122.76C107.169 123.32 108.023 123.6 109.183 123.6C109.836 123.6 110.383 123.547 110.823 123.44C111.276 123.32 111.616 123.207 111.843 123.1L112.103 124.66C111.876 124.78 111.476 124.907 110.903 125.04C110.343 125.173 109.703 125.24 108.983 125.24C108.076 125.24 107.289 125.107 106.623 124.84C105.969 124.56 105.429 124.18 105.003 123.7C104.576 123.22 104.256 122.653 104.043 122C103.843 121.333 103.743 120.607 103.743 119.82ZM110.883 118.8C110.896 117.96 110.683 117.273 110.243 116.74C109.816 116.193 109.223 115.92 108.463 115.92C108.036 115.92 107.656 116.007 107.323 116.18C107.003 116.34 106.729 116.553 106.503 116.82C106.276 117.087 106.096 117.393 105.963 117.74C105.843 118.087 105.763 118.44 105.723 118.8H110.883ZM119.335 114.38C119.495 114.38 119.675 114.393 119.875 114.42C120.088 114.433 120.295 114.46 120.495 114.5C120.695 114.527 120.875 114.56 121.035 114.6C121.208 114.627 121.335 114.653 121.415 114.68L121.095 116.3C120.948 116.247 120.701 116.187 120.355 116.12C120.021 116.04 119.588 116 119.055 116C118.708 116 118.361 116.04 118.015 116.12C117.681 116.187 117.461 116.233 117.355 116.26V125H115.495V115.04C115.935 114.88 116.481 114.733 117.135 114.6C117.788 114.453 118.521 114.38 119.335 114.38ZM125.069 125H123.209V114.6H125.069V125ZM124.129 112.72C123.796 112.72 123.509 112.613 123.269 112.4C123.043 112.173 122.929 111.873 122.929 111.5C122.929 111.127 123.043 110.833 123.269 110.62C123.509 110.393 123.796 110.28 124.129 110.28C124.463 110.28 124.743 110.393 124.969 110.62C125.209 110.833 125.329 111.127 125.329 111.5C125.329 111.873 125.209 112.173 124.969 112.4C124.743 112.613 124.463 112.72 124.129 112.72ZM131.788 123.66C132.228 123.66 132.615 123.653 132.948 123.64C133.295 123.613 133.581 123.573 133.808 123.52V120.42C133.675 120.353 133.455 120.3 133.148 120.26C132.855 120.207 132.495 120.18 132.068 120.18C131.788 120.18 131.488 120.2 131.168 120.24C130.861 120.28 130.575 120.367 130.308 120.5C130.055 120.62 129.841 120.793 129.668 121.02C129.495 121.233 129.408 121.52 129.408 121.88C129.408 122.547 129.621 123.013 130.048 123.28C130.475 123.533 131.055 123.66 131.788 123.66ZM131.628 114.34C132.375 114.34 133.001 114.44 133.508 114.64C134.028 114.827 134.441 115.1 134.748 115.46C135.068 115.807 135.295 116.227 135.428 116.72C135.561 117.2 135.628 117.733 135.628 118.32V124.82C135.468 124.847 135.241 124.887 134.948 124.94C134.668 124.98 134.348 125.02 133.988 125.06C133.628 125.1 133.235 125.133 132.808 125.16C132.395 125.2 131.981 125.22 131.568 125.22C130.981 125.22 130.441 125.16 129.948 125.04C129.455 124.92 129.028 124.733 128.668 124.48C128.308 124.213 128.028 123.867 127.828 123.44C127.628 123.013 127.528 122.5 127.528 121.9C127.528 121.327 127.641 120.833 127.868 120.42C128.108 120.007 128.428 119.673 128.828 119.42C129.228 119.167 129.695 118.98 130.228 118.86C130.761 118.74 131.321 118.68 131.908 118.68C132.095 118.68 132.288 118.693 132.488 118.72C132.688 118.733 132.875 118.76 133.048 118.8C133.235 118.827 133.395 118.853 133.528 118.88C133.661 118.907 133.755 118.927 133.808 118.94V118.42C133.808 118.113 133.775 117.813 133.708 117.52C133.641 117.213 133.521 116.947 133.348 116.72C133.175 116.48 132.935 116.293 132.628 116.16C132.335 116.013 131.948 115.94 131.468 115.94C130.855 115.94 130.315 115.987 129.848 116.08C129.395 116.16 129.055 116.247 128.828 116.34L128.608 114.8C128.848 114.693 129.248 114.593 129.808 114.5C130.368 114.393 130.975 114.34 131.628 114.34ZM141.837 125.2C140.691 125.173 139.877 124.927 139.397 124.46C138.917 123.993 138.677 123.267 138.677 122.28V109.8L140.537 109.48V121.98C140.537 122.287 140.564 122.54 140.617 122.74C140.671 122.94 140.757 123.1 140.877 123.22C140.997 123.34 141.157 123.433 141.357 123.5C141.557 123.553 141.804 123.6 142.097 123.64L141.837 125.2ZM151.015 123.92C151.015 124.28 150.895 124.593 150.655 124.86C150.415 125.127 150.088 125.26 149.675 125.26C149.262 125.26 148.935 125.127 148.695 124.86C148.455 124.593 148.335 124.28 148.335 123.92C148.335 123.56 148.455 123.247 148.695 122.98C148.935 122.713 149.262 122.58 149.675 122.58C150.088 122.58 150.415 122.713 150.655 122.98C150.895 123.247 151.015 123.56 151.015 123.92ZM151.015 115.94C151.015 116.3 150.895 116.613 150.655 116.88C150.415 117.147 150.088 117.28 149.675 117.28C149.262 117.28 148.935 117.147 148.695 116.88C148.455 116.613 148.335 116.3 148.335 115.94C148.335 115.58 148.455 115.267 148.695 115C148.935 114.733 149.262 114.6 149.675 114.6C150.088 114.6 150.415 114.733 150.655 115C150.895 115.267 151.015 115.58 151.015 115.94ZM167.746 125C167.519 124.4 167.306 123.813 167.106 123.24C166.906 122.653 166.699 122.06 166.486 121.46H160.206L158.946 125H156.926C157.459 123.533 157.959 122.18 158.426 120.94C158.892 119.687 159.346 118.5 159.786 117.38C160.239 116.26 160.686 115.193 161.126 114.18C161.566 113.153 162.026 112.14 162.506 111.14H164.286C164.766 112.14 165.226 113.153 165.666 114.18C166.106 115.193 166.546 116.26 166.986 117.38C167.439 118.5 167.899 119.687 168.366 120.94C168.832 122.18 169.332 123.533 169.866 125H167.746ZM165.926 119.86C165.499 118.7 165.072 117.58 164.646 116.5C164.232 115.407 163.799 114.36 163.346 113.36C162.879 114.36 162.432 115.407 162.006 116.5C161.592 117.58 161.179 118.7 160.766 119.86H165.926ZM174.747 125.2C173.601 125.173 172.787 124.927 172.307 124.46C171.827 123.993 171.587 123.267 171.587 122.28V109.8L173.447 109.48V121.98C173.447 122.287 173.474 122.54 173.527 122.74C173.581 122.94 173.667 123.1 173.787 123.22C173.907 123.34 174.067 123.433 174.267 123.5C174.467 123.553 174.714 123.6 175.007 123.64L174.747 125.2ZM185.376 124.7C184.949 124.807 184.383 124.92 183.676 125.04C182.983 125.16 182.176 125.22 181.256 125.22C180.456 125.22 179.783 125.107 179.236 124.88C178.689 124.64 178.249 124.307 177.916 123.88C177.583 123.453 177.343 122.953 177.196 122.38C177.049 121.793 176.976 121.147 176.976 120.44V114.6H178.836V120.04C178.836 121.307 179.036 122.213 179.436 122.76C179.836 123.307 180.509 123.58 181.456 123.58C181.656 123.58 181.863 123.573 182.076 123.56C182.289 123.547 182.489 123.533 182.676 123.52C182.863 123.493 183.029 123.473 183.176 123.46C183.336 123.433 183.449 123.407 183.516 123.38V114.6H185.376V124.7ZM188.58 114.9C189.007 114.793 189.567 114.68 190.26 114.56C190.967 114.44 191.78 114.38 192.7 114.38C193.367 114.38 193.927 114.473 194.38 114.66C194.834 114.833 195.214 115.093 195.52 115.44C195.614 115.373 195.76 115.28 195.96 115.16C196.16 115.04 196.407 114.927 196.7 114.82C196.994 114.7 197.32 114.6 197.68 114.52C198.04 114.427 198.427 114.38 198.84 114.38C199.64 114.38 200.294 114.5 200.8 114.74C201.307 114.967 201.7 115.293 201.98 115.72C202.274 116.147 202.467 116.653 202.56 117.24C202.667 117.827 202.72 118.467 202.72 119.16V125H200.86V119.56C200.86 118.947 200.827 118.42 200.76 117.98C200.707 117.54 200.594 117.173 200.42 116.88C200.26 116.587 200.034 116.373 199.74 116.24C199.46 116.093 199.094 116.02 198.64 116.02C198.014 116.02 197.494 116.107 197.08 116.28C196.68 116.44 196.407 116.587 196.26 116.72C196.367 117.067 196.447 117.447 196.5 117.86C196.554 118.273 196.58 118.707 196.58 119.16V125H194.72V119.56C194.72 118.947 194.687 118.42 194.62 117.98C194.554 117.54 194.434 117.173 194.26 116.88C194.1 116.587 193.874 116.373 193.58 116.24C193.3 116.093 192.94 116.02 192.5 116.02C192.314 116.02 192.114 116.027 191.9 116.04C191.687 116.053 191.48 116.073 191.28 116.1C191.094 116.113 190.92 116.133 190.76 116.16C190.6 116.187 190.494 116.207 190.44 116.22V125H188.58V114.9ZM207.667 125H205.807V114.6H207.667V125ZM206.727 112.72C206.394 112.72 206.107 112.613 205.867 112.4C205.64 112.173 205.527 111.873 205.527 111.5C205.527 111.127 205.64 110.833 205.867 110.62C206.107 110.393 206.394 110.28 206.727 110.28C207.06 110.28 207.34 110.393 207.567 110.62C207.807 110.833 207.927 111.127 207.927 111.5C207.927 111.873 207.807 112.173 207.567 112.4C207.34 112.613 207.06 112.72 206.727 112.72ZM210.866 114.9C211.292 114.793 211.859 114.68 212.566 114.56C213.272 114.44 214.086 114.38 215.006 114.38C215.832 114.38 216.519 114.5 217.066 114.74C217.612 114.967 218.046 115.293 218.366 115.72C218.699 116.133 218.932 116.633 219.066 117.22C219.199 117.807 219.266 118.453 219.266 119.16V125H217.406V119.56C217.406 118.92 217.359 118.373 217.266 117.92C217.186 117.467 217.046 117.1 216.846 116.82C216.646 116.54 216.379 116.34 216.046 116.22C215.712 116.087 215.299 116.02 214.806 116.02C214.606 116.02 214.399 116.027 214.186 116.04C213.972 116.053 213.766 116.073 213.566 116.1C213.379 116.113 213.206 116.133 213.046 116.16C212.899 116.187 212.792 116.207 212.726 116.22V125H210.866V114.9ZM224.21 125H222.35V114.6H224.21V125ZM223.27 112.72C222.937 112.72 222.65 112.613 222.41 112.4C222.183 112.173 222.07 111.873 222.07 111.5C222.07 111.127 222.183 110.833 222.41 110.62C222.65 110.393 222.937 110.28 223.27 110.28C223.603 110.28 223.883 110.393 224.11 110.62C224.35 110.833 224.47 111.127 224.47 111.5C224.47 111.873 224.35 112.173 224.11 112.4C223.883 112.613 223.603 112.72 223.27 112.72ZM235.689 124.7C235.262 124.807 234.695 124.92 233.989 125.04C233.295 125.16 232.489 125.22 231.569 125.22C230.769 125.22 230.095 125.107 229.549 124.88C229.002 124.64 228.562 124.307 228.229 123.88C227.895 123.453 227.655 122.953 227.509 122.38C227.362 121.793 227.289 121.147 227.289 120.44V114.6H229.149V120.04C229.149 121.307 229.349 122.213 229.749 122.76C230.149 123.307 230.822 123.58 231.769 123.58C231.969 123.58 232.175 123.573 232.389 123.56C232.602 123.547 232.802 123.533 232.989 123.52C233.175 123.493 233.342 123.473 233.489 123.46C233.649 123.433 233.762 123.407 233.829 123.38V114.6H235.689V124.7ZM238.893 114.9C239.32 114.793 239.88 114.68 240.573 114.56C241.28 114.44 242.093 114.38 243.013 114.38C243.68 114.38 244.24 114.473 244.693 114.66C245.146 114.833 245.526 115.093 245.833 115.44C245.926 115.373 246.073 115.28 246.273 115.16C246.473 115.04 246.72 114.927 247.013 114.82C247.306 114.7 247.633 114.6 247.993 114.52C248.353 114.427 248.74 114.38 249.153 114.38C249.953 114.38 250.606 114.5 251.113 114.74C251.62 114.967 252.013 115.293 252.293 115.72C252.586 116.147 252.78 116.653 252.873 117.24C252.98 117.827 253.033 118.467 253.033 119.16V125H251.173V119.56C251.173 118.947 251.14 118.42 251.073 117.98C251.02 117.54 250.906 117.173 250.733 116.88C250.573 116.587 250.346 116.373 250.053 116.24C249.773 116.093 249.406 116.02 248.953 116.02C248.326 116.02 247.806 116.107 247.393 116.28C246.993 116.44 246.72 116.587 246.573 116.72C246.68 117.067 246.76 117.447 246.813 117.86C246.866 118.273 246.893 118.707 246.893 119.16V125H245.033V119.56C245.033 118.947 245 118.42 244.933 117.98C244.866 117.54 244.746 117.173 244.573 116.88C244.413 116.587 244.186 116.373 243.893 116.24C243.613 116.093 243.253 116.02 242.813 116.02C242.626 116.02 242.426 116.027 242.213 116.04C242 116.053 241.793 116.073 241.593 116.1C241.406 116.113 241.233 116.133 241.073 116.16C240.913 116.187 240.806 116.207 240.753 116.22V125H238.893V114.9ZM264.268 123.66C264.708 123.66 265.095 123.653 265.428 123.64C265.775 123.613 266.062 123.573 266.288 123.52V120.42C266.155 120.353 265.935 120.3 265.628 120.26C265.335 120.207 264.975 120.18 264.548 120.18C264.268 120.18 263.968 120.2 263.648 120.24C263.342 120.28 263.055 120.367 262.788 120.5C262.535 120.62 262.322 120.793 262.148 121.02C261.975 121.233 261.888 121.52 261.888 121.88C261.888 122.547 262.102 123.013 262.528 123.28C262.955 123.533 263.535 123.66 264.268 123.66ZM264.108 114.34C264.855 114.34 265.482 114.44 265.988 114.64C266.508 114.827 266.922 115.1 267.228 115.46C267.548 115.807 267.775 116.227 267.908 116.72C268.042 117.2 268.108 117.733 268.108 118.32V124.82C267.948 124.847 267.722 124.887 267.428 124.94C267.148 124.98 266.828 125.02 266.468 125.06C266.108 125.1 265.715 125.133 265.288 125.16C264.875 125.2 264.462 125.22 264.048 125.22C263.462 125.22 262.922 125.16 262.428 125.04C261.935 124.92 261.508 124.733 261.148 124.48C260.788 124.213 260.508 123.867 260.308 123.44C260.108 123.013 260.008 122.5 260.008 121.9C260.008 121.327 260.122 120.833 260.348 120.42C260.588 120.007 260.908 119.673 261.308 119.42C261.708 119.167 262.175 118.98 262.708 118.86C263.242 118.74 263.802 118.68 264.388 118.68C264.575 118.68 264.768 118.693 264.968 118.72C265.168 118.733 265.355 118.76 265.528 118.8C265.715 118.827 265.875 118.853 266.008 118.88C266.142 118.907 266.235 118.927 266.288 118.94V118.42C266.288 118.113 266.255 117.813 266.188 117.52C266.122 117.213 266.002 116.947 265.828 116.72C265.655 116.48 265.415 116.293 265.108 116.16C264.815 116.013 264.428 115.94 263.948 115.94C263.335 115.94 262.795 115.987 262.328 116.08C261.875 116.16 261.535 116.247 261.308 116.34L261.088 114.8C261.328 114.693 261.728 114.593 262.288 114.5C262.848 114.393 263.455 114.34 264.108 114.34ZM274.318 125.2C273.171 125.173 272.358 124.927 271.878 124.46C271.398 123.993 271.158 123.267 271.158 122.28V109.8L273.018 109.48V121.98C273.018 122.287 273.044 122.54 273.098 122.74C273.151 122.94 273.238 123.1 273.358 123.22C273.478 123.34 273.638 123.433 273.838 123.5C274.038 123.553 274.284 123.6 274.578 123.64L274.318 125.2ZM279.786 125.2C278.64 125.173 277.826 124.927 277.346 124.46C276.866 123.993 276.626 123.267 276.626 122.28V109.8L278.486 109.48V121.98C278.486 122.287 278.513 122.54 278.566 122.74C278.62 122.94 278.706 123.1 278.826 123.22C278.946 123.34 279.106 123.433 279.306 123.5C279.506 123.553 279.753 123.6 280.046 123.64L279.786 125.2ZM291.315 119.8C291.315 120.627 291.195 121.373 290.955 122.04C290.715 122.707 290.375 123.28 289.935 123.76C289.508 124.24 288.995 124.613 288.395 124.88C287.795 125.133 287.142 125.26 286.435 125.26C285.728 125.26 285.075 125.133 284.475 124.88C283.875 124.613 283.355 124.24 282.915 123.76C282.488 123.28 282.155 122.707 281.915 122.04C281.675 121.373 281.555 120.627 281.555 119.8C281.555 118.987 281.675 118.247 281.915 117.58C282.155 116.9 282.488 116.32 282.915 115.84C283.355 115.36 283.875 114.993 284.475 114.74C285.075 114.473 285.728 114.34 286.435 114.34C287.142 114.34 287.795 114.473 288.395 114.74C288.995 114.993 289.508 115.36 289.935 115.84C290.375 116.32 290.715 116.9 290.955 117.58C291.195 118.247 291.315 118.987 291.315 119.8ZM289.375 119.8C289.375 118.627 289.108 117.7 288.575 117.02C288.055 116.327 287.342 115.98 286.435 115.98C285.528 115.98 284.808 116.327 284.275 117.02C283.755 117.7 283.495 118.627 283.495 119.8C283.495 120.973 283.755 121.907 284.275 122.6C284.808 123.28 285.528 123.62 286.435 123.62C287.342 123.62 288.055 123.28 288.575 122.6C289.108 121.907 289.375 120.973 289.375 119.8ZM292.439 126.94C292.585 127.007 292.772 127.067 292.999 127.12C293.239 127.187 293.472 127.22 293.699 127.22C294.432 127.22 295.005 127.053 295.419 126.72C295.832 126.4 296.205 125.873 296.539 125.14C295.699 123.54 294.912 121.847 294.179 120.06C293.459 118.26 292.859 116.44 292.379 114.6H294.379C294.525 115.2 294.699 115.847 294.899 116.54C295.112 117.233 295.345 117.947 295.599 118.68C295.852 119.413 296.125 120.147 296.419 120.88C296.712 121.613 297.019 122.32 297.339 123C297.845 121.6 298.285 120.213 298.659 118.84C299.032 117.467 299.385 116.053 299.719 114.6H301.639C301.159 116.56 300.625 118.447 300.039 120.26C299.452 122.06 298.819 123.747 298.139 125.32C297.872 125.92 297.592 126.433 297.299 126.86C297.019 127.3 296.705 127.66 296.359 127.94C296.012 128.22 295.619 128.427 295.179 128.56C294.752 128.693 294.265 128.76 293.719 128.76C293.572 128.76 293.419 128.747 293.259 128.72C293.099 128.707 292.939 128.68 292.779 128.64C292.632 128.613 292.492 128.58 292.359 128.54C292.239 128.5 292.152 128.467 292.099 128.44L292.439 126.94Z" fill="#42454A"/>
<path d="M20.5234 93.1373L37.2105 103.396L35.887 104.877L20.0477 95.1383L1.87242 106.319V128.687C7.9288 132.41 13.9913 136.139 20.0477 139.862L38.229 128.681V112.394L22.9081 130.435L11.6675 113.946L22.9081 120.495L49 99.712L40.0953 110.198V129.253C40.0953 129.649 39.8819 129.987 39.5708 130.149L20.5173 141.869C20.2123 142.051 19.8525 142.038 19.5719 141.863C13.2045 137.945 6.84317 134.028 0.475728 130.11C0.176873 129.928 0.00609908 129.597 0.00609908 129.253L0 105.747C0 105.351 0.219567 105.013 0.53062 104.851L19.5841 93.1308C19.883 92.9489 20.2428 92.9619 20.5234 93.1373Z" fill="#42454A"/>
<path d="M74.68 207.3C73.7067 207.3 72.82 207.14 72.02 206.82C71.22 206.5 70.5333 206.033 69.96 205.42C69.3867 204.807 68.94 204.053 68.62 203.16C68.3133 202.253 68.16 201.22 68.16 200.06C68.16 198.9 68.3333 197.873 68.68 196.98C69.04 196.073 69.52 195.313 70.12 194.7C70.72 194.087 71.42 193.62 72.22 193.3C73.02 192.98 73.8733 192.82 74.78 192.82C75.3533 192.82 75.8667 192.86 76.32 192.94C76.7867 193.02 77.1867 193.113 77.52 193.22C77.8667 193.327 78.1467 193.433 78.36 193.54C78.5733 193.647 78.72 193.727 78.8 193.78L78.24 195.38C78.12 195.3 77.9467 195.213 77.72 195.12C77.4933 195.027 77.2333 194.933 76.94 194.84C76.66 194.747 76.3467 194.673 76 194.62C75.6667 194.553 75.3267 194.52 74.98 194.52C74.2467 194.52 73.5867 194.647 73 194.9C72.4133 195.153 71.9133 195.52 71.5 196C71.0867 196.48 70.7667 197.067 70.54 197.76C70.3267 198.44 70.22 199.207 70.22 200.06C70.22 200.887 70.3133 201.64 70.5 202.32C70.7 203 70.9933 203.587 71.38 204.08C71.7667 204.56 72.2467 204.933 72.82 205.2C73.4067 205.467 74.0867 205.6 74.86 205.6C75.7533 205.6 76.4933 205.507 77.08 205.32C77.6667 205.133 78.1067 204.967 78.4 204.82L78.9 206.42C78.8067 206.487 78.64 206.573 78.4 206.68C78.16 206.773 77.86 206.867 77.5 206.96C77.14 207.053 76.72 207.133 76.24 207.2C75.76 207.267 75.24 207.3 74.68 207.3ZM89.8894 201.8C89.8894 202.627 89.7694 203.373 89.5294 204.04C89.2894 204.707 88.9494 205.28 88.5094 205.76C88.0827 206.24 87.5694 206.613 86.9694 206.88C86.3694 207.133 85.716 207.26 85.0094 207.26C84.3027 207.26 83.6494 207.133 83.0494 206.88C82.4494 206.613 81.9294 206.24 81.4894 205.76C81.0627 205.28 80.7294 204.707 80.4894 204.04C80.2494 203.373 80.1294 202.627 80.1294 201.8C80.1294 200.987 80.2494 200.247 80.4894 199.58C80.7294 198.9 81.0627 198.32 81.4894 197.84C81.9294 197.36 82.4494 196.993 83.0494 196.74C83.6494 196.473 84.3027 196.34 85.0094 196.34C85.716 196.34 86.3694 196.473 86.9694 196.74C87.5694 196.993 88.0827 197.36 88.5094 197.84C88.9494 198.32 89.2894 198.9 89.5294 199.58C89.7694 200.247 89.8894 200.987 89.8894 201.8ZM87.9494 201.8C87.9494 200.627 87.6827 199.7 87.1494 199.02C86.6294 198.327 85.916 197.98 85.0094 197.98C84.1027 197.98 83.3827 198.327 82.8494 199.02C82.3294 199.7 82.0694 200.627 82.0694 201.8C82.0694 202.973 82.3294 203.907 82.8494 204.6C83.3827 205.28 84.1027 205.62 85.0094 205.62C85.916 205.62 86.6294 205.28 87.1494 204.6C87.6827 203.907 87.9494 202.973 87.9494 201.8ZM95.6263 207.2C94.4796 207.173 93.6663 206.927 93.1863 206.46C92.7063 205.993 92.4663 205.267 92.4663 204.28V191.8L94.3263 191.48V203.98C94.3263 204.287 94.3529 204.54 94.4063 204.74C94.4596 204.94 94.5463 205.1 94.6663 205.22C94.7863 205.34 94.9463 205.433 95.1463 205.5C95.3463 205.553 95.5929 205.6 95.8863 205.64L95.6263 207.2ZM107.155 201.8C107.155 202.627 107.035 203.373 106.795 204.04C106.555 204.707 106.215 205.28 105.775 205.76C105.348 206.24 104.835 206.613 104.235 206.88C103.635 207.133 102.982 207.26 102.275 207.26C101.568 207.26 100.915 207.133 100.315 206.88C99.715 206.613 99.195 206.24 98.755 205.76C98.3283 205.28 97.995 204.707 97.755 204.04C97.515 203.373 97.395 202.627 97.395 201.8C97.395 200.987 97.515 200.247 97.755 199.58C97.995 198.9 98.3283 198.32 98.755 197.84C99.195 197.36 99.715 196.993 100.315 196.74C100.915 196.473 101.568 196.34 102.275 196.34C102.982 196.34 103.635 196.473 104.235 196.74C104.835 196.993 105.348 197.36 105.775 197.84C106.215 198.32 106.555 198.9 106.795 199.58C107.035 200.247 107.155 200.987 107.155 201.8ZM105.215 201.8C105.215 200.627 104.948 199.7 104.415 199.02C103.895 198.327 103.182 197.98 102.275 197.98C101.368 197.98 100.648 198.327 100.115 199.02C99.595 199.7 99.335 200.627 99.335 201.8C99.335 202.973 99.595 203.907 100.115 204.6C100.648 205.28 101.368 205.62 102.275 205.62C103.182 205.62 103.895 205.28 104.415 204.6C104.948 203.907 105.215 202.973 105.215 201.8ZM113.612 196.38C113.772 196.38 113.952 196.393 114.152 196.42C114.365 196.433 114.572 196.46 114.772 196.5C114.972 196.527 115.152 196.56 115.312 196.6C115.485 196.627 115.612 196.653 115.692 196.68L115.372 198.3C115.225 198.247 114.979 198.187 114.632 198.12C114.299 198.04 113.865 198 113.332 198C112.985 198 112.639 198.04 112.292 198.12C111.959 198.187 111.739 198.233 111.632 198.26V207H109.772V197.04C110.212 196.88 110.759 196.733 111.412 196.6C112.065 196.453 112.799 196.38 113.612 196.38ZM124.316 205.92C124.316 206.28 124.196 206.593 123.956 206.86C123.716 207.127 123.389 207.26 122.976 207.26C122.562 207.26 122.236 207.127 121.996 206.86C121.756 206.593 121.636 206.28 121.636 205.92C121.636 205.56 121.756 205.247 121.996 204.98C122.236 204.713 122.562 204.58 122.976 204.58C123.389 204.58 123.716 204.713 123.956 204.98C124.196 205.247 124.316 205.56 124.316 205.92ZM124.316 197.94C124.316 198.3 124.196 198.613 123.956 198.88C123.716 199.147 123.389 199.28 122.976 199.28C122.562 199.28 122.236 199.147 121.996 198.88C121.756 198.613 121.636 198.3 121.636 197.94C121.636 197.58 121.756 197.267 121.996 197C122.236 196.733 122.562 196.6 122.976 196.6C123.389 196.6 123.716 196.733 123.956 197C124.196 197.267 124.316 197.58 124.316 197.94ZM135.526 207.12C135.246 207.12 134.94 207.113 134.606 207.1C134.286 207.087 133.96 207.067 133.626 207.04C133.306 207.013 132.986 206.98 132.666 206.94C132.346 206.9 132.053 206.847 131.786 206.78V193.34C132.053 193.273 132.346 193.22 132.666 193.18C132.986 193.14 133.306 193.107 133.626 193.08C133.96 193.053 134.286 193.033 134.606 193.02C134.926 193.007 135.226 193 135.506 193C136.306 193 137.053 193.06 137.746 193.18C138.453 193.3 139.06 193.507 139.566 193.8C140.086 194.08 140.493 194.453 140.786 194.92C141.08 195.387 141.226 195.96 141.226 196.64C141.226 197.4 141.046 198.027 140.686 198.52C140.326 199 139.846 199.36 139.246 199.6C140.06 199.84 140.706 200.22 141.186 200.74C141.666 201.26 141.906 201.993 141.906 202.94C141.906 204.327 141.393 205.373 140.366 206.08C139.353 206.773 137.74 207.12 135.526 207.12ZM133.706 200.54V205.42C133.853 205.433 134.026 205.447 134.226 205.46C134.4 205.473 134.6 205.487 134.826 205.5C135.066 205.5 135.34 205.5 135.646 205.5C136.22 205.5 136.76 205.467 137.266 205.4C137.786 205.32 138.24 205.187 138.626 205C139.013 204.813 139.32 204.553 139.546 204.22C139.786 203.887 139.906 203.467 139.906 202.96C139.906 202.507 139.82 202.127 139.646 201.82C139.473 201.5 139.22 201.247 138.886 201.06C138.566 200.873 138.18 200.74 137.726 200.66C137.273 200.58 136.766 200.54 136.206 200.54H133.706ZM133.706 198.98H135.746C136.226 198.98 136.68 198.947 137.106 198.88C137.533 198.813 137.9 198.693 138.206 198.52C138.526 198.347 138.773 198.12 138.946 197.84C139.133 197.56 139.226 197.207 139.226 196.78C139.226 196.38 139.133 196.047 138.946 195.78C138.76 195.5 138.5 195.28 138.166 195.12C137.846 194.947 137.466 194.82 137.026 194.74C136.586 194.66 136.12 194.62 135.626 194.62C135.133 194.62 134.746 194.627 134.466 194.64C134.186 194.653 133.933 194.673 133.706 194.7V198.98ZM147.638 207.2C146.491 207.173 145.678 206.927 145.198 206.46C144.718 205.993 144.478 205.267 144.478 204.28V191.8L146.338 191.48V203.98C146.338 204.287 146.365 204.54 146.418 204.74C146.471 204.94 146.558 205.1 146.678 205.22C146.798 205.34 146.958 205.433 147.158 205.5C147.358 205.553 147.605 205.6 147.898 205.64L147.638 207.2ZM153.507 205.66C153.947 205.66 154.333 205.653 154.667 205.64C155.013 205.613 155.3 205.573 155.527 205.52V202.42C155.393 202.353 155.173 202.3 154.867 202.26C154.573 202.207 154.213 202.18 153.787 202.18C153.507 202.18 153.207 202.2 152.887 202.24C152.58 202.28 152.293 202.367 152.027 202.5C151.773 202.62 151.56 202.793 151.387 203.02C151.213 203.233 151.127 203.52 151.127 203.88C151.127 204.547 151.34 205.013 151.767 205.28C152.193 205.533 152.773 205.66 153.507 205.66ZM153.347 196.34C154.093 196.34 154.72 196.44 155.227 196.64C155.747 196.827 156.16 197.1 156.467 197.46C156.787 197.807 157.013 198.227 157.147 198.72C157.28 199.2 157.347 199.733 157.347 200.32V206.82C157.187 206.847 156.96 206.887 156.667 206.94C156.387 206.98 156.067 207.02 155.707 207.06C155.347 207.1 154.953 207.133 154.527 207.16C154.113 207.2 153.7 207.22 153.287 207.22C152.7 207.22 152.16 207.16 151.667 207.04C151.173 206.92 150.747 206.733 150.387 206.48C150.027 206.213 149.747 205.867 149.547 205.44C149.347 205.013 149.247 204.5 149.247 203.9C149.247 203.327 149.36 202.833 149.587 202.42C149.827 202.007 150.147 201.673 150.547 201.42C150.947 201.167 151.413 200.98 151.947 200.86C152.48 200.74 153.04 200.68 153.627 200.68C153.813 200.68 154.007 200.693 154.207 200.72C154.407 200.733 154.593 200.76 154.767 200.8C154.953 200.827 155.113 200.853 155.247 200.88C155.38 200.907 155.473 200.927 155.527 200.94V200.42C155.527 200.113 155.493 199.813 155.427 199.52C155.36 199.213 155.24 198.947 155.067 198.72C154.893 198.48 154.653 198.293 154.347 198.16C154.053 198.013 153.667 197.94 153.187 197.94C152.573 197.94 152.033 197.987 151.567 198.08C151.113 198.16 150.773 198.247 150.547 198.34L150.327 196.8C150.567 196.693 150.967 196.593 151.527 196.5C152.087 196.393 152.693 196.34 153.347 196.34ZM164.956 207.24C164.116 207.24 163.376 207.107 162.736 206.84C162.109 206.573 161.576 206.2 161.136 205.72C160.709 205.24 160.389 204.673 160.176 204.02C159.963 203.353 159.856 202.62 159.856 201.82C159.856 201.02 159.969 200.287 160.196 199.62C160.436 198.953 160.769 198.38 161.196 197.9C161.623 197.407 162.143 197.027 162.756 196.76C163.383 196.48 164.076 196.34 164.836 196.34C165.303 196.34 165.769 196.38 166.236 196.46C166.703 196.54 167.149 196.667 167.576 196.84L167.156 198.42C166.876 198.287 166.549 198.18 166.176 198.1C165.816 198.02 165.429 197.98 165.016 197.98C163.976 197.98 163.176 198.307 162.616 198.96C162.069 199.613 161.796 200.567 161.796 201.82C161.796 202.38 161.856 202.893 161.976 203.36C162.109 203.827 162.309 204.227 162.576 204.56C162.856 204.893 163.209 205.153 163.636 205.34C164.063 205.513 164.583 205.6 165.196 205.6C165.689 205.6 166.136 205.553 166.536 205.46C166.936 205.367 167.249 205.267 167.476 205.16L167.736 206.72C167.629 206.787 167.476 206.853 167.276 206.92C167.076 206.973 166.849 207.02 166.596 207.06C166.343 207.113 166.069 207.153 165.776 207.18C165.496 207.22 165.223 207.24 164.956 207.24ZM173.493 201.28C173.893 201.587 174.313 201.967 174.753 202.42C175.206 202.873 175.646 203.367 176.073 203.9C176.513 204.42 176.926 204.953 177.313 205.5C177.699 206.033 178.026 206.533 178.293 207H176.113C175.833 206.533 175.506 206.06 175.133 205.58C174.773 205.087 174.393 204.62 173.993 204.18C173.593 203.727 173.186 203.313 172.773 202.94C172.359 202.567 171.966 202.253 171.593 202V207H169.733V191.8L171.593 191.48V200.96C171.913 200.64 172.266 200.287 172.653 199.9C173.039 199.513 173.419 199.12 173.793 198.72C174.166 198.32 174.519 197.94 174.853 197.58C175.186 197.207 175.473 196.88 175.713 196.6H177.893C177.586 196.933 177.253 197.3 176.893 197.7C176.533 198.1 176.159 198.507 175.773 198.92C175.386 199.32 174.993 199.727 174.593 200.14C174.206 200.54 173.839 200.92 173.493 201.28Z" fill="#42454A"/>
<path d="M20.5234 175.137L37.2105 185.396L35.887 186.877L20.0477 177.138L1.87242 188.319V210.687C7.9288 214.41 13.9913 218.139 20.0477 221.862L38.229 210.681V194.394L22.9081 212.435L11.6675 195.946L22.9081 202.495L49 181.712L40.0953 192.198V211.253C40.0953 211.649 39.8819 211.987 39.5708 212.149L20.5173 223.869C20.2123 224.051 19.8525 224.038 19.5719 223.863C13.2045 219.945 6.84317 216.028 0.475728 212.11C0.176873 211.928 0.00609908 211.597 0.00609908 211.253L0 187.747C0 187.351 0.219567 187.013 0.53062 186.851L19.5841 175.131C19.883 174.949 20.2428 174.962 20.5234 175.137Z" fill="#42454A"/>
<path d="M74.68 289.3C73.7067 289.3 72.82 289.14 72.02 288.82C71.22 288.5 70.5333 288.033 69.96 287.42C69.3867 286.807 68.94 286.053 68.62 285.16C68.3133 284.253 68.16 283.22 68.16 282.06C68.16 280.9 68.3333 279.873 68.68 278.98C69.04 278.073 69.52 277.313 70.12 276.7C70.72 276.087 71.42 275.62 72.22 275.3C73.02 274.98 73.8733 274.82 74.78 274.82C75.3533 274.82 75.8667 274.86 76.32 274.94C76.7867 275.02 77.1867 275.113 77.52 275.22C77.8667 275.327 78.1467 275.433 78.36 275.54C78.5733 275.647 78.72 275.727 78.8 275.78L78.24 277.38C78.12 277.3 77.9467 277.213 77.72 277.12C77.4933 277.027 77.2333 276.933 76.94 276.84C76.66 276.747 76.3467 276.673 76 276.62C75.6667 276.553 75.3267 276.52 74.98 276.52C74.2467 276.52 73.5867 276.647 73 276.9C72.4133 277.153 71.9133 277.52 71.5 278C71.0867 278.48 70.7667 279.067 70.54 279.76C70.3267 280.44 70.22 281.207 70.22 282.06C70.22 282.887 70.3133 283.64 70.5 284.32C70.7 285 70.9933 285.587 71.38 286.08C71.7667 286.56 72.2467 286.933 72.82 287.2C73.4067 287.467 74.0867 287.6 74.86 287.6C75.7533 287.6 76.4933 287.507 77.08 287.32C77.6667 287.133 78.1067 286.967 78.4 286.82L78.9 288.42C78.8067 288.487 78.64 288.573 78.4 288.68C78.16 288.773 77.86 288.867 77.5 288.96C77.14 289.053 76.72 289.133 76.24 289.2C75.76 289.267 75.24 289.3 74.68 289.3ZM84.5223 287.66C84.9623 287.66 85.349 287.653 85.6823 287.64C86.029 287.613 86.3157 287.573 86.5423 287.52V284.42C86.409 284.353 86.189 284.3 85.8823 284.26C85.589 284.207 85.229 284.18 84.8023 284.18C84.5223 284.18 84.2223 284.2 83.9023 284.24C83.5957 284.28 83.309 284.367 83.0423 284.5C82.789 284.62 82.5757 284.793 82.4023 285.02C82.229 285.233 82.1423 285.52 82.1423 285.88C82.1423 286.547 82.3557 287.013 82.7823 287.28C83.209 287.533 83.789 287.66 84.5223 287.66ZM84.3623 278.34C85.109 278.34 85.7357 278.44 86.2423 278.64C86.7623 278.827 87.1757 279.1 87.4823 279.46C87.8023 279.807 88.029 280.227 88.1623 280.72C88.2957 281.2 88.3623 281.733 88.3623 282.32V288.82C88.2023 288.847 87.9757 288.887 87.6823 288.94C87.4023 288.98 87.0823 289.02 86.7223 289.06C86.3623 289.1 85.969 289.133 85.5423 289.16C85.129 289.2 84.7157 289.22 84.3023 289.22C83.7157 289.22 83.1757 289.16 82.6823 289.04C82.189 288.92 81.7623 288.733 81.4023 288.48C81.0423 288.213 80.7623 287.867 80.5623 287.44C80.3623 287.013 80.2623 286.5 80.2623 285.9C80.2623 285.327 80.3757 284.833 80.6023 284.42C80.8423 284.007 81.1623 283.673 81.5623 283.42C81.9623 283.167 82.429 282.98 82.9623 282.86C83.4957 282.74 84.0557 282.68 84.6423 282.68C84.829 282.68 85.0223 282.693 85.2223 282.72C85.4223 282.733 85.609 282.76 85.7823 282.8C85.969 282.827 86.129 282.853 86.2623 282.88C86.3957 282.907 86.489 282.927 86.5423 282.94V282.42C86.5423 282.113 86.509 281.813 86.4423 281.52C86.3757 281.213 86.2557 280.947 86.0823 280.72C85.909 280.48 85.669 280.293 85.3623 280.16C85.069 280.013 84.6823 279.94 84.2023 279.94C83.589 279.94 83.049 279.987 82.5823 280.08C82.129 280.16 81.789 280.247 81.5623 280.34L81.3423 278.8C81.5823 278.693 81.9823 278.593 82.5423 278.5C83.1023 278.393 83.709 278.34 84.3623 278.34ZM98.6716 283.82C98.6716 282.607 98.3716 281.673 97.7716 281.02C97.1716 280.367 96.3716 280.04 95.3716 280.04C94.8116 280.04 94.3716 280.06 94.0516 280.1C93.7449 280.14 93.4982 280.187 93.3116 280.24V286.8C93.5382 286.987 93.8649 287.167 94.2916 287.34C94.7182 287.513 95.1849 287.6 95.6916 287.6C96.2249 287.6 96.6782 287.507 97.0516 287.32C97.4382 287.12 97.7516 286.853 97.9916 286.52C98.2316 286.173 98.4049 285.773 98.5116 285.32C98.6182 284.853 98.6716 284.353 98.6716 283.82ZM100.612 283.82C100.612 284.607 100.505 285.333 100.292 286C100.092 286.667 99.7916 287.24 99.3916 287.72C98.9916 288.2 98.4982 288.573 97.9116 288.84C97.3382 289.107 96.6782 289.24 95.9316 289.24C95.3316 289.24 94.7982 289.16 94.3316 289C93.8782 288.84 93.5382 288.687 93.3116 288.54V292.7H91.4516V278.92C91.8916 278.813 92.4382 278.7 93.0916 278.58C93.7582 278.447 94.5249 278.38 95.3916 278.38C96.1916 278.38 96.9116 278.507 97.5516 278.76C98.1916 279.013 98.7382 279.373 99.1916 279.84C99.6449 280.307 99.9916 280.88 100.232 281.56C100.485 282.227 100.612 282.98 100.612 283.82ZM106.749 287.66C107.189 287.66 107.576 287.653 107.909 287.64C108.256 287.613 108.542 287.573 108.769 287.52V284.42C108.636 284.353 108.416 284.3 108.109 284.26C107.816 284.207 107.456 284.18 107.029 284.18C106.749 284.18 106.449 284.2 106.129 284.24C105.822 284.28 105.536 284.367 105.269 284.5C105.016 284.62 104.802 284.793 104.629 285.02C104.456 285.233 104.369 285.52 104.369 285.88C104.369 286.547 104.582 287.013 105.009 287.28C105.436 287.533 106.016 287.66 106.749 287.66ZM106.589 278.34C107.336 278.34 107.962 278.44 108.469 278.64C108.989 278.827 109.402 279.1 109.709 279.46C110.029 279.807 110.256 280.227 110.389 280.72C110.522 281.2 110.589 281.733 110.589 282.32V288.82C110.429 288.847 110.202 288.887 109.909 288.94C109.629 288.98 109.309 289.02 108.949 289.06C108.589 289.1 108.196 289.133 107.769 289.16C107.356 289.2 106.942 289.22 106.529 289.22C105.942 289.22 105.402 289.16 104.909 289.04C104.416 288.92 103.989 288.733 103.629 288.48C103.269 288.213 102.989 287.867 102.789 287.44C102.589 287.013 102.489 286.5 102.489 285.9C102.489 285.327 102.602 284.833 102.829 284.42C103.069 284.007 103.389 283.673 103.789 283.42C104.189 283.167 104.656 282.98 105.189 282.86C105.722 282.74 106.282 282.68 106.869 282.68C107.056 282.68 107.249 282.693 107.449 282.72C107.649 282.733 107.836 282.76 108.009 282.8C108.196 282.827 108.356 282.853 108.489 282.88C108.622 282.907 108.716 282.927 108.769 282.94V282.42C108.769 282.113 108.736 281.813 108.669 281.52C108.602 281.213 108.482 280.947 108.309 280.72C108.136 280.48 107.896 280.293 107.589 280.16C107.296 280.013 106.909 279.94 106.429 279.94C105.816 279.94 105.276 279.987 104.809 280.08C104.356 280.16 104.016 280.247 103.789 280.34L103.569 278.8C103.809 278.693 104.209 278.593 104.769 278.5C105.329 278.393 105.936 278.34 106.589 278.34ZM118.198 289.24C117.358 289.24 116.618 289.107 115.978 288.84C115.351 288.573 114.818 288.2 114.378 287.72C113.951 287.24 113.631 286.673 113.418 286.02C113.205 285.353 113.098 284.62 113.098 283.82C113.098 283.02 113.211 282.287 113.438 281.62C113.678 280.953 114.011 280.38 114.438 279.9C114.865 279.407 115.385 279.027 115.998 278.76C116.625 278.48 117.318 278.34 118.078 278.34C118.545 278.34 119.011 278.38 119.478 278.46C119.945 278.54 120.391 278.667 120.818 278.84L120.398 280.42C120.118 280.287 119.791 280.18 119.418 280.1C119.058 280.02 118.671 279.98 118.258 279.98C117.218 279.98 116.418 280.307 115.858 280.96C115.311 281.613 115.038 282.567 115.038 283.82C115.038 284.38 115.098 284.893 115.218 285.36C115.351 285.827 115.551 286.227 115.818 286.56C116.098 286.893 116.451 287.153 116.878 287.34C117.305 287.513 117.825 287.6 118.438 287.6C118.931 287.6 119.378 287.553 119.778 287.46C120.178 287.367 120.491 287.267 120.718 287.16L120.978 288.72C120.871 288.787 120.718 288.853 120.518 288.92C120.318 288.973 120.091 289.02 119.838 289.06C119.585 289.113 119.311 289.153 119.018 289.18C118.738 289.22 118.465 289.24 118.198 289.24ZM124.835 289H122.975V278.6H124.835V289ZM123.895 276.72C123.562 276.72 123.275 276.613 123.035 276.4C122.808 276.173 122.695 275.873 122.695 275.5C122.695 275.127 122.808 274.833 123.035 274.62C123.275 274.393 123.562 274.28 123.895 274.28C124.228 274.28 124.508 274.393 124.735 274.62C124.975 274.833 125.095 275.127 125.095 275.5C125.095 275.873 124.975 276.173 124.735 276.4C124.508 276.613 124.228 276.72 123.895 276.72ZM129.774 278.6H133.714V280.16H129.774V284.96C129.774 285.48 129.814 285.913 129.894 286.26C129.974 286.593 130.094 286.86 130.254 287.06C130.414 287.247 130.614 287.38 130.854 287.46C131.094 287.54 131.374 287.58 131.694 287.58C132.254 287.58 132.7 287.52 133.034 287.4C133.38 287.267 133.62 287.173 133.754 287.12L134.114 288.66C133.927 288.753 133.6 288.867 133.134 289C132.667 289.147 132.134 289.22 131.534 289.22C130.827 289.22 130.24 289.133 129.774 288.96C129.32 288.773 128.954 288.5 128.674 288.14C128.394 287.78 128.194 287.34 128.074 286.82C127.967 286.287 127.914 285.673 127.914 284.98V275.7L129.774 275.38V278.6ZM134.86 290.94C135.007 291.007 135.194 291.067 135.42 291.12C135.66 291.187 135.894 291.22 136.12 291.22C136.854 291.22 137.427 291.053 137.84 290.72C138.254 290.4 138.627 289.873 138.96 289.14C138.12 287.54 137.334 285.847 136.6 284.06C135.88 282.26 135.28 280.44 134.8 278.6H136.8C136.947 279.2 137.12 279.847 137.32 280.54C137.534 281.233 137.767 281.947 138.02 282.68C138.274 283.413 138.547 284.147 138.84 284.88C139.134 285.613 139.44 286.32 139.76 287C140.267 285.6 140.707 284.213 141.08 282.84C141.454 281.467 141.807 280.053 142.14 278.6H144.06C143.58 280.56 143.047 282.447 142.46 284.26C141.874 286.06 141.24 287.747 140.56 289.32C140.294 289.92 140.014 290.433 139.72 290.86C139.44 291.3 139.127 291.66 138.78 291.94C138.434 292.22 138.04 292.427 137.6 292.56C137.174 292.693 136.687 292.76 136.14 292.76C135.994 292.76 135.84 292.747 135.68 292.72C135.52 292.707 135.36 292.68 135.2 292.64C135.054 292.613 134.914 292.58 134.78 292.54C134.66 292.5 134.574 292.467 134.52 292.44L134.86 290.94ZM152.851 287.92C152.851 288.28 152.731 288.593 152.491 288.86C152.251 289.127 151.924 289.26 151.511 289.26C151.097 289.26 150.771 289.127 150.531 288.86C150.291 288.593 150.171 288.28 150.171 287.92C150.171 287.56 150.291 287.247 150.531 286.98C150.771 286.713 151.097 286.58 151.511 286.58C151.924 286.58 152.251 286.713 152.491 286.98C152.731 287.247 152.851 287.56 152.851 287.92ZM152.851 279.94C152.851 280.3 152.731 280.613 152.491 280.88C152.251 281.147 151.924 281.28 151.511 281.28C151.097 281.28 150.771 281.147 150.531 280.88C150.291 280.613 150.171 280.3 150.171 279.94C150.171 279.58 150.291 279.267 150.531 279C150.771 278.733 151.097 278.6 151.511 278.6C151.924 278.6 152.251 278.733 152.491 279C152.731 279.267 152.851 279.58 152.851 279.94ZM159.402 284.2C159.655 283.613 160.002 282.933 160.442 282.16C160.882 281.373 161.375 280.567 161.922 279.74C162.482 278.913 163.075 278.1 163.702 277.3C164.342 276.5 164.982 275.78 165.622 275.14H167.402V283.94H169.042V285.46H167.402V289H165.602V285.46H159.402V284.2ZM165.602 277.34C165.202 277.767 164.795 278.247 164.382 278.78C163.982 279.3 163.588 279.847 163.202 280.42C162.815 280.993 162.448 281.58 162.102 282.18C161.768 282.78 161.468 283.367 161.202 283.94H165.602V277.34ZM173.871 280.48C175.884 280.56 177.357 281 178.291 281.8C179.237 282.6 179.711 283.687 179.711 285.06C179.711 285.673 179.604 286.24 179.391 286.76C179.191 287.28 178.877 287.727 178.451 288.1C178.037 288.473 177.511 288.767 176.871 288.98C176.231 289.193 175.471 289.3 174.591 289.3C174.244 289.3 173.891 289.273 173.531 289.22C173.171 289.167 172.837 289.1 172.531 289.02C172.224 288.94 171.951 288.86 171.711 288.78C171.471 288.7 171.297 288.633 171.191 288.58L171.551 286.96C171.777 287.067 172.144 287.207 172.651 287.38C173.171 287.553 173.804 287.64 174.551 287.64C175.151 287.64 175.651 287.573 176.051 287.44C176.464 287.307 176.797 287.127 177.051 286.9C177.304 286.673 177.484 286.413 177.591 286.12C177.711 285.813 177.771 285.493 177.771 285.16C177.771 284.653 177.684 284.207 177.511 283.82C177.337 283.42 177.031 283.087 176.591 282.82C176.151 282.553 175.564 282.353 174.831 282.22C174.097 282.073 173.171 282 172.051 282C172.131 281.347 172.191 280.733 172.231 280.16C172.284 279.587 172.331 279.027 172.371 278.48C172.411 277.933 172.444 277.393 172.471 276.86C172.497 276.313 172.524 275.74 172.551 275.14H179.231V276.72H174.171C174.157 276.92 174.137 277.193 174.111 277.54C174.084 277.873 174.057 278.227 174.031 278.6C174.004 278.96 173.977 279.313 173.951 279.66C173.924 280.007 173.897 280.28 173.871 280.48ZM185.9 289.2C184.753 289.173 183.94 288.927 183.46 288.46C182.98 287.993 182.74 287.267 182.74 286.28V273.8L184.6 273.48V285.98C184.6 286.287 184.626 286.54 184.68 286.74C184.733 286.94 184.82 287.1 184.94 287.22C185.06 287.34 185.22 287.433 185.42 287.5C185.62 287.553 185.866 287.6 186.16 287.64L185.9 289.2ZM190.108 279.06C190.335 278.913 190.675 278.76 191.128 278.6C191.595 278.44 192.128 278.36 192.728 278.36C193.475 278.36 194.135 278.493 194.708 278.76C195.295 279.027 195.788 279.4 196.188 279.88C196.588 280.36 196.888 280.933 197.088 281.6C197.302 282.267 197.408 283 197.408 283.8C197.408 284.64 197.282 285.4 197.028 286.08C196.788 286.747 196.442 287.313 195.988 287.78C195.535 288.247 194.988 288.607 194.348 288.86C193.708 289.113 192.988 289.24 192.188 289.24C191.322 289.24 190.555 289.18 189.888 289.06C189.222 288.94 188.675 288.82 188.248 288.7V273.8L190.108 273.48V279.06ZM190.108 287.38C190.295 287.433 190.555 287.487 190.888 287.54C191.235 287.58 191.662 287.6 192.168 287.6C193.168 287.6 193.968 287.273 194.568 286.62C195.168 285.953 195.468 285.013 195.468 283.8C195.468 283.267 195.415 282.767 195.308 282.3C195.202 281.833 195.028 281.433 194.788 281.1C194.548 280.753 194.235 280.487 193.848 280.3C193.475 280.1 193.022 280 192.488 280C191.982 280 191.515 280.087 191.088 280.26C190.662 280.433 190.335 280.613 190.108 280.8V287.38ZM202.446 287.66C203.206 287.66 203.766 287.56 204.126 287.36C204.499 287.16 204.686 286.84 204.686 286.4C204.686 285.947 204.506 285.587 204.146 285.32C203.786 285.053 203.192 284.753 202.366 284.42C201.966 284.26 201.579 284.1 201.206 283.94C200.846 283.767 200.532 283.567 200.266 283.34C199.999 283.113 199.786 282.84 199.626 282.52C199.466 282.2 199.386 281.807 199.386 281.34C199.386 280.42 199.726 279.693 200.406 279.16C201.086 278.613 202.012 278.34 203.186 278.34C203.479 278.34 203.772 278.36 204.066 278.4C204.359 278.427 204.632 278.467 204.886 278.52C205.139 278.56 205.359 278.607 205.546 278.66C205.746 278.713 205.899 278.76 206.006 278.8L205.666 280.4C205.466 280.293 205.152 280.187 204.726 280.08C204.299 279.96 203.786 279.9 203.186 279.9C202.666 279.9 202.212 280.007 201.826 280.22C201.439 280.42 201.246 280.74 201.246 281.18C201.246 281.407 201.286 281.607 201.366 281.78C201.459 281.953 201.592 282.113 201.766 282.26C201.952 282.393 202.179 282.52 202.446 282.64C202.712 282.76 203.032 282.887 203.406 283.02C203.899 283.207 204.339 283.393 204.726 283.58C205.112 283.753 205.439 283.96 205.706 284.2C205.986 284.44 206.199 284.733 206.346 285.08C206.492 285.413 206.566 285.827 206.566 286.32C206.566 287.28 206.206 288.007 205.486 288.5C204.779 288.993 203.766 289.24 202.446 289.24C201.526 289.24 200.806 289.16 200.286 289C199.766 288.853 199.412 288.74 199.226 288.66L199.566 287.06C199.779 287.14 200.119 287.26 200.586 287.42C201.052 287.58 201.672 287.66 202.446 287.66Z" fill="#42454A"/>
<path d="M20.5234 257.137L37.2105 267.396L35.887 268.877L20.0477 259.138L1.87242 270.319V292.687C7.9288 296.41 13.9913 300.139 20.0477 303.862L38.229 292.681V276.394L22.9081 294.435L11.6675 277.946L22.9081 284.495L49 263.712L40.0953 274.198V293.253C40.0953 293.649 39.8819 293.987 39.5708 294.149L20.5173 305.869C20.2123 306.051 19.8525 306.038 19.5719 305.863C13.2045 301.945 6.84317 298.028 0.475728 294.11C0.176873 293.928 0.00609908 293.597 0.00609908 293.253L0 269.747C0 269.351 0.219567 269.013 0.53062 268.851L19.5841 257.131C19.883 256.949 20.2428 256.962 20.5234 257.137Z" fill="#42454A"/>
<path d="M68.72 371V357.14H77.18V358.8H70.66V362.92H76.46V364.54H70.66V369.34H77.68V371H68.72ZM83.5458 369.66C83.9858 369.66 84.3724 369.653 84.7058 369.64C85.0524 369.613 85.3391 369.573 85.5658 369.52V366.42C85.4324 366.353 85.2124 366.3 84.9058 366.26C84.6124 366.207 84.2524 366.18 83.8258 366.18C83.5458 366.18 83.2458 366.2 82.9258 366.24C82.6191 366.28 82.3324 366.367 82.0658 366.5C81.8124 366.62 81.5991 366.793 81.4258 367.02C81.2524 367.233 81.1658 367.52 81.1658 367.88C81.1658 368.547 81.3791 369.013 81.8058 369.28C82.2324 369.533 82.8124 369.66 83.5458 369.66ZM83.3858 360.34C84.1324 360.34 84.7591 360.44 85.2658 360.64C85.7858 360.827 86.1991 361.1 86.5058 361.46C86.8258 361.807 87.0524 362.227 87.1858 362.72C87.3191 363.2 87.3858 363.733 87.3858 364.32V370.82C87.2258 370.847 86.9991 370.887 86.7058 370.94C86.4258 370.98 86.1058 371.02 85.7458 371.06C85.3858 371.1 84.9924 371.133 84.5658 371.16C84.1524 371.2 83.7391 371.22 83.3258 371.22C82.7391 371.22 82.1991 371.16 81.7058 371.04C81.2124 370.92 80.7858 370.733 80.4258 370.48C80.0658 370.213 79.7858 369.867 79.5858 369.44C79.3858 369.013 79.2858 368.5 79.2858 367.9C79.2858 367.327 79.3991 366.833 79.6258 366.42C79.8658 366.007 80.1858 365.673 80.5858 365.42C80.9858 365.167 81.4524 364.98 81.9858 364.86C82.5191 364.74 83.0791 364.68 83.6658 364.68C83.8524 364.68 84.0458 364.693 84.2458 364.72C84.4458 364.733 84.6324 364.76 84.8058 364.8C84.9924 364.827 85.1524 364.853 85.2858 364.88C85.4191 364.907 85.5124 364.927 85.5658 364.94V364.42C85.5658 364.113 85.5324 363.813 85.4658 363.52C85.3991 363.213 85.2791 362.947 85.1058 362.72C84.9324 362.48 84.6924 362.293 84.3858 362.16C84.0924 362.013 83.7058 361.94 83.2258 361.94C82.6124 361.94 82.0724 361.987 81.6058 362.08C81.1524 362.16 80.8124 362.247 80.5858 362.34L80.3658 360.8C80.6058 360.693 81.0058 360.593 81.5658 360.5C82.1258 360.393 82.7324 360.34 83.3858 360.34ZM92.895 369.66C93.655 369.66 94.215 369.56 94.575 369.36C94.9483 369.16 95.135 368.84 95.135 368.4C95.135 367.947 94.955 367.587 94.595 367.32C94.235 367.053 93.6417 366.753 92.815 366.42C92.415 366.26 92.0283 366.1 91.655 365.94C91.295 365.767 90.9817 365.567 90.715 365.34C90.4483 365.113 90.235 364.84 90.075 364.52C89.915 364.2 89.835 363.807 89.835 363.34C89.835 362.42 90.175 361.693 90.855 361.16C91.535 360.613 92.4617 360.34 93.635 360.34C93.9283 360.34 94.2217 360.36 94.515 360.4C94.8083 360.427 95.0817 360.467 95.335 360.52C95.5883 360.56 95.8083 360.607 95.995 360.66C96.195 360.713 96.3483 360.76 96.455 360.8L96.115 362.4C95.915 362.293 95.6017 362.187 95.175 362.08C94.7483 361.96 94.235 361.9 93.635 361.9C93.115 361.9 92.6617 362.007 92.275 362.22C91.8883 362.42 91.695 362.74 91.695 363.18C91.695 363.407 91.735 363.607 91.815 363.78C91.9083 363.953 92.0417 364.113 92.215 364.26C92.4017 364.393 92.6283 364.52 92.895 364.64C93.1617 364.76 93.4817 364.887 93.855 365.02C94.3483 365.207 94.7883 365.393 95.175 365.58C95.5617 365.753 95.8883 365.96 96.155 366.2C96.435 366.44 96.6483 366.733 96.795 367.08C96.9417 367.413 97.015 367.827 97.015 368.32C97.015 369.28 96.655 370.007 95.935 370.5C95.2283 370.993 94.215 371.24 92.895 371.24C91.975 371.24 91.255 371.16 90.735 371C90.215 370.853 89.8617 370.74 89.675 370.66L90.015 369.06C90.2283 369.14 90.5683 369.26 91.035 369.42C91.5017 369.58 92.1217 369.66 92.895 369.66ZM98.8208 365.82C98.8208 364.9 98.9541 364.1 99.2208 363.42C99.4874 362.727 99.8408 362.153 100.281 361.7C100.721 361.247 101.227 360.907 101.801 360.68C102.374 360.453 102.961 360.34 103.561 360.34C104.961 360.34 106.034 360.78 106.781 361.66C107.527 362.527 107.901 363.853 107.901 365.64C107.901 365.72 107.901 365.827 107.901 365.96C107.901 366.08 107.894 366.193 107.881 366.3H100.761C100.841 367.38 101.154 368.2 101.701 368.76C102.247 369.32 103.101 369.6 104.261 369.6C104.914 369.6 105.461 369.547 105.901 369.44C106.354 369.32 106.694 369.207 106.921 369.1L107.181 370.66C106.954 370.78 106.554 370.907 105.981 371.04C105.421 371.173 104.781 371.24 104.061 371.24C103.154 371.24 102.367 371.107 101.701 370.84C101.047 370.56 100.507 370.18 100.081 369.7C99.6541 369.22 99.3341 368.653 99.1208 368C98.9208 367.333 98.8208 366.607 98.8208 365.82ZM105.961 364.8C105.974 363.96 105.761 363.273 105.321 362.74C104.894 362.193 104.301 361.92 103.541 361.92C103.114 361.92 102.734 362.007 102.401 362.18C102.081 362.34 101.807 362.553 101.581 362.82C101.354 363.087 101.174 363.393 101.041 363.74C100.921 364.087 100.841 364.44 100.801 364.8H105.961ZM117.402 369.92C117.402 370.28 117.282 370.593 117.042 370.86C116.802 371.127 116.475 371.26 116.062 371.26C115.648 371.26 115.322 371.127 115.082 370.86C114.842 370.593 114.722 370.28 114.722 369.92C114.722 369.56 114.842 369.247 115.082 368.98C115.322 368.713 115.648 368.58 116.062 368.58C116.475 368.58 116.802 368.713 117.042 368.98C117.282 369.247 117.402 369.56 117.402 369.92ZM117.402 361.94C117.402 362.3 117.282 362.613 117.042 362.88C116.802 363.147 116.475 363.28 116.062 363.28C115.648 363.28 115.322 363.147 115.082 362.88C114.842 362.613 114.722 362.3 114.722 361.94C114.722 361.58 114.842 361.267 115.082 361C115.322 360.733 115.648 360.6 116.062 360.6C116.475 360.6 116.802 360.733 117.042 361C117.282 361.267 117.402 361.58 117.402 361.94ZM128.092 369.62C130.119 369.62 131.132 368.927 131.132 367.54C131.132 367.113 131.039 366.753 130.852 366.46C130.679 366.153 130.439 365.893 130.132 365.68C129.826 365.453 129.472 365.26 129.072 365.1C128.686 364.94 128.272 364.78 127.832 364.62C127.326 364.447 126.846 364.253 126.392 364.04C125.939 363.813 125.546 363.553 125.212 363.26C124.879 362.953 124.612 362.593 124.412 362.18C124.226 361.767 124.132 361.267 124.132 360.68C124.132 359.467 124.546 358.52 125.372 357.84C126.199 357.16 127.339 356.82 128.792 356.82C129.632 356.82 130.392 356.913 131.072 357.1C131.766 357.273 132.272 357.467 132.592 357.68L131.972 359.26C131.692 359.087 131.272 358.92 130.712 358.76C130.166 358.587 129.526 358.5 128.792 358.5C128.419 358.5 128.072 358.54 127.752 358.62C127.432 358.7 127.152 358.82 126.912 358.98C126.672 359.14 126.479 359.347 126.332 359.6C126.199 359.84 126.132 360.127 126.132 360.46C126.132 360.833 126.206 361.147 126.352 361.4C126.499 361.653 126.706 361.88 126.972 362.08C127.239 362.267 127.546 362.44 127.892 362.6C128.252 362.76 128.646 362.92 129.072 363.08C129.672 363.32 130.219 363.56 130.712 363.8C131.219 364.04 131.652 364.327 132.012 364.66C132.386 364.993 132.672 365.393 132.872 365.86C133.072 366.313 133.172 366.867 133.172 367.52C133.172 368.733 132.726 369.667 131.832 370.32C130.952 370.973 129.706 371.3 128.092 371.3C127.546 371.3 127.039 371.26 126.572 371.18C126.119 371.113 125.712 371.033 125.352 370.94C124.992 370.833 124.679 370.727 124.412 370.62C124.159 370.5 123.959 370.4 123.812 370.32L124.392 368.72C124.699 368.893 125.166 369.087 125.792 369.3C126.419 369.513 127.186 369.62 128.092 369.62ZM137.137 360.6H141.077V362.16H137.137V366.96C137.137 367.48 137.177 367.913 137.257 368.26C137.337 368.593 137.457 368.86 137.617 369.06C137.777 369.247 137.977 369.38 138.217 369.46C138.457 369.54 138.737 369.58 139.057 369.58C139.617 369.58 140.064 369.52 140.397 369.4C140.744 369.267 140.984 369.173 141.117 369.12L141.477 370.66C141.29 370.753 140.964 370.867 140.497 371C140.03 371.147 139.497 371.22 138.897 371.22C138.19 371.22 137.604 371.133 137.137 370.96C136.684 370.773 136.317 370.5 136.037 370.14C135.757 369.78 135.557 369.34 135.437 368.82C135.33 368.287 135.277 367.673 135.277 366.98V357.7L137.137 357.38V360.6ZM142.668 365.82C142.668 364.9 142.802 364.1 143.068 363.42C143.335 362.727 143.688 362.153 144.128 361.7C144.568 361.247 145.075 360.907 145.648 360.68C146.222 360.453 146.808 360.34 147.408 360.34C148.808 360.34 149.882 360.78 150.628 361.66C151.375 362.527 151.748 363.853 151.748 365.64C151.748 365.72 151.748 365.827 151.748 365.96C151.748 366.08 151.742 366.193 151.728 366.3H144.608C144.688 367.38 145.002 368.2 145.548 368.76C146.095 369.32 146.948 369.6 148.108 369.6C148.762 369.6 149.308 369.547 149.748 369.44C150.202 369.32 150.542 369.207 150.768 369.1L151.028 370.66C150.802 370.78 150.402 370.907 149.828 371.04C149.268 371.173 148.628 371.24 147.908 371.24C147.002 371.24 146.215 371.107 145.548 370.84C144.895 370.56 144.355 370.18 143.928 369.7C143.502 369.22 143.182 368.653 142.968 368C142.768 367.333 142.668 366.607 142.668 365.82ZM149.808 364.8C149.822 363.96 149.608 363.273 149.168 362.74C148.742 362.193 148.148 361.92 147.388 361.92C146.962 361.92 146.582 362.007 146.248 362.18C145.928 362.34 145.655 362.553 145.428 362.82C145.202 363.087 145.022 363.393 144.888 363.74C144.768 364.087 144.688 364.44 144.648 364.8H149.808ZM157.94 369.66C158.38 369.66 158.767 369.653 159.1 369.64C159.447 369.613 159.734 369.573 159.96 369.52V366.42C159.827 366.353 159.607 366.3 159.3 366.26C159.007 366.207 158.647 366.18 158.22 366.18C157.94 366.18 157.64 366.2 157.32 366.24C157.014 366.28 156.727 366.367 156.46 366.5C156.207 366.62 155.994 366.793 155.82 367.02C155.647 367.233 155.56 367.52 155.56 367.88C155.56 368.547 155.774 369.013 156.2 369.28C156.627 369.533 157.207 369.66 157.94 369.66ZM157.78 360.34C158.527 360.34 159.154 360.44 159.66 360.64C160.18 360.827 160.594 361.1 160.9 361.46C161.22 361.807 161.447 362.227 161.58 362.72C161.714 363.2 161.78 363.733 161.78 364.32V370.82C161.62 370.847 161.394 370.887 161.1 370.94C160.82 370.98 160.5 371.02 160.14 371.06C159.78 371.1 159.387 371.133 158.96 371.16C158.547 371.2 158.134 371.22 157.72 371.22C157.134 371.22 156.594 371.16 156.1 371.04C155.607 370.92 155.18 370.733 154.82 370.48C154.46 370.213 154.18 369.867 153.98 369.44C153.78 369.013 153.68 368.5 153.68 367.9C153.68 367.327 153.794 366.833 154.02 366.42C154.26 366.007 154.58 365.673 154.98 365.42C155.38 365.167 155.847 364.98 156.38 364.86C156.914 364.74 157.474 364.68 158.06 364.68C158.247 364.68 158.44 364.693 158.64 364.72C158.84 364.733 159.027 364.76 159.2 364.8C159.387 364.827 159.547 364.853 159.68 364.88C159.814 364.907 159.907 364.927 159.96 364.94V364.42C159.96 364.113 159.927 363.813 159.86 363.52C159.794 363.213 159.674 362.947 159.5 362.72C159.327 362.48 159.087 362.293 158.78 362.16C158.487 362.013 158.1 361.94 157.62 361.94C157.007 361.94 156.467 361.987 156 362.08C155.547 362.16 155.207 362.247 154.98 362.34L154.76 360.8C155 360.693 155.4 360.593 155.96 360.5C156.52 360.393 157.127 360.34 157.78 360.34ZM171.59 362.8C171.363 362.613 171.036 362.433 170.61 362.26C170.183 362.087 169.716 362 169.21 362C168.676 362 168.216 362.1 167.83 362.3C167.456 362.487 167.15 362.753 166.91 363.1C166.67 363.433 166.496 363.833 166.39 364.3C166.283 364.767 166.23 365.267 166.23 365.8C166.23 367.013 166.53 367.953 167.13 368.62C167.73 369.273 168.53 369.6 169.53 369.6C170.036 369.6 170.456 369.58 170.79 369.54C171.136 369.487 171.403 369.433 171.59 369.38V362.8ZM171.59 355.8L173.45 355.48V370.7C173.023 370.82 172.476 370.94 171.81 371.06C171.143 371.18 170.376 371.24 169.51 371.24C168.71 371.24 167.99 371.113 167.35 370.86C166.71 370.607 166.163 370.247 165.71 369.78C165.256 369.313 164.903 368.747 164.65 368.08C164.41 367.4 164.29 366.64 164.29 365.8C164.29 365 164.39 364.267 164.59 363.6C164.803 362.933 165.11 362.36 165.51 361.88C165.91 361.4 166.396 361.027 166.97 360.76C167.556 360.493 168.223 360.36 168.97 360.36C169.57 360.36 170.096 360.44 170.55 360.6C171.016 360.76 171.363 360.913 171.59 361.06V355.8ZM175.427 372.94C175.574 373.007 175.76 373.067 175.987 373.12C176.227 373.187 176.46 373.22 176.687 373.22C177.42 373.22 177.994 373.053 178.407 372.72C178.82 372.4 179.194 371.873 179.527 371.14C178.687 369.54 177.9 367.847 177.167 366.06C176.447 364.26 175.847 362.44 175.367 360.6H177.367C177.514 361.2 177.687 361.847 177.887 362.54C178.1 363.233 178.334 363.947 178.587 364.68C178.84 365.413 179.114 366.147 179.407 366.88C179.7 367.613 180.007 368.32 180.327 369C180.834 367.6 181.274 366.213 181.647 364.84C182.02 363.467 182.374 362.053 182.707 360.6H184.627C184.147 362.56 183.614 364.447 183.027 366.26C182.44 368.06 181.807 369.747 181.127 371.32C180.86 371.92 180.58 372.433 180.287 372.86C180.007 373.3 179.694 373.66 179.347 373.94C179 374.22 178.607 374.427 178.167 374.56C177.74 374.693 177.254 374.76 176.707 374.76C176.56 374.76 176.407 374.747 176.247 374.72C176.087 374.707 175.927 374.68 175.767 374.64C175.62 374.613 175.48 374.58 175.347 374.54C175.227 374.5 175.14 374.467 175.087 374.44L175.427 372.94ZM190.537 367.32C190.537 366.8 190.617 366.34 190.777 365.94C190.937 365.527 191.151 365.16 191.417 364.84C191.697 364.507 192.017 364.22 192.377 363.98C192.737 363.727 193.111 363.507 193.497 363.32C192.511 362.333 192.017 361.313 192.017 360.26C192.017 359.727 192.104 359.247 192.277 358.82C192.464 358.393 192.711 358.033 193.017 357.74C193.337 357.447 193.711 357.22 194.137 357.06C194.577 356.9 195.057 356.82 195.577 356.82C196.111 356.82 196.584 356.9 196.997 357.06C197.424 357.22 197.777 357.433 198.057 357.7C198.351 357.967 198.571 358.287 198.717 358.66C198.864 359.033 198.937 359.427 198.937 359.84C198.937 360.307 198.857 360.727 198.697 361.1C198.551 361.473 198.344 361.813 198.077 362.12C197.824 362.427 197.531 362.707 197.197 362.96C196.864 363.213 196.511 363.44 196.137 363.64L199.377 366.94C199.831 366.1 200.124 365.167 200.257 364.14L201.797 364.34C201.744 364.887 201.604 365.487 201.377 366.14C201.164 366.78 200.857 367.42 200.457 368.06C200.924 368.567 201.351 369.067 201.737 369.56C202.137 370.053 202.464 370.533 202.717 371H200.757C200.597 370.733 200.397 370.46 200.157 370.18C199.931 369.9 199.691 369.62 199.437 369.34C198.891 369.887 198.257 370.333 197.537 370.68C196.817 371.013 195.991 371.18 195.057 371.18C194.191 371.18 193.471 371.06 192.897 370.82C192.324 370.567 191.857 370.253 191.497 369.88C191.151 369.493 190.904 369.073 190.757 368.62C190.611 368.167 190.537 367.733 190.537 367.32ZM192.397 367.28C192.397 367.52 192.444 367.78 192.537 368.06C192.631 368.34 192.784 368.6 192.997 368.84C193.211 369.067 193.484 369.26 193.817 369.42C194.164 369.567 194.591 369.64 195.097 369.64C195.751 369.64 196.351 369.52 196.897 369.28C197.457 369.04 197.951 368.7 198.377 368.26L194.477 364.32C194.237 364.44 193.991 364.58 193.737 364.74C193.497 364.9 193.277 365.1 193.077 365.34C192.877 365.567 192.711 365.84 192.577 366.16C192.457 366.48 192.397 366.853 192.397 367.28ZM197.257 359.9C197.257 359.447 197.104 359.067 196.797 358.76C196.504 358.44 196.097 358.28 195.577 358.28C194.991 358.28 194.537 358.46 194.217 358.82C193.911 359.167 193.757 359.6 193.757 360.12C193.757 360.987 194.211 361.833 195.117 362.66C195.411 362.513 195.684 362.353 195.937 362.18C196.204 362.007 196.431 361.807 196.617 361.58C196.817 361.353 196.971 361.107 197.077 360.84C197.197 360.56 197.257 360.247 197.257 359.9ZM212.686 369.66C213.126 369.66 213.513 369.653 213.846 369.64C214.193 369.613 214.48 369.573 214.706 369.52V366.42C214.573 366.353 214.353 366.3 214.046 366.26C213.753 366.207 213.393 366.18 212.966 366.18C212.686 366.18 212.386 366.2 212.066 366.24C211.76 366.28 211.473 366.367 211.206 366.5C210.953 366.62 210.74 366.793 210.566 367.02C210.393 367.233 210.306 367.52 210.306 367.88C210.306 368.547 210.52 369.013 210.946 369.28C211.373 369.533 211.953 369.66 212.686 369.66ZM212.526 360.34C213.273 360.34 213.9 360.44 214.406 360.64C214.926 360.827 215.34 361.1 215.646 361.46C215.966 361.807 216.193 362.227 216.326 362.72C216.46 363.2 216.526 363.733 216.526 364.32V370.82C216.366 370.847 216.14 370.887 215.846 370.94C215.566 370.98 215.246 371.02 214.886 371.06C214.526 371.1 214.133 371.133 213.706 371.16C213.293 371.2 212.88 371.22 212.466 371.22C211.88 371.22 211.34 371.16 210.846 371.04C210.353 370.92 209.926 370.733 209.566 370.48C209.206 370.213 208.926 369.867 208.726 369.44C208.526 369.013 208.426 368.5 208.426 367.9C208.426 367.327 208.54 366.833 208.766 366.42C209.006 366.007 209.326 365.673 209.726 365.42C210.126 365.167 210.593 364.98 211.126 364.86C211.66 364.74 212.22 364.68 212.806 364.68C212.993 364.68 213.186 364.693 213.386 364.72C213.586 364.733 213.773 364.76 213.946 364.8C214.133 364.827 214.293 364.853 214.426 364.88C214.56 364.907 214.653 364.927 214.706 364.94V364.42C214.706 364.113 214.673 363.813 214.606 363.52C214.54 363.213 214.42 362.947 214.246 362.72C214.073 362.48 213.833 362.293 213.526 362.16C213.233 362.013 212.846 361.94 212.366 361.94C211.753 361.94 211.213 361.987 210.746 362.08C210.293 362.16 209.953 362.247 209.726 362.34L209.506 360.8C209.746 360.693 210.146 360.593 210.706 360.5C211.266 360.393 211.873 360.34 212.526 360.34ZM226.336 362.8C226.109 362.613 225.782 362.433 225.356 362.26C224.929 362.087 224.462 362 223.956 362C223.422 362 222.962 362.1 222.576 362.3C222.202 362.487 221.896 362.753 221.656 363.1C221.416 363.433 221.242 363.833 221.136 364.3C221.029 364.767 220.976 365.267 220.976 365.8C220.976 367.013 221.276 367.953 221.876 368.62C222.476 369.273 223.276 369.6 224.276 369.6C224.782 369.6 225.202 369.58 225.536 369.54C225.882 369.487 226.149 369.433 226.336 369.38V362.8ZM226.336 355.8L228.196 355.48V370.7C227.769 370.82 227.222 370.94 226.556 371.06C225.889 371.18 225.122 371.24 224.256 371.24C223.456 371.24 222.736 371.113 222.096 370.86C221.456 370.607 220.909 370.247 220.456 369.78C220.002 369.313 219.649 368.747 219.396 368.08C219.156 367.4 219.036 366.64 219.036 365.8C219.036 365 219.136 364.267 219.336 363.6C219.549 362.933 219.856 362.36 220.256 361.88C220.656 361.4 221.142 361.027 221.716 360.76C222.302 360.493 222.969 360.36 223.716 360.36C224.316 360.36 224.842 360.44 225.296 360.6C225.762 360.76 226.109 360.913 226.336 361.06V355.8ZM229.693 374.74C229.533 374.74 229.326 374.72 229.073 374.68C228.82 374.64 228.606 374.587 228.433 374.52L228.673 373C228.806 373.04 228.96 373.073 229.133 373.1C229.306 373.127 229.466 373.14 229.613 373.14C230.253 373.14 230.706 372.94 230.973 372.54C231.253 372.153 231.393 371.58 231.393 370.82V360.6H233.253V370.8C233.253 372.133 232.946 373.12 232.333 373.76C231.733 374.413 230.853 374.74 229.693 374.74ZM232.313 358.72C231.98 358.72 231.693 358.613 231.453 358.4C231.226 358.173 231.113 357.873 231.113 357.5C231.113 357.127 231.226 356.833 231.453 356.62C231.693 356.393 231.98 356.28 232.313 356.28C232.646 356.28 232.926 356.393 233.153 356.62C233.393 356.833 233.513 357.127 233.513 357.5C233.513 357.873 233.393 358.173 233.153 358.4C232.926 358.613 232.646 358.72 232.313 358.72ZM244.732 370.7C244.305 370.807 243.738 370.92 243.032 371.04C242.338 371.16 241.532 371.22 240.612 371.22C239.812 371.22 239.138 371.107 238.592 370.88C238.045 370.64 237.605 370.307 237.272 369.88C236.938 369.453 236.698 368.953 236.552 368.38C236.405 367.793 236.332 367.147 236.332 366.44V360.6H238.192V366.04C238.192 367.307 238.392 368.213 238.792 368.76C239.192 369.307 239.865 369.58 240.812 369.58C241.012 369.58 241.218 369.573 241.432 369.56C241.645 369.547 241.845 369.533 242.032 369.52C242.218 369.493 242.385 369.473 242.532 369.46C242.692 369.433 242.805 369.407 242.872 369.38V360.6H244.732V370.7ZM250.356 369.66C251.116 369.66 251.676 369.56 252.036 369.36C252.409 369.16 252.596 368.84 252.596 368.4C252.596 367.947 252.416 367.587 252.056 367.32C251.696 367.053 251.103 366.753 250.276 366.42C249.876 366.26 249.489 366.1 249.116 365.94C248.756 365.767 248.443 365.567 248.176 365.34C247.909 365.113 247.696 364.84 247.536 364.52C247.376 364.2 247.296 363.807 247.296 363.34C247.296 362.42 247.636 361.693 248.316 361.16C248.996 360.613 249.923 360.34 251.096 360.34C251.389 360.34 251.683 360.36 251.976 360.4C252.269 360.427 252.543 360.467 252.796 360.52C253.049 360.56 253.269 360.607 253.456 360.66C253.656 360.713 253.809 360.76 253.916 360.8L253.576 362.4C253.376 362.293 253.063 362.187 252.636 362.08C252.209 361.96 251.696 361.9 251.096 361.9C250.576 361.9 250.123 362.007 249.736 362.22C249.349 362.42 249.156 362.74 249.156 363.18C249.156 363.407 249.196 363.607 249.276 363.78C249.369 363.953 249.503 364.113 249.676 364.26C249.863 364.393 250.089 364.52 250.356 364.64C250.623 364.76 250.943 364.887 251.316 365.02C251.809 365.207 252.249 365.393 252.636 365.58C253.023 365.753 253.349 365.96 253.616 366.2C253.896 366.44 254.109 366.733 254.256 367.08C254.403 367.413 254.476 367.827 254.476 368.32C254.476 369.28 254.116 370.007 253.396 370.5C252.689 370.993 251.676 371.24 250.356 371.24C249.436 371.24 248.716 371.16 248.196 371C247.676 370.853 247.323 370.74 247.136 370.66L247.476 369.06C247.689 369.14 248.029 369.26 248.496 369.42C248.963 369.58 249.583 369.66 250.356 369.66ZM258.602 360.6H262.542V362.16H258.602V366.96C258.602 367.48 258.642 367.913 258.722 368.26C258.802 368.593 258.922 368.86 259.082 369.06C259.242 369.247 259.442 369.38 259.682 369.46C259.922 369.54 260.202 369.58 260.522 369.58C261.082 369.58 261.528 369.52 261.862 369.4C262.208 369.267 262.448 369.173 262.582 369.12L262.942 370.66C262.755 370.753 262.428 370.867 261.962 371C261.495 371.147 260.962 371.22 260.362 371.22C259.655 371.22 259.068 371.133 258.602 370.96C258.148 370.773 257.782 370.5 257.502 370.14C257.222 369.78 257.022 369.34 256.902 368.82C256.795 368.287 256.742 367.673 256.742 366.98V357.7L258.602 357.38V360.6ZM268.429 369.66C268.869 369.66 269.255 369.653 269.589 369.64C269.935 369.613 270.222 369.573 270.449 369.52V366.42C270.315 366.353 270.095 366.3 269.789 366.26C269.495 366.207 269.135 366.18 268.709 366.18C268.429 366.18 268.129 366.2 267.809 366.24C267.502 366.28 267.215 366.367 266.949 366.5C266.695 366.62 266.482 366.793 266.309 367.02C266.135 367.233 266.049 367.52 266.049 367.88C266.049 368.547 266.262 369.013 266.689 369.28C267.115 369.533 267.695 369.66 268.429 369.66ZM268.269 360.34C269.015 360.34 269.642 360.44 270.149 360.64C270.669 360.827 271.082 361.1 271.389 361.46C271.709 361.807 271.935 362.227 272.069 362.72C272.202 363.2 272.269 363.733 272.269 364.32V370.82C272.109 370.847 271.882 370.887 271.589 370.94C271.309 370.98 270.989 371.02 270.629 371.06C270.269 371.1 269.875 371.133 269.449 371.16C269.035 371.2 268.622 371.22 268.209 371.22C267.622 371.22 267.082 371.16 266.589 371.04C266.095 370.92 265.669 370.733 265.309 370.48C264.949 370.213 264.669 369.867 264.469 369.44C264.269 369.013 264.169 368.5 264.169 367.9C264.169 367.327 264.282 366.833 264.509 366.42C264.749 366.007 265.069 365.673 265.469 365.42C265.869 365.167 266.335 364.98 266.869 364.86C267.402 364.74 267.962 364.68 268.549 364.68C268.735 364.68 268.929 364.693 269.129 364.72C269.329 364.733 269.515 364.76 269.689 364.8C269.875 364.827 270.035 364.853 270.169 364.88C270.302 364.907 270.395 364.927 270.449 364.94V364.42C270.449 364.113 270.415 363.813 270.349 363.52C270.282 363.213 270.162 362.947 269.989 362.72C269.815 362.48 269.575 362.293 269.269 362.16C268.975 362.013 268.589 361.94 268.109 361.94C267.495 361.94 266.955 361.987 266.489 362.08C266.035 362.16 265.695 362.247 265.469 362.34L265.249 360.8C265.489 360.693 265.889 360.593 266.449 360.5C267.009 360.393 267.615 360.34 268.269 360.34ZM277.218 361.06C277.444 360.913 277.784 360.76 278.238 360.6C278.704 360.44 279.238 360.36 279.838 360.36C280.584 360.36 281.244 360.493 281.818 360.76C282.404 361.027 282.898 361.4 283.298 361.88C283.698 362.36 283.998 362.933 284.198 363.6C284.411 364.267 284.518 365 284.518 365.8C284.518 366.64 284.391 367.4 284.138 368.08C283.898 368.747 283.551 369.313 283.098 369.78C282.644 370.247 282.098 370.607 281.458 370.86C280.818 371.113 280.098 371.24 279.298 371.24C278.431 371.24 277.664 371.18 276.998 371.06C276.331 370.94 275.784 370.82 275.358 370.7V355.8L277.218 355.48V361.06ZM277.218 369.38C277.404 369.433 277.664 369.487 277.998 369.54C278.344 369.58 278.771 369.6 279.278 369.6C280.278 369.6 281.078 369.273 281.678 368.62C282.278 367.953 282.578 367.013 282.578 365.8C282.578 365.267 282.524 364.767 282.418 364.3C282.311 363.833 282.138 363.433 281.898 363.1C281.658 362.753 281.344 362.487 280.958 362.3C280.584 362.1 280.131 362 279.598 362C279.091 362 278.624 362.087 278.198 362.26C277.771 362.433 277.444 362.613 277.218 362.8V369.38ZM290.255 371.2C289.108 371.173 288.295 370.927 287.815 370.46C287.335 369.993 287.095 369.267 287.095 368.28V355.8L288.955 355.48V367.98C288.955 368.287 288.982 368.54 289.035 368.74C289.088 368.94 289.175 369.1 289.295 369.22C289.415 369.34 289.575 369.433 289.775 369.5C289.975 369.553 290.222 369.6 290.515 369.64L290.255 371.2ZM292.024 365.82C292.024 364.9 292.157 364.1 292.424 363.42C292.691 362.727 293.044 362.153 293.484 361.7C293.924 361.247 294.431 360.907 295.004 360.68C295.577 360.453 296.164 360.34 296.764 360.34C298.164 360.34 299.237 360.78 299.984 361.66C300.731 362.527 301.104 363.853 301.104 365.64C301.104 365.72 301.104 365.827 301.104 365.96C301.104 366.08 301.097 366.193 301.084 366.3H293.964C294.044 367.38 294.357 368.2 294.904 368.76C295.451 369.32 296.304 369.6 297.464 369.6C298.117 369.6 298.664 369.547 299.104 369.44C299.557 369.32 299.897 369.207 300.124 369.1L300.384 370.66C300.157 370.78 299.757 370.907 299.184 371.04C298.624 371.173 297.984 371.24 297.264 371.24C296.357 371.24 295.571 371.107 294.904 370.84C294.251 370.56 293.711 370.18 293.284 369.7C292.857 369.22 292.537 368.653 292.324 368C292.124 367.333 292.024 366.607 292.024 365.82ZM299.164 364.8C299.177 363.96 298.964 363.273 298.524 362.74C298.097 362.193 297.504 361.92 296.744 361.92C296.317 361.92 295.937 362.007 295.604 362.18C295.284 362.34 295.011 362.553 294.784 362.82C294.557 363.087 294.377 363.393 294.244 363.74C294.124 364.087 294.044 364.44 294.004 364.8H299.164Z" fill="#42454A"/>
<path d="M20.5234 339.137L37.2105 349.396L35.887 350.877L20.0477 341.138L1.87242 352.319V374.687C7.9288 378.41 13.9913 382.139 20.0477 385.862L38.229 374.681V358.394L22.9081 376.435L11.6675 359.946L22.9081 366.495L49 345.712L40.0953 356.198V375.253C40.0953 375.649 39.8819 375.987 39.5708 376.149L20.5173 387.869C20.2123 388.051 19.8525 388.038 19.5719 387.863C13.2045 383.945 6.84317 380.028 0.475728 376.11C0.176873 375.928 0.00609908 375.597 0.00609908 375.253L0 351.747C0 351.351 0.219567 351.013 0.53062 350.851L19.5841 339.131C19.883 338.949 20.2428 338.962 20.5234 339.137Z" fill="#42454A"/>
<path d="M20.9 20.35C17.2667 20.35 14.6333 21.3667 13 23.4C11.4 25.4 10.6 28.15 10.6 31.65C10.6 33.35 10.8 34.9 11.2 36.3C11.6 37.6667 12.2 38.85 13 39.85C13.8 40.85 14.8 41.6333 16 42.2C17.2 42.7333 18.6 43 20.2 43C21.0667 43 21.8 42.9833 22.4 42.95C23.0333 42.9167 23.5833 42.85 24.05 42.75V30.7H31.85V47.85C30.9167 48.2167 29.4167 48.6 27.35 49C25.2833 49.4333 22.7333 49.65 19.7 49.65C17.1 49.65 14.7333 49.25 12.6 48.45C10.5 47.65 8.7 46.4833 7.2 44.95C5.7 43.4167 4.53333 41.5333 3.7 39.3C2.9 37.0667 2.5 34.5167 2.5 31.65C2.5 28.75 2.95 26.1833 3.85 23.95C4.75 21.7167 5.98333 19.8333 7.55 18.3C9.11667 16.7333 10.95 15.55 13.05 14.75C15.1833 13.95 17.45 13.55 19.85 13.55C21.4833 13.55 22.95 13.6667 24.25 13.9C25.5833 14.1 26.7167 14.35 27.65 14.65C28.6167 14.9167 29.4 15.2 30 15.5C30.6333 15.8 31.0833 16.0333 31.35 16.2L29.1 22.45C28.0333 21.8833 26.8 21.4 25.4 21C24.0333 20.5667 22.5333 20.35 20.9 20.35ZM63.2074 35.8C63.2074 37.8667 62.9074 39.7667 62.3074 41.5C61.7074 43.2 60.8408 44.6667 59.7074 45.9C58.5741 47.1 57.2074 48.0333 55.6074 48.7C54.0408 49.3667 52.2741 49.7 50.3074 49.7C48.3741 49.7 46.6074 49.3667 45.0074 48.7C43.4408 48.0333 42.0908 47.1 40.9574 45.9C39.8241 44.6667 38.9408 43.2 38.3074 41.5C37.6741 39.7667 37.3574 37.8667 37.3574 35.8C37.3574 33.7333 37.6741 31.85 38.3074 30.15C38.9741 28.45 39.8741 27 41.0074 25.8C42.1741 24.6 43.5408 23.6667 45.1074 23C46.7074 22.3333 48.4408 22 50.3074 22C52.2074 22 53.9408 22.3333 55.5074 23C57.1074 23.6667 58.4741 24.6 59.6074 25.8C60.7408 27 61.6241 28.45 62.2574 30.15C62.8908 31.85 63.2074 33.7333 63.2074 35.8ZM55.6074 35.8C55.6074 33.5 55.1408 31.7 54.2074 30.4C53.3074 29.0667 52.0074 28.4 50.3074 28.4C48.6074 28.4 47.2908 29.0667 46.3574 30.4C45.4241 31.7 44.9574 33.5 44.9574 35.8C44.9574 38.1 45.4241 39.9333 46.3574 41.3C47.2908 42.6333 48.6074 43.3 50.3074 43.3C52.0074 43.3 53.3074 42.6333 54.2074 41.3C55.1408 39.9333 55.6074 38.1 55.6074 35.8ZM79.4785 49.5C77.3118 49.4667 75.5452 49.2333 74.1785 48.8C72.8452 48.3667 71.7785 47.7667 70.9785 47C70.2118 46.2 69.6785 45.25 69.3785 44.15C69.1118 43.0167 68.9785 41.75 68.9785 40.35V11.4L76.4285 10.2V38.85C76.4285 39.5167 76.4785 40.1167 76.5785 40.65C76.6785 41.1833 76.8618 41.6333 77.1285 42C77.4285 42.3667 77.8452 42.6667 78.3785 42.9C78.9118 43.1333 79.6285 43.2833 80.5285 43.35L79.4785 49.5ZM96.1988 10.2C97.5988 10.2 98.8822 10.35 100.049 10.65C101.215 10.9167 102.115 11.1833 102.749 11.45L101.299 17.4C100.632 17.1 99.8988 16.8833 99.0988 16.75C98.3322 16.5833 97.6155 16.5 96.9488 16.5C96.0488 16.5 95.2822 16.6333 94.6488 16.9C94.0488 17.1333 93.5655 17.4667 93.1988 17.9C92.8655 18.3333 92.6155 18.85 92.4488 19.45C92.3155 20.05 92.2488 20.7 92.2488 21.4V22.7H101.449V28.9H92.2488V49H84.7988V21.3C84.7988 17.9 85.7488 15.2 87.6488 13.2C89.5822 11.2 92.4322 10.2 96.1988 10.2ZM129.954 49.45C128.054 49.45 126.154 49.3833 124.254 49.25C122.388 49.15 120.438 48.8833 118.404 48.45V14.85C120.004 14.55 121.754 14.3333 123.654 14.2C125.554 14.0333 127.321 13.95 128.954 13.95C131.154 13.95 133.171 14.1167 135.004 14.45C136.871 14.75 138.471 15.2833 139.804 16.05C141.138 16.8167 142.171 17.8333 142.904 19.1C143.671 20.3333 144.054 21.8667 144.054 23.7C144.054 26.4667 142.721 28.65 140.054 30.25C142.254 31.0833 143.754 32.2167 144.554 33.65C145.354 35.0833 145.754 36.7 145.754 38.5C145.754 42.1333 144.421 44.8667 141.754 46.7C139.121 48.5333 135.188 49.45 129.954 49.45ZM126.004 33.9V42.85C126.571 42.9167 127.188 42.9667 127.854 43C128.521 43.0333 129.254 43.05 130.054 43.05C132.388 43.05 134.271 42.7167 135.704 42.05C137.138 41.3833 137.854 40.15 137.854 38.35C137.854 36.75 137.254 35.6167 136.054 34.95C134.854 34.25 133.138 33.9 130.904 33.9H126.004ZM126.004 27.95H129.804C132.204 27.95 133.921 27.65 134.954 27.05C135.988 26.4167 136.504 25.4167 136.504 24.05C136.504 22.65 135.971 21.6667 134.904 21.1C133.838 20.5333 132.271 20.25 130.204 20.25C129.538 20.25 128.821 20.2667 128.054 20.3C127.288 20.3 126.604 20.3333 126.004 20.4V27.95ZM161.548 43.8C162.281 43.8 162.981 43.7833 163.648 43.75C164.315 43.7167 164.848 43.6667 165.248 43.6V37.95C164.948 37.8833 164.498 37.8167 163.898 37.75C163.298 37.6833 162.748 37.65 162.248 37.65C161.548 37.65 160.881 37.7 160.248 37.8C159.648 37.8667 159.115 38.0167 158.648 38.25C158.181 38.4833 157.815 38.8 157.548 39.2C157.281 39.6 157.148 40.1 157.148 40.7C157.148 41.8667 157.531 42.6833 158.298 43.15C159.098 43.5833 160.181 43.8 161.548 43.8ZM160.948 22C163.148 22 164.981 22.25 166.448 22.75C167.915 23.25 169.081 23.9667 169.948 24.9C170.848 25.8333 171.481 26.9667 171.848 28.3C172.215 29.6333 172.398 31.1167 172.398 32.75V48.25C171.331 48.4833 169.848 48.75 167.948 49.05C166.048 49.3833 163.748 49.55 161.048 49.55C159.348 49.55 157.798 49.4 156.398 49.1C155.031 48.8 153.848 48.3167 152.848 47.65C151.848 46.95 151.081 46.05 150.548 44.95C150.015 43.85 149.748 42.5 149.748 40.9C149.748 39.3667 150.048 38.0667 150.648 37C151.281 35.9333 152.115 35.0833 153.148 34.45C154.181 33.8167 155.365 33.3667 156.698 33.1C158.031 32.8 159.415 32.65 160.848 32.65C161.815 32.65 162.665 32.7 163.398 32.8C164.165 32.8667 164.781 32.9667 165.248 33.1V32.4C165.248 31.1333 164.865 30.1167 164.098 29.35C163.331 28.5833 161.998 28.2 160.098 28.2C158.831 28.2 157.581 28.3 156.348 28.5C155.115 28.6667 154.048 28.9167 153.148 29.25L152.198 23.25C152.631 23.1167 153.165 22.9833 153.798 22.85C154.465 22.6833 155.181 22.55 155.948 22.45C156.715 22.3167 157.515 22.2167 158.348 22.15C159.215 22.05 160.081 22 160.948 22ZM185.485 35C185.485 39.1667 187.168 41.25 190.535 41.25C191.301 41.25 192.018 41.15 192.685 40.95C193.351 40.75 193.918 40.5167 194.385 40.25V28.35C194.018 28.2833 193.585 28.2333 193.085 28.2C192.585 28.1333 192.001 28.1 191.335 28.1C189.368 28.1 187.901 28.75 186.935 30.05C185.968 31.35 185.485 33 185.485 35ZM201.835 45.7C201.835 50 200.735 53.1833 198.535 55.25C196.368 57.35 193.001 58.4 188.435 58.4C186.835 58.4 185.235 58.25 183.635 57.95C182.035 57.6833 180.551 57.3167 179.185 56.85L180.485 50.6C181.651 51.0667 182.868 51.4333 184.135 51.7C185.435 51.9667 186.901 52.1 188.535 52.1C190.668 52.1 192.168 51.6333 193.035 50.7C193.935 49.7667 194.385 48.5667 194.385 47.1V46.15C193.585 46.5167 192.751 46.8 191.885 47C191.051 47.1667 190.135 47.25 189.135 47.25C185.501 47.25 182.718 46.1833 180.785 44.05C178.851 41.8833 177.885 38.8667 177.885 35C177.885 33.0667 178.185 31.3167 178.785 29.75C179.385 28.15 180.251 26.7833 181.385 25.65C182.551 24.5167 183.968 23.65 185.635 23.05C187.301 22.4167 189.185 22.1 191.285 22.1C192.185 22.1 193.101 22.15 194.035 22.25C195.001 22.3167 195.951 22.4167 196.885 22.55C197.818 22.6833 198.701 22.85 199.535 23.05C200.401 23.2167 201.168 23.4 201.835 23.6V45.7ZM231.484 13.95C236.684 13.95 240.667 14.8833 243.434 16.75C246.201 18.5833 247.584 21.45 247.584 25.35C247.584 27.7833 247.017 29.7667 245.884 31.3C244.784 32.8 243.184 33.9833 241.084 34.85C241.784 35.7167 242.517 36.7167 243.284 37.85C244.051 38.95 244.801 40.1167 245.534 41.35C246.301 42.55 247.034 43.8167 247.734 45.15C248.434 46.45 249.084 47.7333 249.684 49H240.934C240.301 47.8667 239.651 46.7167 238.984 45.55C238.351 44.3833 237.684 43.25 236.984 42.15C236.317 41.05 235.651 40.0167 234.984 39.05C234.317 38.05 233.651 37.15 232.984 36.35H229.134V49H221.334V14.85C223.034 14.5167 224.784 14.2833 226.584 14.15C228.417 14.0167 230.051 13.95 231.484 13.95ZM231.934 20.6C231.367 20.6 230.851 20.6167 230.384 20.65C229.951 20.6833 229.534 20.7167 229.134 20.75V30.15H231.334C234.267 30.15 236.367 29.7833 237.634 29.05C238.901 28.3167 239.534 27.0667 239.534 25.3C239.534 23.6 238.884 22.4 237.584 21.7C236.317 20.9667 234.434 20.6 231.934 20.6ZM277.514 35.8C277.514 37.8667 277.214 39.7667 276.614 41.5C276.014 43.2 275.147 44.6667 274.014 45.9C272.881 47.1 271.514 48.0333 269.914 48.7C268.347 49.3667 266.581 49.7 264.614 49.7C262.681 49.7 260.914 49.3667 259.314 48.7C257.747 48.0333 256.397 47.1 255.264 45.9C254.131 44.6667 253.247 43.2 252.614 41.5C251.981 39.7667 251.664 37.8667 251.664 35.8C251.664 33.7333 251.981 31.85 252.614 30.15C253.281 28.45 254.181 27 255.314 25.8C256.481 24.6 257.847 23.6667 259.414 23C261.014 22.3333 262.747 22 264.614 22C266.514 22 268.247 22.3333 269.814 23C271.414 23.6667 272.781 24.6 273.914 25.8C275.047 27 275.931 28.45 276.564 30.15C277.197 31.85 277.514 33.7333 277.514 35.8ZM269.914 35.8C269.914 33.5 269.447 31.7 268.514 30.4C267.614 29.0667 266.314 28.4 264.614 28.4C262.914 28.4 261.597 29.0667 260.664 30.4C259.731 31.7 259.264 33.5 259.264 35.8C259.264 38.1 259.731 39.9333 260.664 41.3C261.597 42.6333 262.914 43.3 264.614 43.3C266.314 43.3 267.614 42.6333 268.514 41.3C269.447 39.9333 269.914 38.1 269.914 35.8ZM282.035 35.85C282.035 33.95 282.335 32.1667 282.935 30.5C283.568 28.8 284.468 27.3333 285.635 26.1C286.802 24.8333 288.218 23.8333 289.885 23.1C291.552 22.3667 293.452 22 295.585 22C296.985 22 298.268 22.1333 299.435 22.4C300.602 22.6333 301.735 22.9833 302.835 23.45L301.285 29.4C300.585 29.1333 299.818 28.9 298.985 28.7C298.152 28.5 297.218 28.4 296.185 28.4C293.985 28.4 292.335 29.0833 291.235 30.45C290.168 31.8167 289.635 33.6167 289.635 35.85C289.635 38.2167 290.135 40.05 291.135 41.35C292.168 42.65 293.952 43.3 296.485 43.3C297.385 43.3 298.352 43.2167 299.385 43.05C300.418 42.8833 301.368 42.6167 302.235 42.25L303.285 48.35C302.418 48.7167 301.335 49.0333 300.035 49.3C298.735 49.5667 297.302 49.7 295.735 49.7C293.335 49.7 291.268 49.35 289.535 48.65C287.802 47.9167 286.368 46.9333 285.235 45.7C284.135 44.4667 283.318 43.0167 282.785 41.35C282.285 39.65 282.035 37.8167 282.035 35.85ZM315.735 32.2C316.468 31.4 317.218 30.5667 317.985 29.7C318.785 28.8333 319.552 27.9833 320.285 27.15C321.018 26.2833 321.702 25.4667 322.335 24.7C323.002 23.9333 323.568 23.2667 324.035 22.7H332.885C331.118 24.7333 329.385 26.6833 327.685 28.55C326.018 30.3833 324.185 32.2833 322.185 34.25C323.185 35.15 324.218 36.2333 325.285 37.5C326.352 38.7333 327.385 40.0167 328.385 41.35C329.385 42.6833 330.302 44.0167 331.135 45.35C331.968 46.6833 332.668 47.9 333.235 49H324.685C324.152 48.1333 323.535 47.1833 322.835 46.15C322.168 45.0833 321.452 44.0333 320.685 43C319.918 41.9333 319.102 40.9167 318.235 39.95C317.402 38.9833 316.568 38.1667 315.735 37.5V49H308.285V11.4L315.735 10.2V32.2Z" fill="#42454A"/>
</svg>
