<svg width="164" height="111" viewBox="0 0 164 111" fill="none" xmlns="http://www.w3.org/2000/svg">
<mask id="path-1-outside-1_2_89" maskUnits="userSpaceOnUse" x="0" y="-0.000976562" width="164" height="111" fill="black">
<rect fill="white" y="-0.000976562" width="164" height="111"/>
<path d="M44.5 109.499C16 109.499 1.75 91.899 1.75 56.699C1.75 37.399 5.5 23.449 13 14.849C20.5 6.14902 31.1 1.79902 44.8 1.79902C58.6 1.79902 69.2 6.14902 76.6 14.849C84 23.449 87.7 37.449 87.7 56.849C87.7 91.949 73.3 109.499 44.5 109.499ZM44.5 98.999C47.8 98.999 50.65 97.899 53.05 95.699C55.45 93.399 57.35 89.149 58.75 82.949C60.15 76.749 60.85 67.949 60.85 56.549C60.85 44.349 60.15 35.049 58.75 28.649C57.35 22.149 55.5 17.799 53.2 15.599C50.9 13.399 48.1 12.299 44.8 12.299C41.5 12.299 38.65 13.399 36.25 15.599C33.95 17.799 32.05 22.199 30.55 28.799C29.15 35.299 28.45 44.699 28.45 56.999C28.45 68.199 29.15 76.899 30.55 83.099C31.95 89.299 33.8 93.499 36.1 95.699C38.5 97.899 41.3 98.999 44.5 98.999ZM145.613 84.449C145.613 89.449 146.963 92.949 149.663 94.949C152.463 96.849 156.663 97.799 162.263 97.799C162.263 99.499 161.913 101.399 161.213 103.499C160.613 105.499 159.813 106.999 158.813 107.999H109.763C108.663 106.999 107.763 105.499 107.063 103.499C106.463 101.399 106.163 99.499 106.163 97.799C111.463 97.799 115.513 96.799 118.313 94.799C121.213 92.799 122.663 89.349 122.663 84.449V30.149C122.663 26.949 120.413 25.349 115.913 25.349C114.413 25.349 112.763 25.549 110.963 25.949C109.263 26.249 107.763 26.699 106.463 27.299L102.413 19.799L125.813 6.14902C128.913 4.34902 131.413 3.14902 133.313 2.54902C135.313 1.84902 137.063 1.49902 138.563 1.49902C141.063 1.49902 142.863 2.34902 143.963 4.04902C145.063 5.64902 145.613 7.49902 145.613 9.59902V84.449Z"/>
</mask>
<path d="M13 14.849L13.9044 15.6377L13.9089 15.6325L13 14.849ZM76.6 14.849L75.6859 15.6265L75.6904 15.6317L76.6 14.849ZM53.05 95.699L53.8609 96.5836L53.8707 96.5746L53.8803 96.5654L53.05 95.699ZM58.75 28.649L57.5769 28.9017L57.5777 28.9055L58.75 28.649ZM53.2 15.599L54.0295 14.7318L53.2 15.599ZM36.25 15.599L35.4391 14.7144L35.4297 14.723L35.4205 14.7318L36.25 15.599ZM30.55 28.799L29.3798 28.5331L29.3769 28.5464L30.55 28.799ZM30.55 83.099L31.7205 82.8347L30.55 83.099ZM36.1 95.699L35.2705 96.5662L35.2797 96.575L35.2891 96.5836L36.1 95.699ZM44.5 108.299C30.5099 108.299 20.21 103.992 13.3701 95.5439C6.49108 87.0477 2.95 74.1683 2.95 56.699H0.55C0.55 74.4298 4.13392 87.9504 11.5049 97.0541C18.915 106.206 29.9901 110.699 44.5 110.699V108.299ZM2.95 56.699C2.95 37.5043 6.68883 23.9116 13.9044 15.6377L12.0956 14.0603C4.31117 22.9865 0.55 37.2938 0.55 56.699H2.95ZM13.9089 15.6325C21.1367 7.24826 31.3752 2.99902 44.8 2.99902V0.599022C30.8248 0.599022 19.8633 5.04978 12.0911 14.0655L13.9089 15.6325ZM44.8 2.99902C58.3285 2.99902 68.5613 7.25027 75.6859 15.6265L77.5141 14.0715C69.8387 5.04777 58.8715 0.599022 44.8 0.599022V2.99902ZM75.6904 15.6317C82.8094 23.9052 86.5 37.5496 86.5 56.849H88.9C88.9 37.3484 85.1906 22.9929 77.5096 14.0663L75.6904 15.6317ZM86.5 56.849C86.5 74.2654 82.9226 87.1047 75.9723 95.5753C69.0593 104.001 58.6455 108.299 44.5 108.299V110.699C59.1545 110.699 70.3407 106.222 77.8277 97.0977C85.2774 88.0184 88.9 74.5327 88.9 56.849H86.5ZM44.5 100.199C48.0957 100.199 51.2362 98.9895 53.8609 96.5836L52.2391 94.8144C50.0638 96.8085 47.5043 97.799 44.5 97.799V100.199ZM53.8803 96.5654C56.5458 94.0109 58.5086 89.4662 59.9205 83.2133L57.5795 82.6847C56.1914 88.8318 54.3542 92.7871 52.2197 94.8326L53.8803 96.5654ZM59.9205 83.2133C61.3497 76.8839 62.05 67.9797 62.05 56.549H59.65C59.65 67.9183 58.9503 76.6141 57.5795 82.6847L59.9205 83.2133ZM62.05 56.549C62.05 44.3231 61.3502 34.9203 59.9223 28.3926L57.5777 28.9055C58.9498 35.1778 59.65 44.375 59.65 56.549H62.05ZM59.9231 28.3963C58.5171 21.8687 56.6101 17.2003 54.0295 14.7318L52.3705 16.4662C54.3899 18.3978 56.1829 22.4294 57.5769 28.9017L59.9231 28.3963ZM54.0295 14.7318C51.4972 12.3097 48.3964 11.099 44.8 11.099V13.499C47.8036 13.499 50.3028 14.4884 52.3705 16.4662L54.0295 14.7318ZM44.8 11.099C41.2043 11.099 38.0638 12.3085 35.4391 14.7144L37.0609 16.4836C39.2362 14.4895 41.7957 13.499 44.8 13.499V11.099ZM35.4205 14.7318C32.8438 17.1966 30.885 21.9106 29.3798 28.5331L31.7202 29.065C33.215 22.4874 35.0562 18.4015 37.0795 16.4662L35.4205 14.7318ZM29.3769 28.5464C27.9499 35.1719 27.25 44.6728 27.25 56.999H29.65C29.65 44.7253 30.3501 35.4262 31.7231 29.0517L29.3769 28.5464ZM27.25 56.999C27.25 68.2316 27.9505 77.035 29.3795 83.3633L31.7205 82.8347C30.3495 76.7631 29.65 68.1664 29.65 56.999H27.25ZM29.3795 83.3633C30.7886 89.6038 32.6996 94.107 35.2705 96.5662L36.9295 94.8318C34.9004 92.891 33.1114 88.9942 31.7205 82.8347L29.3795 83.3633ZM35.2891 96.5836C37.9062 98.9826 40.994 100.199 44.5 100.199V97.799C41.606 97.799 39.0938 96.8155 36.9109 94.8144L35.2891 96.5836ZM149.663 94.949L148.949 95.9133L148.969 95.9281L148.989 95.942L149.663 94.949ZM162.263 97.799H163.463V96.599H162.263V97.799ZM161.213 103.499L160.074 103.12L160.069 103.137L160.064 103.154L161.213 103.499ZM158.813 107.999V109.199H159.31L159.661 108.848L158.813 107.999ZM109.763 107.999L108.956 108.887L109.299 109.199H109.763V107.999ZM107.063 103.499L105.909 103.829L105.919 103.862L105.93 103.895L107.063 103.499ZM106.163 97.799V96.599H104.963V97.799H106.163ZM118.313 94.799L117.632 93.8112L117.623 93.8168L117.615 93.8225L118.313 94.799ZM110.963 25.949L111.171 27.1308L111.197 27.1262L111.223 27.1204L110.963 25.949ZM106.463 27.299L105.407 27.8692L105.942 28.8608L106.966 28.3886L106.463 27.299ZM102.413 19.799L101.808 18.7625L100.805 19.3475L101.357 20.3692L102.413 19.799ZM125.813 6.14902L125.21 5.11127L125.208 5.11249L125.813 6.14902ZM133.313 2.54902L133.674 3.69332L133.692 3.68776L133.709 3.68165L133.313 2.54902ZM143.963 4.04902L142.955 4.70092L142.965 4.71502L142.974 4.72886L143.963 4.04902ZM144.413 84.449C144.413 89.6358 145.815 93.5924 148.949 95.9133L150.377 93.9848C148.11 92.3057 146.813 89.2622 146.813 84.449H144.413ZM148.989 95.942C152.08 98.0392 156.565 98.999 162.263 98.999V96.599C156.761 96.599 152.846 95.6589 150.337 93.9561L148.989 95.942ZM161.063 97.799C161.063 99.3378 160.745 101.107 160.074 103.12L162.351 103.878C163.08 101.691 163.463 99.6602 163.463 97.799H161.063ZM160.064 103.154C159.495 105.048 158.773 106.342 157.964 107.15L159.661 108.848C160.853 107.656 161.73 105.95 162.362 103.844L160.064 103.154ZM158.813 106.799H109.763V109.199H158.813V106.799ZM110.57 107.111C109.667 106.29 108.856 104.989 108.196 103.103L105.93 103.895C106.67 106.009 107.659 107.708 108.956 108.887L110.57 107.111ZM108.217 103.169C107.639 101.148 107.363 99.3611 107.363 97.799H104.963C104.963 99.637 105.287 101.65 105.909 103.829L108.217 103.169ZM106.163 98.999C111.587 98.999 115.924 97.9802 119.01 95.7755L117.615 93.8225C115.102 95.6178 111.339 96.599 106.163 96.599V98.999ZM118.994 95.7869C122.336 93.4823 123.863 89.5764 123.863 84.449H121.463C121.463 89.1217 120.09 92.1158 117.632 93.8112L118.994 95.7869ZM123.863 84.449V30.149H121.463V84.449H123.863ZM123.863 30.149C123.863 28.2315 123.166 26.6343 121.671 25.5711C120.251 24.5613 118.269 24.149 115.913 24.149V26.549C118.057 26.549 119.45 26.9368 120.28 27.527C121.035 28.0637 121.463 28.8666 121.463 30.149H123.863ZM115.913 24.149C114.308 24.149 112.569 24.3627 110.703 24.7776L111.223 27.1204C112.956 26.7353 114.518 26.549 115.913 26.549V24.149ZM110.754 24.7673C108.973 25.0817 107.371 25.5584 105.96 26.2095L106.966 28.3886C108.155 27.8396 109.553 27.4164 111.171 27.1308L110.754 24.7673ZM107.519 26.7288L103.469 19.2288L101.357 20.3692L105.407 27.8692L107.519 26.7288ZM103.018 20.8356L126.418 7.18555L125.208 5.11249L101.808 18.7625L103.018 20.8356ZM126.415 7.18677C129.489 5.4019 131.9 4.25366 133.674 3.69332L132.952 1.40472C130.926 2.04438 128.336 3.29614 125.21 5.11127L126.415 7.18677ZM133.709 3.68165C135.63 3.00933 137.241 2.69902 138.563 2.69902V0.299019C136.885 0.299019 134.996 0.688705 132.916 1.41639L133.709 3.68165ZM138.563 2.69902C140.765 2.69902 142.13 3.42531 142.955 4.70092L144.97 3.39712C143.596 1.27272 141.361 0.299019 138.563 0.299019V2.69902ZM142.974 4.72886C143.925 6.11234 144.413 7.72099 144.413 9.59902H146.813C146.813 7.27705 146.201 5.18569 144.952 3.36919L142.974 4.72886ZM144.413 9.59902V84.449H146.813V9.59902H144.413Z" fill="#8B938D" mask="url(#path-1-outside-1_2_89)"/>
</svg>
